<svg width="166" height="204" viewBox="0 0 166 204" fill="none" xmlns="http://www.w3.org/2000/svg">
<path d="M77.3834 39.3177C77.0351 47.3271 75.879 64.14 74.0403 67.3159C73.2215 68.7303 72.0048 81.7079 71.2785 99.4929M77.3834 203.128C76.5876 200.486 75.877 197.542 75.2444 194.353M32.6698 81.106C35.2189 92.2242 41.8696 115.946 50.8477 135.925M75.2444 194.353C74.5898 190.708 74.0873 187.533 73.2676 184.114M75.2444 194.353C70.2103 168.973 70.1127 128.04 71.2785 99.4929M138.603 120.178C127.577 127.436 110.751 139.634 96.9333 152.146M73.2676 184.114C71.4087 176.363 67.9186 167.363 57.3249 148.803C55.059 144.834 52.893 140.476 50.8477 135.925M73.2676 184.114C93.5436 163.053 100.757 124.218 101.83 107.433M73.2676 184.114C73.6931 177.996 79.1772 170.074 87.0425 161.758M50.8477 135.925C49.5778 133.492 48.16 131.168 46.6271 128.954M107.262 37.6461C107.262 39.8052 101.83 43.9272 95.3523 48.5111M107.262 37.6461C107.262 37.7823 107.18 37.9716 107.028 38.205M107.262 37.6461C107.187 37.8266 107.109 38.013 107.028 38.205M71.2785 99.4929C71.3866 96.4281 72.3208 92.2736 74.0403 87.8105M74.0403 87.8105C76.7753 80.7117 81.4967 72.8323 88.0394 67.3159C96.3411 60.3164 103.996 45.3513 107.028 38.205M74.0403 87.8105C77.1744 76.1733 81.7711 58.1224 95.3523 48.5111M95.3523 48.5111C98.918 45.7586 105.686 40.2642 107.028 38.205M77.3834 89.8816C87.1867 80.8518 106.84 57.8747 107.028 38.205M46.6271 128.954C36.7651 119.76 43.9526 127.491 32.6698 117.88C19.7989 115.205 7.52708 102.279 3 96.1499C10.8905 98.8384 25.9886 106.406 38.2852 118.925M46.6271 128.954C44.1091 125.316 41.2803 121.974 38.2852 118.925M3 94.8962C11.1314 95.523 29.5725 101.206 38.2852 118.925M18.8796 106.179L26.8194 110.149M87.0425 161.758C87.0476 161.527 87.0729 161.246 87.1136 160.922M87.0425 161.758C90.0425 158.585 93.389 155.356 96.9333 152.146M87.1136 160.922C87.4514 158.232 88.8527 152.516 88.6662 146.923C88.4573 140.655 84.2784 143.371 84.4874 131.252C84.6545 121.557 83.0248 111.333 82.189 107.433C84.9053 111.681 90.7556 120.178 92.4272 120.178C94.1686 120.178 97.561 136.95 91.7713 152.146M87.1136 160.922C89.0906 158.157 90.6143 155.183 91.7713 152.146M88.6662 121.223C90.3184 126.655 93.2525 140.446 91.7713 152.146M96.9333 152.146C101.421 149.43 111.608 143.329 116.455 140.655C122.515 137.311 143.827 137.729 149.677 140.655C142.364 145.251 130.872 153.818 114.366 151.311C108.934 150.485 95.9095 153.957 94.9345 156.534M96.9333 152.146C107.726 145.126 126.006 142.535 133.798 142.117" stroke="url(#paint0_linear)" stroke-width="1.5"/>
<path d="M58.531 12.9656C59.5686 17.6922 60.0655 21.674 62.36 25.8041C63.1115 27.1567 64.8614 28.7559 65.9638 29.8583C67.6739 31.5684 71.106 33.8248 73.3966 34.5883" stroke="url(#paint1_linear)" stroke-width="1.5" stroke-linecap="round"/>
<path d="M58.531 12.9656C61.2423 14.0898 64.148 15.7664 66.1891 17.9208C68.0326 19.8667 68.855 22.4103 70.4435 24.4527C71.3882 25.6673 72.069 28.1397 72.4957 29.6331C73.1023 31.7563 73.8471 34.1733 73.8471 36.3902" stroke="url(#paint2_linear)" stroke-width="1.5" stroke-linecap="round"/>
<path d="M69.3423 3.95575C65.9177 8.80728 67.7765 14.408 69.3423 19.4971C70.3694 22.8352 72.6307 25.7357 73.3966 29.1823C74.0876 32.2917 74.748 41.8275 74.748 38.6422" stroke="url(#paint3_linear)" stroke-width="1.5" stroke-linecap="round"/>
<path d="M69.7927 3.95575C72.0721 9.79655 77.4508 15.0806 77.4508 21.6243C77.4508 24.768 77.4403 27.6987 76.7751 30.7589C76.5505 31.7921 75.9679 37.0278 75.6489 36.3898" stroke="url(#paint4_linear)" stroke-width="1.5" stroke-linecap="round"/>
<path d="M76.0996 15.6682C75.3017 10.6817 76.7891 5.09474 80.6043 1.70349C81.6453 0.778132 83.0289 0.538623 82.1809 2.40423C81.2661 4.41695 82.7978 6.53205 83.4072 8.36049C84.945 12.9738 83.0697 18.8339 81.8556 23.3262C81.2215 25.6726 79.689 27.7024 79.0276 30.0833C78.479 32.0583 77.4507 34.1381 76.55 35.9395" stroke="url(#paint5_linear)" stroke-width="1.5" stroke-linecap="round"/>
<path d="M84.6582 12.5147C85.4496 8.90913 88.5806 6.78181 91.6405 5.08185C92.6951 4.49598 93.8957 3.90549 92.9919 5.53233C92.1291 7.08546 92.3627 8.99436 92.3162 10.7128C92.2499 13.1665 90.7012 16.1952 89.6134 18.3708C88.6041 20.3894 88.1185 23.1259 86.6853 24.8777C85.3969 26.4524 83.3343 27.5654 82.2056 29.2072C81.1678 30.7168 80.5862 31.7408 78.802 32.3355" stroke="url(#paint6_linear)" stroke-width="1.5" stroke-linecap="round"/>
<path d="M92.3163 8.46035C94.7034 7.44583 95.1038 6.39689 95.0191 9.3613C94.9785 10.7843 94.5686 12.1604 94.5686 13.6408C94.5686 16.197 93.016 18.6111 91.6155 20.6482C90.5037 22.2653 89.548 23.9283 88.4873 25.5783C87.6258 26.9185 85.9085 27.7258 84.7583 28.8318C83.1064 30.4202 80.0692 32.0632 77.9011 32.7859" stroke="url(#paint7_linear)" stroke-width="1.5" stroke-linecap="round"/>
<path d="M93.6678 16.5692C96.7231 16.0951 98.9713 15.2919 101.526 13.6661C102.15 13.2691 104.479 11.7324 104.479 13.1906C104.479 14.9282 103.78 15.9927 102.878 17.4701C101.784 19.2592 100.175 21.455 98.8483 23.076C96.5596 25.8733 93.3836 28.016 89.9639 29.2826C88.0405 29.995 86.4532 30.5732 84.4081 31.0845C83.2843 31.3654 80.0996 32.3898 80.1536 32.3358" stroke="url(#paint8_linear)" stroke-width="1.5" stroke-linecap="round"/>
<path d="M96.8213 26.0287C100.093 26.667 103.632 26.0826 106.056 28.5063C106.739 29.1894 107.852 30.2888 108.108 31.1841C108.11 31.1906 105.555 30.9273 104.479 30.9839C101.323 31.15 98.4067 33.2363 95.2446 33.2363C91.6427 33.2363 89.1755 31.1381 86.0099 30.0829" stroke="url(#paint9_linear)" stroke-width="1.5" stroke-linecap="round"/>
<path d="M70.6938 31.4346C70.7344 33.3829 71.1696 35.4729 72.9462 36.615C74.1439 37.385 75.5945 37.3105 76.7752 37.9664C77.7889 38.5296 76.2401 38.0338 75.8743 37.7412C75.0798 37.1056 75.0092 35.5018 74.7481 34.5879C74.5754 33.9835 72.6185 27.4304 73.6219 27.4304C74.3407 27.4304 77.0005 36.121 77.0005 37.516C77.0005 38.4824 77.0005 40.3047 77.0005 38.1917C77.0005 36.3038 76.9585 34.6171 76.4499 32.786C76.1788 31.8102 74.6125 28.6324 74.7481 28.8318C76.1694 30.922 77.8444 33.7222 77.9014 36.2897C77.937 37.8904 77.451 40.318 77.451 37.2907C77.451 35.0346 77.9014 32.8826 77.9014 30.6337C77.9014 29.3664 77.6767 26.6573 78.2518 29.5326C78.7979 32.263 79.059 35.0095 78.452 37.7412C78.3719 38.1017 77.501 40.8492 77.501 40.1688C77.501 38.5978 79.3284 36.0548 79.9286 34.5879C80.4929 33.2083 80.5615 31.488 81.5052 30.3084C82.0572 29.6184 81.959 33.1359 81.9307 33.4617C81.7662 35.3536 80.6716 37.3836 79.4781 38.8424C78.6687 39.8316 78.0699 40.074 79.0777 38.8424C80.5995 36.9824 81.6513 34.989 82.6314 32.811C83.3167 31.2882 83.3071 30.7855 83.3071 32.5858C83.3071 36.3501 80.5209 37.481 77.8013 39.0926C75.5851 40.4059 77.5286 39.1086 78.3519 38.0916C79.5109 36.6599 80.9779 34.8083 81.0547 32.8861C81.0613 32.7233 80.6423 35.3841 80.1538 36.3898C78.9118 38.9468 79.6318 36.4599 80.5042 35.2386C83.1249 31.5695 78.8024 40.2495 78.8024 35.4888" stroke="url(#paint10_linear)" stroke-width="1.5" stroke-linecap="round"/>
<path d="M77.0006 40.4442C79.3115 39.949 80.4551 39.0229 82.3062 37.7414C82.8323 37.3771 84.2448 36.456 82.8568 37.1908C81.2777 38.0268 80.0982 39.4117 78.352 39.9937" stroke="url(#paint11_linear)" stroke-width="1.5" stroke-linecap="round"/>
<path d="M73.3966 37.7415C73.9697 38.3145 76.8612 41.7347 78.2517 40.3442C78.5992 39.9967 75.8812 40.0166 75.649 39.8937C75.2725 39.6944 73.5923 37.5281 74.2976 37.8416C74.9096 38.1136 76.9806 39.9543 76.5499 39.0929" stroke="url(#paint12_linear)" stroke-width="1.5" stroke-linecap="round"/>
<path d="M70.6938 32.3356C70.6938 36.3855 72.5 40.4441 77.0005 40.4441" stroke="url(#paint13_linear)" stroke-width="1.5" stroke-linecap="round"/>
<path d="M75.1982 52.607C75.1982 50.664 75.7567 47.6677 74.8478 45.8499C74.037 44.2282 72.7624 44.6684 71.3942 43.7977C69.8058 42.7869 71.5122 44.6767 71.8447 45.1992C72.8329 46.7521 73.7457 48.401 74.7477 49.9041" stroke="url(#paint14_linear)" stroke-width="1.5" stroke-linecap="round"/>
<path d="M75.6492 55.31C76.4037 53.2141 77.4971 50.3491 79.4782 49.0284C80.4122 48.4057 80.3643 49.7337 80.0538 50.3548C78.9138 52.6348 76.5501 54.8297 76.5501 57.5623" stroke="url(#paint15_linear)" stroke-width="1.5" stroke-linecap="round"/>
<path d="M73.3966 66.1213C72.6026 64.0867 72.2187 61.7634 71.2443 59.8147C70.5627 58.4514 70.1992 59.182 70.5936 60.3653C71.3087 62.5103 70.9875 67.0223 73.8471 67.0223" stroke="url(#paint16_linear)" stroke-width="1.5" stroke-linecap="round"/>
<path d="M70.2435 99.9067C69.336 98.4183 68.6081 97.0566 67.0902 96.2028C66.6746 95.969 67.4615 96.7663 67.5657 97.7044C67.8959 100.676 66.9757 104.411 70.694 104.411" stroke="url(#paint17_linear)" stroke-width="1.5" stroke-linecap="round"/>
<path d="M69.3423 118.827C69.8763 116.335 70.6463 113.618 72.846 112.07C73.726 111.45 75.9773 110.462 74.9482 112.52C73.0195 116.378 71.5904 120.486 69.3423 124.232" stroke="url(#paint18_linear)" stroke-width="1.5" stroke-linecap="round"/>
<path d="M69.7927 135.044C68.8489 132.712 67.7682 130.366 65.9637 128.562C64.8351 127.433 65.7385 131.187 65.7385 131.465C65.7385 135.43 68.2547 137.373 69.7927 140.449" stroke="url(#paint19_linear)" stroke-width="1.5" stroke-linecap="round"/>
<path d="M71.5948 152.612C72.2585 151.063 73.5636 148.448 74.8482 147.306C75.1489 147.039 74.7092 151.344 74.648 151.711C74.2659 154.004 73.9482 159.369 70.6938 159.369" stroke="url(#paint20_linear)" stroke-width="1.5" stroke-linecap="round"/>
<path d="M35.1061 92.699C35.5328 91.6797 38.2594 83.5165 38.2594 87.4935C38.2594 90.0468 38.6136 95.2838 35.5566 96.3028" stroke="url(#paint21_linear)" stroke-width="1.5" stroke-linecap="round"/>
<path d="M36.9085 101.709C35.7466 100.74 29.9641 93.7205 31.6029 99.4564C32.0868 101.15 33.9512 102.253 35.5571 102.61C37.2138 102.978 37.0304 102.774 38.2599 102.159" stroke="url(#paint22_linear)" stroke-width="1.5" stroke-linecap="round"/>
<path d="M45.0168 123.331C45.9544 120.904 46.7272 118.484 47.3693 115.973C47.7889 114.333 48.4523 117.191 48.5205 117.575C49.0541 120.576 48.6902 125.41 45.4673 126.484" stroke="url(#paint23_linear)" stroke-width="1.5" stroke-linecap="round"/>
<path d="M55.3777 145.404C55.7561 144.245 57.0282 137.541 57.9804 141.35C58.6936 144.203 58.9691 147.231 57.6301 149.909" stroke="url(#paint24_linear)" stroke-width="1.5" stroke-linecap="round"/>
<path d="M64.8374 164.775C62.6873 163.974 60.3715 163.471 58.1304 162.973C57.2938 162.787 56.0468 161.84 57.4296 163.223C58.4996 164.293 63.7566 167.837 64.8374 165.675" stroke="url(#paint25_linear)" stroke-width="1.5" stroke-linecap="round"/>
<path d="M99.0735 125.133C100.205 123.685 101.749 122.858 102.677 121.279C103.555 119.786 103.293 121.344 103.128 122.005C102.313 125.263 100.221 128.337 96.8212 129.187" stroke="url(#paint26_linear)" stroke-width="1.5" stroke-linecap="round"/>
<path d="M117.543 130.539C118.326 128.32 120.126 125.421 119.77 122.931C119.629 121.942 118.07 122.677 117.994 123.331C117.637 126.359 115.527 129.209 117.093 132.341" stroke="url(#paint27_linear)" stroke-width="1.5" stroke-linecap="round"/>
<path d="M126.552 124.683C128.474 124.943 130.501 124.702 132.308 124.883C132.827 124.935 131.541 126.184 131.508 126.26C130.218 129.161 126.44 128.737 123.849 128.737" stroke="url(#paint28_linear)" stroke-width="1.5" stroke-linecap="round"/>
<path d="M81.9555 168.378C84.3007 167.046 86.9151 165.881 89.5385 165.225C90.1962 165.061 89.8118 165.331 89.5135 166.226C88.2091 170.139 84.615 170.631 81.0546 170.631" stroke="url(#paint29_linear)" stroke-width="1.5" stroke-linecap="round"/>
<path d="M139.616 118.827C135.981 117.282 134.211 110.293 134.211 106.439C134.211 104.339 134.549 102.369 134.661 100.357C134.745 98.8568 135.155 98.1591 135.912 99.1058C136.628 100 137.919 102.161 138.265 103.285C138.963 105.553 138.388 107.752 138.74 110.042C139.071 112.19 139.03 114.446 139.516 116.574C139.623 117.042 140.067 121.666 140.067 119.277" stroke="url(#paint30_linear)" stroke-width="1.5" stroke-linecap="round"/>
<path d="M137.814 102.159C137.874 99.1566 138.343 92.7487 140.517 90.4468C142.77 88.0612 144.64 95.1359 145.472 96.7534C147.656 101 145.97 103.52 145.122 108.015C144.705 110.226 143.18 112.874 141.868 114.747C141.452 115.342 140.086 118.416 139.616 117.475" stroke="url(#paint31_linear)" stroke-width="1.5" stroke-linecap="round"/>
<path d="M145.472 105.763C146.462 101.606 149.369 100.073 153.13 99.1061C154.278 98.811 155.278 98.5555 156.459 98.5555C156.483 98.5555 156.144 99.0672 156.058 99.2563C155.775 99.879 155.531 100.641 155.383 101.308C154.407 105.701 151.739 109.044 148.4 111.87C146.98 113.071 145.777 114.268 144.471 115.573C143.258 116.786 141.402 117.54 140.968 119.277" stroke="url(#paint32_linear)" stroke-width="1.5" stroke-linecap="round"/>
<path d="M149.977 110.268C152.497 108.858 158.676 105.991 161.914 107.79C164.264 109.096 163.914 110.943 161.589 112.52C157.9 115.024 155.001 117.719 150.703 119.027C148.801 119.606 140.971 121.536 140.067 119.728" stroke="url(#paint33_linear)" stroke-width="1.5" stroke-linecap="round"/>
<path d="M154.482 117.925C157.622 118.359 161.077 118.804 163.942 120.078C164.691 120.411 165.775 120.364 164.167 121.079C162.543 121.8 160.998 122.253 159.337 122.881C155.9 124.179 153.416 123.763 149.977 122.781C148.788 122.441 147.73 121.379 146.573 120.853C145.537 120.383 143.745 120.326 143.22 119.277" stroke="url(#paint34_linear)" stroke-width="1.5" stroke-linecap="round"/>
<path d="M153.581 123.782C154.967 127.124 156.993 129.753 159.437 132.341C160.402 133.363 158.851 133.724 157.985 133.692C156.116 133.623 154.812 132.317 153.105 131.89C150.496 131.238 147.776 128.84 145.723 127.16C143.873 125.647 140.968 121.23 140.968 118.826" stroke="url(#paint35_linear)" stroke-width="1.5" stroke-linecap="round"/>
<path d="M136.463 120.178C138.002 121.673 139.204 122.881 141.418 122.881" stroke="url(#paint36_linear)" stroke-width="1.5" stroke-linecap="round"/>
<path d="M137.364 117.926C138.004 114.87 143.171 106.944 142.219 109.917C141.692 111.564 140.333 112.85 139.616 114.422C139.326 115.06 137.772 119.978 136.914 119.978C136.47 119.978 137.196 119.137 137.364 118.726C137.74 117.806 138.182 116.963 138.715 116.124C139.768 114.47 140.578 111.604 142.219 110.468C143.308 109.714 141.51 113.606 141.418 113.771C140.441 115.531 138.315 120.965 138.315 118.952C138.315 117.123 140.049 114.755 140.943 113.246C142.412 110.767 142.216 112.549 141.393 114.297C140.609 115.964 139.643 117.91 138.115 119.002C137.17 119.676 139.49 117.113 140.342 116.324C141.74 115.03 145.138 111.319 147.124 111.319C147.7 111.319 144.476 114.881 144.096 115.198C142.578 116.463 140.68 117.258 139.041 118.351C137.812 119.17 141.584 116.85 142.87 116.124C143.116 115.984 146.946 114.207 146.173 115.323C145.077 116.906 142.708 117.785 140.968 118.376C138.322 119.275 140.718 118.447 142.069 118.276C143.728 118.066 147.074 117.926 147.074 117.926C147.074 117.926 138.166 117.866 140.367 118.276C142.244 118.625 144.842 118.626 146.724 118.276C148.72 117.905 144.757 118.316 144.321 118.376C143.581 118.478 139.971 119.199 140.417 119.252C142.067 119.446 143.779 119.067 145.423 119.302C147.459 119.593 137.209 119.727 139.266 119.727C141.249 119.727 143.182 119.277 145.172 119.277C147.277 119.277 144.453 119.277 143.896 119.277C138.937 119.277 147.061 119.727 141.869 119.727" stroke="url(#paint37_linear)" stroke-width="1.5" stroke-linecap="round"/>
<path d="M144.121 113.421C143.284 113.927 139.996 115.256 139.691 116.324C139.621 116.571 143.415 114.208 143.846 113.921C147.851 111.251 143.332 114.247 141.869 115.223" stroke="url(#paint38_linear)" stroke-width="1.5" stroke-linecap="round"/>
<path d="M99.524 102.609C96.2306 102.531 89.8598 101.424 88.8127 97.6541C87.8916 94.3382 86.6277 89.5841 90.064 87.2932" stroke="url(#paint39_linear)" stroke-width="1.5" stroke-linecap="round"/>
<path d="M99.0737 101.708C95.892 102.329 95.0059 101.016 93.6681 98.1046C92.6417 95.8706 92.6809 92.9608 92.7671 90.5466C92.8937 87.0024 96.1626 76.9957 96.3709 80.5361C96.4839 82.4576 96.7527 83.9558 97.1717 85.8417C97.6988 88.2134 99.0648 89.5923 99.8746 91.6978C101.258 95.2956 103.707 101.172 99.5242 103.961" stroke="url(#paint40_linear)" stroke-width="1.5" stroke-linecap="round"/>
<path d="M97.7222 84.5903C100.493 87.9492 103.68 90.0552 104.004 94.751C104.141 96.7471 102.924 104.862 99.9745 104.862" stroke="url(#paint41_linear)" stroke-width="1.5" stroke-linecap="round"/>
<path d="M103.128 90.447C104.018 86.6208 106.691 85.0244 108.434 81.888C110.202 78.7051 109.435 84.5886 109.435 85.9423C109.435 89.3733 110.282 94.3885 109.234 97.6546C108.382 100.311 105.153 103.511 102.227 103.511" stroke="url(#paint42_linear)" stroke-width="1.5" stroke-linecap="round"/>
<path d="M109.885 90.8972C110.203 90.3448 113.257 84.341 113.839 85.1412C114.493 86.0398 114.509 90.2391 114.29 91.2476C113.496 94.8967 106.652 107.975 101.326 105.312" stroke="url(#paint43_linear)" stroke-width="1.5" stroke-linecap="round"/>
<path d="M115.741 89.5457C115.741 95.6067 113.333 99.4151 109.66 103.936C108.663 105.163 101.492 109.699 100.425 107.565" stroke="url(#paint44_linear)" stroke-width="1.5" stroke-linecap="round"/>
<path d="M99.9745 103.51C100.192 104.898 100.425 106.282 100.425 107.69C100.425 108.777 100.508 105.514 100.65 104.436C101.017 101.652 100.933 99.0813 100.875 103.611C100.859 104.878 100.939 106.543 100.225 107.665C99.9846 108.042 100.783 105.339 100.9 105.037C101.288 104.044 104.293 97.5589 103.128 101.809C102.854 102.808 100.776 110.166 101.576 105.938C101.703 105.266 103.67 98.5907 104.479 100.007C105.603 101.973 103.002 108.728 102.527 106.514C102.332 105.602 105.014 99.3199 105.28 99.5563C106.512 100.651 103.268 106.304 102.477 107.239C101.647 108.221 102.28 105.886 102.327 105.763C102.998 104.008 104.196 102.355 105.38 100.908C107.8 97.9496 105.519 104.654 105.18 105.488C103.833 108.794 105.773 102.896 106.732 101.909C108.275 100.32 105.231 106.215 104.78 106.989C104.609 107.281 107.256 103.058 107.783 103.811C108.63 105.022 103.9 107.744 104.755 106.889C106.319 105.324 106.206 106.714 104.93 107.565" stroke="url(#paint45_linear)" stroke-width="1.5" stroke-linecap="round"/>
<path d="M32.4033 81.4371C28.5884 81.4371 24.1389 81.5315 21.2416 78.6342C19.6208 77.0134 18.2918 75.1033 16.7368 73.4287C15.6905 72.3019 15.1848 70.5753 14.1341 69.5246C12.9187 68.3092 14.566 69.1489 15.3103 69.4746C17.4127 70.3944 19.868 70.5742 22.0174 71.3265C25.1193 72.4122 28.7995 77.299 28.7995 80.5362" stroke="url(#paint46_linear)" stroke-width="1.5" stroke-linecap="round"/>
<path d="M22.9434 71.5267C20.6774 68.411 19.0063 62.7804 19.8902 58.9134C20.0353 58.2785 20.4216 55.5751 21.3667 55.7852C22.2886 55.99 23.5163 58.31 24.1947 59.0136C27.2617 62.1942 30.5554 66.7537 31.4023 71.1763C31.8481 73.5046 31.6533 76.505 30.8267 78.7093C30.5866 79.3494 29.5693 82.0757 28.7995 80.5362" stroke="url(#paint47_linear)" stroke-width="1.5" stroke-linecap="round"/>
<path d="M28.7996 62.9679C28.3397 60.0355 27.482 54.3825 29.8007 51.8061C31.1425 50.3153 33.3371 54.3655 33.7549 55.4099C36.1261 61.3381 39.0656 77.1736 29.7006 78.7344" stroke="url(#paint48_linear)" stroke-width="1.5" stroke-linecap="round"/>
<path d="M35.5565 65.2203C36.8051 62.2374 40.1678 59.0268 40.5117 55.7603C40.8107 52.9201 42.1941 57.5162 42.3136 58.263C42.9155 62.0252 41.4238 65.2424 39.5857 68.5738C38.2172 71.0542 35.7717 74.8517 32.8536 75.5812" stroke="url(#paint49_linear)" stroke-width="1.5" stroke-linecap="round"/>
<path d="M40.0616 68.3736C42.3674 66.5949 44.8152 62.3201 48.1702 62.5175C49.2442 62.5807 47.1314 68.8526 46.7937 69.4998C45.2156 72.5246 33.5736 83.7775 30.6017 77.8336" stroke="url(#paint50_linear)" stroke-width="1.5" stroke-linecap="round"/>
<path d="M45.0168 71.5271C46.7877 72.2182 49.186 72.1652 47.7196 74.5803C46.5005 76.5883 44.573 77.7333 42.7895 79.1601C39.4157 81.8592 34.9632 80.5366 31.0521 80.5366" stroke="url(#paint51_linear)" stroke-width="1.5" stroke-linecap="round"/>
<path d="M33.7549 76.0313C33.7038 76.1257 31.0976 81.7373 31.7779 81.7373C32.7912 81.7373 33.5815 76.7585 33.6548 76.1315C33.7407 75.3974 33.9457 71.5376 33.78 74.3546C33.6387 76.7554 33.359 79.1859 33.3045 81.5872C33.2698 83.1109 33.7299 79.0096 33.7549 78.7092C33.9124 76.8199 33.7485 71.3628 34.5558 73.0782C35.3446 74.7545 34.3865 78.0202 34.2054 79.7853C33.8186 83.5569 34.1894 78.3351 34.4307 77.1826C34.5269 76.7225 35.1676 72.3614 35.4567 74.5298C35.7535 76.7553 35.7089 79.4467 34.8811 81.5622C33.9513 83.9385 32.0285 75.0838 34.4056 74.4046C35.7953 74.0076 32.8256 85.1173 32.4285 82.338C32.2506 81.0925 32.8504 79.6519 33.2044 78.4839C33.3539 77.9903 33.2647 80.6157 32.854 81.437" stroke="url(#paint52_linear)" stroke-width="1.5" stroke-linecap="round"/>
<path d="M25.1958 83.2389C26.3701 83.9263 27.5391 84.5366 28.7996 85.0408" stroke="url(#paint53_linear)" stroke-width="1.5" stroke-linecap="round"/>
<defs>
<linearGradient id="paint0_linear" x1="76.3386" y1="37.6461" x2="76.3386" y2="203.128" gradientUnits="userSpaceOnUse">
<stop stop-color="#7534FF"/>
<stop offset="1" stop-color="#5CAFFC"/>
</linearGradient>
<linearGradient id="paint1_linear" x1="65.9638" y1="12.9656" x2="65.9638" y2="34.5883" gradientUnits="userSpaceOnUse">
<stop stop-color="#7534FF"/>
<stop offset="1" stop-color="#5CAFFC"/>
</linearGradient>
<linearGradient id="paint2_linear" x1="66.1891" y1="12.9656" x2="66.1891" y2="36.3902" gradientUnits="userSpaceOnUse">
<stop stop-color="#7534FF"/>
<stop offset="1" stop-color="#5CAFFC"/>
</linearGradient>
<linearGradient id="paint3_linear" x1="71.079" y1="3.95575" x2="71.079" y2="39.2846" gradientUnits="userSpaceOnUse">
<stop stop-color="#7534FF"/>
<stop offset="1" stop-color="#5CAFFC"/>
</linearGradient>
<linearGradient id="paint4_linear" x1="73.6218" y1="3.95575" x2="73.6218" y2="36.4436" gradientUnits="userSpaceOnUse">
<stop stop-color="#7534FF"/>
<stop offset="1" stop-color="#5CAFFC"/>
</linearGradient>
<linearGradient id="paint5_linear" x1="79.9387" y1="1" x2="79.9387" y2="35.9395" gradientUnits="userSpaceOnUse">
<stop stop-color="#7534FF"/>
<stop offset="1" stop-color="#5CAFFC"/>
</linearGradient>
<linearGradient id="paint6_linear" x1="86.0562" y1="4.4765" x2="86.0562" y2="32.3355" gradientUnits="userSpaceOnUse">
<stop stop-color="#7534FF"/>
<stop offset="1" stop-color="#5CAFFC"/>
</linearGradient>
<linearGradient id="paint7_linear" x1="86.4652" y1="7.41821" x2="86.4652" y2="32.7859" gradientUnits="userSpaceOnUse">
<stop stop-color="#7534FF"/>
<stop offset="1" stop-color="#5CAFFC"/>
</linearGradient>
<linearGradient id="paint8_linear" x1="92.3161" y1="12.5748" x2="92.3161" y2="32.3378" gradientUnits="userSpaceOnUse">
<stop stop-color="#7534FF"/>
<stop offset="1" stop-color="#5CAFFC"/>
</linearGradient>
<linearGradient id="paint9_linear" x1="97.059" y1="26.0287" x2="97.059" y2="33.2363" gradientUnits="userSpaceOnUse">
<stop stop-color="#7534FF"/>
<stop offset="1" stop-color="#5CAFFC"/>
</linearGradient>
<linearGradient id="paint10_linear" x1="77.0005" y1="27.4304" x2="77.0005" y2="40.2766" gradientUnits="userSpaceOnUse">
<stop stop-color="#7534FF"/>
<stop offset="1" stop-color="#5CAFFC"/>
</linearGradient>
<linearGradient id="paint11_linear" x1="80.2253" y1="36.9142" x2="80.2253" y2="40.4442" gradientUnits="userSpaceOnUse">
<stop stop-color="#7534FF"/>
<stop offset="1" stop-color="#5CAFFC"/>
</linearGradient>
<linearGradient id="paint12_linear" x1="75.8395" y1="37.7415" x2="75.8395" y2="40.674" gradientUnits="userSpaceOnUse">
<stop stop-color="#7534FF"/>
<stop offset="1" stop-color="#5CAFFC"/>
</linearGradient>
<linearGradient id="paint13_linear" x1="73.8472" y1="32.3356" x2="73.8472" y2="40.4441" gradientUnits="userSpaceOnUse">
<stop stop-color="#7534FF"/>
<stop offset="1" stop-color="#5CAFFC"/>
</linearGradient>
<linearGradient id="paint14_linear" x1="73.0479" y1="43.505" x2="73.0479" y2="52.607" gradientUnits="userSpaceOnUse">
<stop stop-color="#7534FF"/>
<stop offset="1" stop-color="#5CAFFC"/>
</linearGradient>
<linearGradient id="paint15_linear" x1="77.9519" y1="48.8662" x2="77.9519" y2="57.5623" gradientUnits="userSpaceOnUse">
<stop stop-color="#7534FF"/>
<stop offset="1" stop-color="#5CAFFC"/>
</linearGradient>
<linearGradient id="paint16_linear" x1="72.139" y1="59.0775" x2="72.139" y2="67.0223" gradientUnits="userSpaceOnUse">
<stop stop-color="#7534FF"/>
<stop offset="1" stop-color="#5CAFFC"/>
</linearGradient>
<linearGradient id="paint17_linear" x1="68.832" y1="96.1616" x2="68.832" y2="104.411" gradientUnits="userSpaceOnUse">
<stop stop-color="#7534FF"/>
<stop offset="1" stop-color="#5CAFFC"/>
</linearGradient>
<linearGradient id="paint18_linear" x1="72.2772" y1="111.281" x2="72.2772" y2="124.232" gradientUnits="userSpaceOnUse">
<stop stop-color="#7534FF"/>
<stop offset="1" stop-color="#5CAFFC"/>
</linearGradient>
<linearGradient id="paint19_linear" x1="67.5945" y1="128.351" x2="67.5945" y2="140.449" gradientUnits="userSpaceOnUse">
<stop stop-color="#7534FF"/>
<stop offset="1" stop-color="#5CAFFC"/>
</linearGradient>
<linearGradient id="paint20_linear" x1="72.8231" y1="147.295" x2="72.8231" y2="159.369" gradientUnits="userSpaceOnUse">
<stop stop-color="#7534FF"/>
<stop offset="1" stop-color="#5CAFFC"/>
</linearGradient>
<linearGradient id="paint21_linear" x1="36.689" y1="86.4088" x2="36.689" y2="96.3028" gradientUnits="userSpaceOnUse">
<stop stop-color="#7534FF"/>
<stop offset="1" stop-color="#5CAFFC"/>
</linearGradient>
<linearGradient id="paint22_linear" x1="34.7863" y1="97.2251" x2="34.7863" y2="102.793" gradientUnits="userSpaceOnUse">
<stop stop-color="#7534FF"/>
<stop offset="1" stop-color="#5CAFFC"/>
</linearGradient>
<linearGradient id="paint23_linear" x1="46.8697" y1="115.47" x2="46.8697" y2="126.484" gradientUnits="userSpaceOnUse">
<stop stop-color="#7534FF"/>
<stop offset="1" stop-color="#5CAFFC"/>
</linearGradient>
<linearGradient id="paint24_linear" x1="56.9764" y1="140.192" x2="56.9764" y2="149.909" gradientUnits="userSpaceOnUse">
<stop stop-color="#7534FF"/>
<stop offset="1" stop-color="#5CAFFC"/>
</linearGradient>
<linearGradient id="paint25_linear" x1="60.8239" y1="162.484" x2="60.8239" y2="166.361" gradientUnits="userSpaceOnUse">
<stop stop-color="#7534FF"/>
<stop offset="1" stop-color="#5CAFFC"/>
</linearGradient>
<linearGradient id="paint26_linear" x1="100.059" y1="120.652" x2="100.059" y2="129.187" gradientUnits="userSpaceOnUse">
<stop stop-color="#7534FF"/>
<stop offset="1" stop-color="#5CAFFC"/>
</linearGradient>
<linearGradient id="paint27_linear" x1="118.169" y1="122.449" x2="118.169" y2="132.341" gradientUnits="userSpaceOnUse">
<stop stop-color="#7534FF"/>
<stop offset="1" stop-color="#5CAFFC"/>
</linearGradient>
<linearGradient id="paint28_linear" x1="128.14" y1="124.683" x2="128.14" y2="128.759" gradientUnits="userSpaceOnUse">
<stop stop-color="#7534FF"/>
<stop offset="1" stop-color="#5CAFFC"/>
</linearGradient>
<linearGradient id="paint29_linear" x1="85.4772" y1="165.18" x2="85.4772" y2="170.631" gradientUnits="userSpaceOnUse">
<stop stop-color="#7534FF"/>
<stop offset="1" stop-color="#5CAFFC"/>
</linearGradient>
<linearGradient id="paint30_linear" x1="137.139" y1="98.6743" x2="137.139" y2="119.958" gradientUnits="userSpaceOnUse">
<stop stop-color="#7534FF"/>
<stop offset="1" stop-color="#5CAFFC"/>
</linearGradient>
<linearGradient id="paint31_linear" x1="142.18" y1="89.9601" x2="142.18" y2="117.653" gradientUnits="userSpaceOnUse">
<stop stop-color="#7534FF"/>
<stop offset="1" stop-color="#5CAFFC"/>
</linearGradient>
<linearGradient id="paint32_linear" x1="148.714" y1="98.5555" x2="148.714" y2="119.277" gradientUnits="userSpaceOnUse">
<stop stop-color="#7534FF"/>
<stop offset="1" stop-color="#5CAFFC"/>
</linearGradient>
<linearGradient id="paint33_linear" x1="151.79" y1="107.215" x2="151.79" y2="120.483" gradientUnits="userSpaceOnUse">
<stop stop-color="#7534FF"/>
<stop offset="1" stop-color="#5CAFFC"/>
</linearGradient>
<linearGradient id="paint34_linear" x1="154.11" y1="117.925" x2="154.11" y2="123.697" gradientUnits="userSpaceOnUse">
<stop stop-color="#7534FF"/>
<stop offset="1" stop-color="#5CAFFC"/>
</linearGradient>
<linearGradient id="paint35_linear" x1="150.355" y1="118.826" x2="150.355" y2="133.694" gradientUnits="userSpaceOnUse">
<stop stop-color="#7534FF"/>
<stop offset="1" stop-color="#5CAFFC"/>
</linearGradient>
<linearGradient id="paint36_linear" x1="138.941" y1="120.178" x2="138.941" y2="122.881" gradientUnits="userSpaceOnUse">
<stop stop-color="#7534FF"/>
<stop offset="1" stop-color="#5CAFFC"/>
</linearGradient>
<linearGradient id="paint37_linear" x1="142.027" y1="109.261" x2="142.027" y2="119.978" gradientUnits="userSpaceOnUse">
<stop stop-color="#7534FF"/>
<stop offset="1" stop-color="#5CAFFC"/>
</linearGradient>
<linearGradient id="paint38_linear" x1="142.576" y1="112.84" x2="142.576" y2="116.342" gradientUnits="userSpaceOnUse">
<stop stop-color="#7534FF"/>
<stop offset="1" stop-color="#5CAFFC"/>
</linearGradient>
<linearGradient id="paint39_linear" x1="93.6641" y1="87.2932" x2="93.6641" y2="102.609" gradientUnits="userSpaceOnUse">
<stop stop-color="#7534FF"/>
<stop offset="1" stop-color="#5CAFFC"/>
</linearGradient>
<linearGradient id="paint40_linear" x1="97.2915" y1="79.7894" x2="97.2915" y2="103.961" gradientUnits="userSpaceOnUse">
<stop stop-color="#7534FF"/>
<stop offset="1" stop-color="#5CAFFC"/>
</linearGradient>
<linearGradient id="paint41_linear" x1="100.868" y1="84.5903" x2="100.868" y2="104.862" gradientUnits="userSpaceOnUse">
<stop stop-color="#7534FF"/>
<stop offset="1" stop-color="#5CAFFC"/>
</linearGradient>
<linearGradient id="paint42_linear" x1="105.993" y1="80.9563" x2="105.993" y2="103.511" gradientUnits="userSpaceOnUse">
<stop stop-color="#7534FF"/>
<stop offset="1" stop-color="#5CAFFC"/>
</linearGradient>
<linearGradient id="paint43_linear" x1="107.871" y1="85.0679" x2="107.871" y2="105.667" gradientUnits="userSpaceOnUse">
<stop stop-color="#7534FF"/>
<stop offset="1" stop-color="#5CAFFC"/>
</linearGradient>
<linearGradient id="paint44_linear" x1="108.083" y1="89.5457" x2="108.083" y2="108.127" gradientUnits="userSpaceOnUse">
<stop stop-color="#7534FF"/>
<stop offset="1" stop-color="#5CAFFC"/>
</linearGradient>
<linearGradient id="paint45_linear" x1="103.93" y1="99.5498" x2="103.93" y2="107.909" gradientUnits="userSpaceOnUse">
<stop stop-color="#7534FF"/>
<stop offset="1" stop-color="#5CAFFC"/>
</linearGradient>
<linearGradient id="paint46_linear" x1="23.0518" y1="68.8879" x2="23.0518" y2="81.4375" gradientUnits="userSpaceOnUse">
<stop stop-color="#7534FF"/>
<stop offset="1" stop-color="#5CAFFC"/>
</linearGradient>
<linearGradient id="paint47_linear" x1="25.6424" y1="55.7736" x2="25.6424" y2="81.0007" gradientUnits="userSpaceOnUse">
<stop stop-color="#7534FF"/>
<stop offset="1" stop-color="#5CAFFC"/>
</linearGradient>
<linearGradient id="paint48_linear" x1="32.1982" y1="51.4803" x2="32.1982" y2="78.7344" gradientUnits="userSpaceOnUse">
<stop stop-color="#7534FF"/>
<stop offset="1" stop-color="#5CAFFC"/>
</linearGradient>
<linearGradient id="paint49_linear" x1="37.6514" y1="54.8434" x2="37.6514" y2="75.5812" gradientUnits="userSpaceOnUse">
<stop stop-color="#7534FF"/>
<stop offset="1" stop-color="#5CAFFC"/>
</linearGradient>
<linearGradient id="paint50_linear" x1="39.5368" y1="62.5109" x2="39.5368" y2="79.5401" gradientUnits="userSpaceOnUse">
<stop stop-color="#7534FF"/>
<stop offset="1" stop-color="#5CAFFC"/>
</linearGradient>
<linearGradient id="paint51_linear" x1="39.6132" y1="71.5271" x2="39.6132" y2="80.8606" gradientUnits="userSpaceOnUse">
<stop stop-color="#7534FF"/>
<stop offset="1" stop-color="#5CAFFC"/>
</linearGradient>
<linearGradient id="paint52_linear" x1="33.6443" y1="72.7491" x2="33.6443" y2="82.7848" gradientUnits="userSpaceOnUse">
<stop stop-color="#7534FF"/>
<stop offset="1" stop-color="#5CAFFC"/>
</linearGradient>
<linearGradient id="paint53_linear" x1="26.9977" y1="83.2389" x2="26.9977" y2="85.0408" gradientUnits="userSpaceOnUse">
<stop stop-color="#7534FF"/>
<stop offset="1" stop-color="#5CAFFC"/>
</linearGradient>
</defs>
</svg>
