<svg width="441" height="580" viewBox="0 0 441 580" fill="none" xmlns="http://www.w3.org/2000/svg">
<path d="M111.469 179.743C112.368 180.193 113.287 180.655 114.224 181.128M470.276 448.652C465.107 448.448 431.156 422.189 393.966 390.16M114.224 181.128L80.0527 171.397C85.0005 160.735 49.962 142.996 48.0849 163.469C46.5832 179.846 68.1321 177.793 79.0943 174.719M114.224 181.128C115.99 182.02 117.821 182.951 119.71 183.918M85.9589 157.413C95.617 165.428 115.889 181.951 119.71 183.918M85.9589 157.413C92.7246 153.752 102.347 143.316 86.7122 130.859C65.678 125.941 65.8114 140.277 68.5074 148.06M85.9589 157.413C81.5938 160.812 76.3861 155.44 74.3279 152.33M119.71 183.918C122.046 185.114 124.471 186.366 126.978 187.669M138.031 193.482C133.034 190.812 125.038 174.616 121.665 166.852C139.473 156.014 114.767 124.417 106.381 142.004C99.6734 156.074 112.943 163.328 120.416 165.196M138.031 193.482C144.794 197.077 151.972 200.959 159.415 205.066M138.031 193.482C134.204 191.449 130.511 189.507 126.978 187.669M161.41 186.237C166.226 195.018 176.65 213.37 179.816 216.525M161.41 186.237C153.378 182.48 138.882 171.532 145.148 157.796C151.415 144.059 165.768 161.005 172.161 171.195C172.635 176.612 171.148 187.204 161.41 186.237ZM179.816 216.525C172.877 212.556 166.041 208.722 159.415 205.066M179.816 216.525C184.466 219.184 189.162 221.903 193.872 224.669M128.844 210.808C134.417 206.315 148.332 198.876 159.415 205.066M128.844 210.808C135.148 203.742 141.975 191.892 118.859 201.018C95.7433 210.144 106.317 218.566 114.493 221.636M128.844 210.808C127.547 217.33 120.208 219.633 116.701 219.97M176.073 227.144C179.398 224.775 187.612 220.964 193.872 224.669M176.073 227.144C169.351 222.194 154.983 215.887 151.289 230.253C146.671 248.211 173.701 245.698 174.679 242.055C175.658 238.412 181.854 230.578 176.073 227.144ZM193.872 224.669C205.448 231.466 217.11 238.546 228.383 245.71M212.615 247.213C215.802 245.386 223.418 242.527 228.383 245.71M212.615 247.213C202.865 242.932 184.46 239.659 188.839 260.822C205.491 278.84 224.632 242.477 212.615 247.213ZM228.383 245.71C239.456 252.747 250.154 259.865 260.026 266.877M104.261 270.067C108.782 268.224 116.097 266.048 124.592 264.869M260.026 266.877C259.589 267.466 252.997 269.046 243.279 270.635M260.026 266.877C266.663 271.591 272.927 276.258 278.681 280.819M147.635 252.932C158.053 260.348 182.161 275.085 195.245 274.705M147.635 252.932C138.461 252.636 121.846 248.83 128.779 235.977C137.445 219.91 162.849 253.58 147.635 252.932ZM195.245 274.705C191.559 274.672 187.947 274.528 184.486 274.252M195.245 274.705C200.614 274.754 206.142 274.571 211.601 274.23M71.4105 243.748C79.5777 246.536 97.4672 246.632 103.233 249.188M71.4105 243.748C70.5433 249.946 61.4686 248.939 57.0396 247.661M71.4105 243.748C77.2981 239.306 64.0085 230.493 57.9582 230.511C33.0662 230.583 43.1974 243.092 51.3745 249.337M103.233 249.188C109.741 252.073 114.372 260.508 124.592 264.869M103.233 249.188C96.5795 243.814 84.212 232.703 87.9693 231.254M124.592 264.869C134.263 263.527 145.464 263.477 155.816 266.681M139.822 277.017C142.886 272.684 150.376 264.55 155.816 266.681M155.816 266.681C158.135 267.399 160.411 268.28 162.617 269.346C168.22 272.052 175.891 273.564 184.486 274.252M160.324 289.266C163.879 284.108 173.688 273.884 184.486 274.252M204.248 281.244C205.135 279.017 207.848 274.496 211.601 274.23M211.601 274.23C223.219 273.505 234.519 272.067 243.279 270.635M239.705 290.005C238.776 283.921 238.19 271.529 243.279 270.635M203.795 162.052C215.047 163.626 228.501 182.768 241.86 206.958M278.681 280.819C289.222 289.175 298.052 297.178 304.328 304.478C320.842 323.686 348.128 349.703 375.886 374.351M278.681 280.819C275.997 275.417 273.173 269.583 270.242 263.5M208.155 187.347C216.76 188.939 235.548 195.09 241.86 206.958M241.86 206.958C232.564 193.876 230.591 172.44 230.766 163.357M241.86 206.958C246.862 216.016 251.851 225.783 256.706 235.601M227.322 216.194C233.557 218.071 246.493 223.588 253.927 231.918M256.706 235.601C255.912 234.319 254.974 233.091 253.927 231.918M256.706 235.601C261.378 245.049 265.926 254.544 270.242 263.5M252.693 190.122C250.834 200.087 248.479 222.397 253.927 231.918M270.242 263.5C271.012 251.642 271.696 226.56 268.268 221.098C263.983 214.27 255.783 206.847 261.709 199.777C267.636 192.707 274.685 191.719 276.768 194.478C278.85 197.238 282.084 211.856 272.151 223.948M298.754 241.987C302.696 242.538 310.713 244.523 317.543 248.521M354.46 281.377C362.218 285.919 368.517 296.18 371.119 303.456C369.845 293.601 367.728 278.551 365.403 264.459M354.46 281.377C347.588 276.861 329.181 275.043 320.837 274.698M354.46 281.377C350.83 279.252 345.706 274.667 340.345 269.507M332.785 245.761C333.771 252.235 336.663 266.048 340.345 269.507M340.345 269.507C334.42 263.805 328.206 257.401 323.401 252.841C321.668 251.195 319.662 249.761 317.543 248.521M301.198 217.623C303.354 225.182 309.643 241.945 317.543 248.521M338.069 207.993C342.873 211.298 353.538 220.228 357.768 229.509M357.768 229.509C356.058 213.427 350.534 201.029 343.772 191.762M357.768 229.509C359.993 234.389 362.826 248.835 365.403 264.459M315.28 169.752C322.19 171.906 333.25 178.216 342.428 189.979M307.024 139.295C313.734 144.132 327.944 158.074 337.871 178.958M342.428 189.979C341.064 186.119 339.527 182.442 337.871 178.958M342.428 189.979C342.881 190.56 343.329 191.154 343.772 191.762M329.882 150.073C334.155 155.688 341.735 169.326 337.871 178.958M350.414 172.693C346.696 175.631 340.162 183.557 343.772 191.762M368.876 209.79L365.403 264.459M349.688 304.901C344.262 309.572 331.157 314.551 322.146 297.097C326.971 282.369 340.019 292.851 345.94 299.933C351.883 298.625 365.017 297.665 370.015 304.289C374.679 310.47 374.552 344.41 382.534 369.335M393.966 390.16C388.885 385.214 385.242 377.794 382.534 369.335M393.966 390.16C387.988 385.011 381.926 379.713 375.886 374.351M391.868 257.484C395.648 264.561 399.731 277.108 400.804 293.185M382.534 369.335C389.885 356.23 394.633 343.484 397.483 331.509M400.804 293.185L411.567 279C410.482 270.291 412.516 253.165 429.336 254.334C446.155 255.502 435.925 269.573 428.708 276.462M400.804 293.185C401.556 304.45 400.829 317.447 397.483 331.509M397.483 331.509C400.652 325.821 406.331 316.105 410.297 310.608M410.297 310.608C412.009 308.235 413.402 306.648 414.136 306.513C417.177 305.951 437.725 286.116 438.336 306.443C438.826 322.705 419.847 315.996 410.297 310.608ZM197.768 338.893L225.899 346.329L217.977 332.385C221.027 335.28 227.137 343.836 227.169 354.9C227.176 357.518 232.737 359.882 241.879 361.99M375.886 374.351C353.551 373.506 321.15 371.719 292.288 368.998M227.209 368.728L241.879 361.99M241.879 361.99C253.951 364.774 272.268 367.111 292.288 368.998M277.451 383.657L292.288 368.998M292.288 368.998L256.462 346.656M93.2539 193.486C100.811 189.609 118.135 183.019 126.978 187.669M93.2539 193.486C95.5112 204.256 79.5525 203.824 71.291 202.261M93.2539 193.486C78.4016 183.903 70.1187 195.35 67.8338 202.271" stroke="white"/>
<path d="M88.0552 233.546C83.1703 234.123 77.3875 232.032 73.4194 229.093C71.1297 227.397 68.9491 225.783 68.3479 222.764C67.7886 219.957 68.4899 217.237 70.89 215.34C74.2955 212.649 78.5945 210.757 82.8598 212.524C89.154 215.131 93.4611 221.779 94.5726 228.332C95.5872 234.313 95.529 240.348 95.388 246.411" stroke="white" stroke-linecap="round"/>
<path d="M104.364 270.498C103.901 272.368 103.472 274.952 102.378 276.563C100.935 278.688 99.0341 280.432 97.0065 281.984C94.2852 284.067 91.7779 285.816 88.4082 286.625C85.7319 287.268 82.4152 285.428 80.6405 283.584C78.562 281.424 75.6866 278.48 75.4741 275.382C75.1909 271.252 80.2918 268.414 83.128 266.343C86.5592 263.838 90.5844 263.311 94.6882 262.962C97.5936 262.715 100.485 264.206 102.525 266.182C103.209 266.844 104.382 267.499 104.802 268.37C105.525 269.869 105.151 272.234 105.084 273.812" stroke="white" stroke-linecap="round"/>
<path d="M140.625 277.263C136.336 276.064 132.192 277.395 128.721 280.014C125.873 282.162 123.066 284.342 120.302 286.597C117.745 288.682 115.056 290.725 113.015 293.347C110.506 296.57 109.582 299.984 112.554 303.289C115.184 306.215 120.098 307.009 123.678 305.71C125.543 305.034 127.166 303.797 128.844 302.769C132.418 300.579 135.747 297.833 138.699 294.855C141.307 292.224 143.325 289.715 144.198 286.107C144.916 283.138 143.318 280.439 141.559 278.108C140.773 277.066 138.712 276.926 137.689 277.698" stroke="white" stroke-linecap="round"/>
<path d="M160.312 286.445C158.555 289.288 157.044 292.281 155.352 295.165C154.606 296.437 153.746 297.776 153.321 299.203C152.613 301.583 152.118 304.448 152.928 306.853C153.706 309.166 154.923 313.469 157.833 313.834C158.964 313.976 160.35 313.09 161.34 312.671C163.482 311.767 165.363 310.35 167.119 308.838C168.499 307.651 170.126 306.528 171.235 305.073C172.672 303.189 174.094 301.062 175.313 299.029C176.407 297.206 177.394 294.969 177.253 292.818C177.123 290.833 175.856 288.555 174.831 286.898C171.708 281.85 162.649 286.047 159.848 289.762" stroke="white" stroke-linecap="round"/>
<path d="M202.175 280.97C197.148 283.778 192.385 288.414 189.156 293.167C187.483 295.63 186.169 298.8 185.509 301.705C183.803 309.211 194.99 305.759 198.088 303.869C203.655 300.473 207.331 292.695 206.691 286.169C206.488 284.105 206.065 282.98 204.837 281.352C204.323 280.671 203.493 280.403 202.835 279.879C201.896 279.131 201.35 278.294 200.838 277.232" stroke="white" stroke-linecap="round"/>
<path d="M173.387 335.629C174.323 338.858 177.365 341.433 179.637 343.739C180.958 345.079 183.26 347.856 185.491 347.564C188.235 347.205 190.635 345.76 192.803 344.124C193.562 343.552 195.018 342.842 195.429 341.946C196.095 340.489 196.303 338.657 195.965 337.107C195.036 332.851 192.82 328.453 189.213 325.93C187.044 324.413 184.493 322.383 181.725 323.106C178.133 324.046 174.824 327.423 171.937 329.601C170.825 330.44 169.454 331.21 168.782 332.476C167.426 335.033 167.605 338.259 167.386 341.047" stroke="white" stroke-linecap="round"/>
<path d="M199.537 319.162C200.209 324.945 203.067 333.07 209.509 334.651C211.856 335.227 214.567 334.925 216.913 334.522C219.349 334.104 223.172 331.938 223.902 329.43C225.295 324.642 222.262 319.199 219.782 315.361C217.968 312.555 215.687 311.03 212.403 310.345C209.357 309.71 206.333 310.655 203.8 312.402C201.947 313.68 200.585 314.418 200.383 316.744" stroke="white" stroke-linecap="round"/>
<path d="M228.002 365.934C228.604 368.007 228.897 369.752 228.509 371.915C228.109 374.143 226.038 376.227 224.604 377.861C222.852 379.858 220.736 382.051 218.464 383.466C214.486 385.944 208.051 385.921 203.799 384.195C200.994 383.057 195.209 380.557 195.576 376.75C196.035 372.001 200.861 368.014 204.408 365.338C206.553 363.72 208.437 362.565 211.163 362.319C213.271 362.128 215.467 361.418 217.597 361.8C220.743 362.364 223.992 364.274 225.952 366.756C226.615 367.596 227.413 368.3 228.059 369.155C228.462 369.689 228.421 370.468 228.633 371.096" stroke="white" stroke-linecap="round"/>
<path d="M235.577 331.139C239.416 338.092 244.806 346.527 253.677 347.023C255.954 347.15 258.082 346.501 259.55 344.735C261.154 342.807 262.876 340.087 263.583 337.67C264.256 335.372 263.634 333.767 262.382 331.751C260.329 328.446 258.413 325.038 255.493 322.359C253.314 320.36 250.385 318.117 247.258 318.764C245.079 319.215 242.921 320.177 240.938 321.159C239.631 321.807 238.302 322.001 237.111 322.86C235.854 323.766 234.467 324.651 233.155 325.482C232 326.213 230.278 326.945 229.883 328.313" stroke="white" stroke-linecap="round"/>
<path d="M277.554 381.662C277.343 382.365 276.848 383.212 276.747 383.935C276.6 384.987 276.775 386.299 276.754 387.375C276.69 390.744 277.952 394.535 276.055 397.613C274.781 399.679 272.643 401.094 270.745 402.526C268.215 404.434 265.74 406.527 262.907 407.978C259.643 409.65 255.143 410.528 252.047 408.028C250.424 406.717 249.157 404.689 247.969 402.994C246.584 401.018 246.95 398.884 248.262 396.937C251.663 391.895 256.562 387.947 262.06 385.488C265.793 383.819 269.472 383.21 273.521 383.221C274.23 383.223 279.021 383.947 278.652 384.69" stroke="white" stroke-linecap="round"/>
<path d="M235.318 290.682C232.286 292.97 227.519 295.32 226.199 299.046C225.037 302.324 226.238 306.449 228.725 308.861C230.728 310.804 234.366 312.731 237.219 312.821C240.988 312.941 243.905 312.06 246.985 309.772C248.78 308.438 250.491 307.183 251.209 304.97C251.895 302.854 252.158 300.668 251.743 298.467C251.339 296.326 249.973 293.269 247.756 292.441C245.686 291.667 243.598 290.933 241.475 290.19" stroke="white" stroke-linecap="round"/>
<path d="M230.227 217.077C228.403 218.353 226.372 219.036 224.233 219.62C221.246 220.436 218.074 221.618 214.983 221.934C212.713 222.167 210.602 220.807 208.695 219.739C203.594 216.883 203.192 209.878 207.84 206.371C209.817 204.88 213.247 203.51 215.791 203.669C216.783 203.731 217.889 204.453 218.785 204.839C220.722 205.676 222.57 206.754 224.378 207.84C226.54 209.138 228.259 211.244 229.203 213.579C229.621 214.613 230.829 216.815 230.276 217.929" stroke="white" stroke-linecap="round"/>
<path d="M214.324 189.313C214.743 192.845 209.231 193.395 206.61 193.204C204.967 193.085 203.463 192.403 201.976 191.738C199.903 190.812 197.746 190.116 195.684 189.167C193.614 188.214 191.871 187.075 191.108 184.806C190.129 181.899 190.897 178.983 192.447 176.443C194.012 173.877 196.428 172.133 199.513 172.611C203.109 173.169 206.49 173.98 209.257 176.502C211.021 178.11 211.962 179.894 212.713 182.154C213.262 183.806 214.187 186.717 213.61 188.368" stroke="white" stroke-linecap="round"/>
<path d="M205.812 161.908C201.828 161.65 197.87 161.638 193.88 161.563C190.903 161.508 187.011 161.791 184.127 160.828C182.633 160.33 181.721 158.728 180.848 157.532C179.182 155.248 181.693 151.388 182.841 149.336C184.378 146.588 186.701 143.295 189.864 142.257C192.736 141.313 196.875 141.524 199.817 142.165C202.629 142.777 205.551 143.788 207.786 145.647C208.748 146.448 209.924 147.315 210.34 148.551C210.942 150.34 210.133 152.923 209.502 154.607C208.461 157.382 206.22 159.955 204.106 162.008" stroke="white" stroke-linecap="round"/>
<path d="M214.95 143.737C214.942 145.823 215.295 147.703 216.128 149.624C217.46 152.696 218.789 155.833 220.625 158.643C222.273 161.166 223.754 163.118 226.639 164.145C230.678 165.583 237.791 165.937 239.242 160.835C240.191 157.499 238.391 152.69 237.046 149.666C235.775 146.805 233.562 144.012 231.163 142.021C229.694 140.803 228.618 138.893 226.919 137.97C225.346 137.115 224.935 136.797 223.366 137.98" stroke="white" stroke-linecap="round"/>
<path d="M246.104 170.082C244.261 173.417 243.278 176.018 244.752 179.608C246.218 183.179 248.334 186.549 250.537 189.701C252.078 191.905 253.934 192.847 256.658 192.831C258.515 192.82 262.748 192.625 263.549 190.451C266.161 183.362 264.72 174.349 260.195 168.352C259.096 166.895 256.9 165.569 255.016 165.748C254.168 165.829 252.894 165.85 252.204 166.37" stroke="white" stroke-linecap="round"/>
<path d="M299.85 244.069C299.011 246.742 296.672 248.721 294.356 250.159C290.7 252.43 287.673 252.254 283.877 250.516C280.684 249.053 278.172 246.878 277.598 243.286C277.027 239.718 278.53 237.109 280.952 234.491C282.648 232.656 284.707 231.043 286.77 229.639C287.797 228.94 288.942 228.307 290.225 228.384C293.188 228.562 296.136 230.476 298.222 232.472C299.577 233.769 300.944 235.319 301.415 237.185C301.835 238.849 301.586 240.617 301.787 242.31" stroke="white" stroke-linecap="round"/>
<path d="M321.4 274.99C322.703 268.783 321.214 263.433 317.213 258.516C315.446 256.345 313.142 254.674 310.307 255.83C306.067 257.558 304.467 261.366 302.424 265.091C300.807 268.04 301.067 271.044 302.356 274.11C303.741 277.408 306.644 281.864 310.379 282.712C313.279 283.371 315.613 283.25 318.403 282.444C320.973 281.702 322.809 281.204 324.501 278.881C325.295 277.792 325.406 277.546 324.578 276.449" stroke="white" stroke-linecap="round"/>
<path d="M321.994 234.483C322.735 237.657 323.655 240.573 325.648 243.215C327.107 245.148 328.636 245.272 330.856 245.617C332.929 245.938 334.545 245.584 336.399 244.682C339.262 243.289 340.024 239.834 339.766 236.866C339.426 232.953 337.689 229.109 336.275 225.488C335.523 223.562 335.167 221.652 332.868 221.234C329.935 220.701 327.092 221.546 324.264 222.154C322.968 222.432 321.907 223.569 320.875 224.348" stroke="white" stroke-linecap="round"/>
<path d="M300.724 218.484C294.365 215.665 288.147 209.271 291.243 201.899C292.025 200.038 292.742 197.931 294.202 196.469C295.914 194.754 298.935 195.81 300.908 196.552C302.638 197.202 305.003 197.89 306.018 199.588C307.863 202.676 306.603 206.26 305.38 209.317C303.814 213.231 301.308 217.449 301.776 221.845" stroke="white" stroke-linecap="round"/>
<path d="M340.537 208.326C336.45 211.058 330.103 209.364 326.912 205.912C324.082 202.85 322.421 199.318 318.741 197.092C316.564 195.776 314.048 194.564 315.29 191.601C316.707 188.224 320.699 185.075 324.394 185.03C325.912 185.011 327.003 185.728 328.317 186.405C330.21 187.382 332.112 188.329 333.814 189.627C336.485 191.664 337.781 194.621 337.98 197.858C338.189 201.261 337.96 204.603 337.951 208.002C337.949 208.679 337.682 209.776 337.971 210.41C338.393 211.334 337.237 209.851 337.13 209.709" stroke="white" stroke-linecap="round"/>
<path d="M298.215 169.932C302.632 175.785 309.291 182.386 316.916 178.374C318.846 177.358 320.005 176.304 320.362 174.027C320.899 170.592 318.046 167.09 316.239 164.411C314.295 161.531 312.561 160.199 309.166 159.494C307.049 159.055 305.485 159.438 303.397 159.495C300.726 159.568 298.27 160.504 295.636 160.833C294.248 161.006 292.908 161.014 291.606 161.566" stroke="white" stroke-linecap="round"/>
<path d="M331.28 152.403C326.856 151.943 322.543 146.886 320.289 143.255C318.304 140.06 317.068 136.933 318.397 133.275C320.312 128.002 323.634 121.187 330.448 123.291C331.708 123.68 333.165 124.004 334.316 124.659C335.514 125.342 336.464 126.551 337.388 127.551C339.537 129.876 339.141 132.379 339.768 135.25C340.141 136.956 340.462 140.003 339.881 141.693C339.11 143.936 338.281 145.88 337.948 148.263" stroke="white" stroke-linecap="round"/>
<path d="M350.861 174.423C347.628 171.209 345.138 166.955 345.394 162.261C345.486 160.57 346.633 158.795 347.269 157.252C348.024 155.424 348.895 153.499 350.447 152.201C352.203 150.733 354.264 149.387 356.666 150.064C360.663 151.19 363.582 155.116 365.005 158.823C365.844 161.006 366.541 163.975 365.145 166.086C363.382 168.75 361.47 171.992 358.909 173.99C356.45 175.906 352.983 175.672 350.387 174.188" stroke="white" stroke-linecap="round"/>
<path d="M392.838 257.587C391.702 258.444 390.832 259.397 389.343 259.334C387.153 259.242 385.804 258.396 383.915 257.363C380.337 255.404 377.971 253.063 377.942 248.813C377.915 244.704 380.261 240.799 382.917 237.839C383.805 236.849 385.639 234.752 387.1 234.666C388.756 234.569 390.646 235.695 392.035 236.465C394.025 237.568 395.385 238.7 396.632 240.613C397.402 241.795 398.034 245.018 397.596 246.414C396.422 250.153 396.112 255.414 392.792 257.919" stroke="white" stroke-linecap="round"/>
<path d="M290.985 133.047C293.896 136.787 298.3 139.645 303.086 139.323C304.604 139.22 309.284 137.575 308.606 135.365C307.115 130.504 304.236 125.144 299.07 123.653C295.186 122.533 291.768 126.123 288.135 126.794" stroke="white" stroke-linecap="round"/>
<path d="M371.103 208.914C370.509 209.363 368.915 211.136 368.044 210.704C367.147 210.258 366.453 209.403 365.646 208.831C363.329 207.19 362.984 204.667 362.375 201.987C361.967 200.192 363.739 197.747 364.765 196.32C366.103 194.459 368.354 193.702 370.503 193.132C374.419 192.092 378.393 195.104 378.768 198.93C379.169 203.011 376.816 204.43 374.527 207.265" stroke="white" stroke-linecap="round"/>
</svg>
