<svg width="279" height="412" viewBox="0 0 279 412" fill="none" xmlns="http://www.w3.org/2000/svg">
<path d="M112.914 129.459C122.504 147.914 142.421 190.647 145.37 213.939C146.975 226.615 158.107 259.596 171.036 292.993M213.549 381.644C210.644 380.99 204.452 370.196 196.925 354.285M171.036 292.993C165.548 257.429 164.103 188.377 165.846 176.613C171.065 141.399 172.619 111.52 170.368 83.8183C181.597 102.358 202.724 147.126 197.4 177.881C202.732 222.432 189.974 258.936 190.256 272.218C190.539 285.5 183.569 325.672 196.925 354.285M171.036 292.993C167.232 283.313 146.107 266.505 136.02 259.31C98.9798 240.974 69.2413 217.476 59.002 208.019C76.3066 203.335 120.172 208.3 157.197 265.636M171.036 292.993C175.237 303.843 179.627 314.737 183.942 324.993M196.925 354.285C192.882 345.738 188.453 335.714 183.942 324.993M101.497 230.794C113.365 234.269 138.796 245.067 145.568 260.463M183.942 324.993C181.344 309.415 177.778 282.02 177.027 258.018M175.708 202.283C168.331 193.119 170.131 173.36 171.953 164.625C177.334 173.985 186.422 198.382 179.722 221.095C177.169 229.751 176.565 243.241 177.027 258.018M171.79 217.18C171.865 229.47 173.017 254.845 177.027 258.018" stroke="white"/>
<path d="M60.757 62.3116C57.9879 62.0425 55.3064 60.8112 52.5993 60.6719C52.4766 60.6656 51.5891 60.3664 51.7627 60.2997C52.244 60.1148 53.4084 61.1123 53.7749 61.3423C55.7863 62.6047 57.4383 64.3262 59.3092 65.7647C61.6361 67.5537 63.9063 69.1673 66.2693 70.9246C67.6414 71.9449 69.8494 73.5528 70.4487 75.1127" stroke="white" stroke-linecap="round"/>
<path d="M60.853 69.2516C62.4539 70.0089 64.1921 70.9211 65.3309 72.305" stroke="white" stroke-linecap="round"/>
<path d="M59.3019 70.9491C63.2445 73.4832 64.9673 78.4041 68.3231 81.5801C70.4272 83.5716 72.4609 85.5032 74.7018 87.3509C76.7571 89.0457 78.8233 90.7763 81.2957 91.8763C83.7622 92.9736 86.5682 94.5237 89.1452 95.1032" stroke="white" stroke-linecap="round"/>
<path d="M61.9285 88.3005C63.9094 91.5941 66.3715 96.3493 70.0572 97.9891C71.571 98.6626 72.929 98.57 74.4512 98.9123" stroke="white" stroke-linecap="round"/>
<path d="M62.3191 96.9634C62.815 98.9079 63.2212 101.235 64.8519 102.6C65.526 103.164 66.2144 103.748 66.6723 104.471" stroke="white" stroke-linecap="round"/>
<path d="M73.7355 104.696C74.6298 104.94 76.4666 105.767 77.424 105.482C77.9557 105.323 78.8234 105.191 79.1987 105.534" stroke="white" stroke-linecap="round"/>
<path d="M85.3035 101.353C87.5005 101.24 89.0288 101.023 91.0409 100.25C93.0475 99.4795 94.7231 100.272 95.8611 102.071" stroke="white" stroke-linecap="round"/>
<path d="M91.9671 116.786C92.6777 116.208 94.6278 113.76 94.6289 113.785C94.6691 114.676 94.7574 115.635 94.0537 116.27C93.4468 116.818 92.6875 118.581 91.4198 118.017C89.6557 117.232 93.0481 114.902 93.7153 114.646C95.3828 114.005 94.0722 116.458 93.4929 116.935" stroke="white" stroke-linecap="round"/>
<path d="M98.0433 123.999C99.1122 123.589 102.934 121.753 100 122.88C98.8017 123.341 97.8395 123.032 96.5916 123.088" stroke="white" stroke-linecap="round"/>
<path d="M83.1956 78.6612C83.0734 78.7326 79.8689 80.6737 81.4149 80.0798C81.8732 79.9037 84.8662 78.1253 84.1622 78.8407C83.3591 79.6568 81.8142 79.9264 80.7572 80.3324C80.3803 80.4772 81.6665 79.9635 81.9645 80.2358" stroke="white" stroke-linecap="round"/>
<path d="M87.7964 82.0347C90.0739 82.7501 91.6644 84.2861 93.8002 85.2364C94.2539 85.4382 94.82 86.0357 95.2956 86.0491C95.8635 86.065 96.6237 86.0458 97.1345 86.3218C98.0374 86.8097 99.28 86.2818 100.175 86.1124C100.785 85.9972 103.378 86.3305 101.798 86.9375" stroke="white" stroke-linecap="round"/>
<path d="M94.2667 88.362C94.9216 88.8855 96.5966 89.6474 96.8501 90.3072" stroke="white" stroke-linecap="round"/>
<path d="M89.0982 89.2461C91.6139 90.0023 89.483 90.4504 88.5811 89.8119" stroke="white" stroke-linecap="round"/>
<path d="M107.039 90.0651C107.835 90.5809 108.933 91.575 109.99 91.4813C110.35 91.4494 111.444 91.3103 111.222 91.3956" stroke="white" stroke-linecap="round"/>
<path d="M105.367 86.668C107.676 85.8418 110.196 85.8983 112.43 86.8922C113.014 87.152 117.992 88.4273 116.219 89.1086" stroke="white" stroke-linecap="round"/>
<path d="M111.195 98.0158C107.676 100.875 104.565 103.133 100.216 104.804C99.5347 105.066 98.8532 105.328 98.1718 105.589C98.1159 105.611 98.6401 105.396 98.783 105.375C99.3738 105.287 100.191 105.837 100.708 106.084C102.547 106.963 103.089 108.679 104.373 110.102C106.77 112.76 108.764 115.89 111.611 118.216C112.637 119.054 115.126 119.935 116.401 120.17C118.054 120.474 120.059 121.417 121.769 120.76" stroke="white" stroke-linecap="round"/>
<path d="M110.454 105.645C114.977 103.907 108.709 104.927 109.42 106.776" stroke="white" stroke-linecap="round"/>
<path d="M118.354 105.18C120.853 105.932 118.934 105.166 117.721 105.444C116.421 105.741 119.553 104.649 120.052 104.609C121.677 104.481 123.735 104.734 125.294 105.084" stroke="white" stroke-linecap="round"/>
<path d="M123.23 97.7987C124.603 98.819 125.553 99.2426 127.12 99.3233C129.175 99.429 126.301 100.256 125.408 100.654C125.041 100.818 123.021 101.57 123.068 102.104C123.089 102.346 123.788 102.659 123.545 102.655C122.944 102.647 124.57 99.539 124.872 99.2076C126.27 97.6784 128.535 99.2132 126.699 100.138C125.096 100.945 124.715 103.471 126.919 102.624" stroke="white" stroke-linecap="round"/>
<path d="M132.408 101.617C136.095 102.358 139.667 105.584 142.427 108.049C143.916 109.379 146.22 111.4 147.145 113.214C147.278 113.475 148.989 116.089 148.077 114.896C146.853 113.296 145.531 111.747 144.237 110.21C143.568 109.416 142.623 109.219 141.804 108.656C141.297 108.309 140.449 108.109 139.854 107.936C139.197 107.745 138.871 106.998 138.359 106.593C136.424 105.063 133.998 103.927 132.309 102.104C131.779 101.531 131.665 101.752 132.378 102.281C133.41 103.048 134.277 103.677 135.218 104.577C136.277 105.589 137.269 106.793 138.214 107.914C138.99 108.836 139.461 109.676 140.726 109.886C141.428 110.003 143.132 110.748 143.728 111.222C144.38 111.741 149.781 112.685 147.834 114.051" stroke="white" stroke-linecap="round"/>
<path d="M138.755 107.624C138.68 107.704 134.92 111.48 134.513 110.866C133.081 108.706 135.797 108.026 137.229 107.476" stroke="white" stroke-linecap="round"/>
<path d="M138.56 103.293C138.297 102.872 136.406 100.164 136.942 99.5075C137.939 98.2872 139.054 98.8455 139.558 100.155C139.883 101.003 140.286 101.937 139.938 102.845C139.46 104.093 139.165 102.002 138.905 101.324" stroke="white" stroke-linecap="round"/>
<path d="M138.222 86.1636C134.088 87.6396 138.1 85.843 139.628 85.2562C139.741 85.2127 141.204 84.8932 140.984 85.388C140.824 85.7478 139.683 85.9694 139.305 86.1148" stroke="white" stroke-linecap="round"/>
<path d="M140.265 85.7462C141.685 86.696 142.56 88.3488 143.949 89.1246C144.898 89.6542 145.121 90.8385 145.972 91.4689C147.256 92.4192 149.062 92.67 150.475 93.207C151.191 93.4791 153.815 93.4156 153.33 93.9464" stroke="white" stroke-linecap="round"/>
<path d="M137.954 77.8207C141.255 77.7506 146.656 79.4422 147.944 82.7958" stroke="white" stroke-linecap="round"/>
<path d="M128.134 79.0227C128.317 79.0794 131.985 80.8072 130.471 81.389C129.682 81.6921 128.035 81.6323 127.666 80.6715C127.268 79.6346 131.024 79.4965 129.635 81.0168" stroke="white" stroke-linecap="round"/>
<path d="M129.387 85.1512C127.834 85.7478 127.135 85.5463 128.692 85.7853C129.549 85.9168 129.019 86.8977 128.183 86.7969C126.623 86.6086 129.044 84.2574 129.633 85.7911" stroke="white" stroke-linecap="round"/>
<path d="M132.173 72.3304C136.099 70.8222 133.084 73.4561 131.822 73.1178C130.376 72.73 131.792 71.4313 132.348 70.8758C132.651 70.5735 135.337 69.8676 134.831 70.8603C134.469 71.5719 132.439 72.067 132.124 71.2476" stroke="white" stroke-linecap="round"/>
<path d="M117.403 81.6767C117.815 81.0678 118.147 80.2531 118.972 80.5029C119.092 80.5393 119.837 80.582 119.458 80.8667C118.758 81.3937 118.87 81.6725 119.175 82.4649C119.459 83.2044 120.255 82.9836 119.858 82.3859C119.338 81.6013 118.598 81.4947 117.936 80.9414C117.015 80.1698 117.224 80.978 117.385 81.6836C117.621 82.715 116.848 82.831 118.092 82.5138C118.245 82.4746 119.811 83.0348 118.449 82.0094C118.001 81.6723 117.654 81.085 117.157 81.0368" stroke="white" stroke-linecap="round"/>
<path d="M116.199 76.631C113.784 74.8948 118.186 74.3269 115.355 76.7715C114.664 77.3688 112.536 79.0888 113.182 78.4428C113.949 77.6764 114.667 77.079 115.554 76.4913C116.791 75.6706 115.685 78.2972 114.451 78.7714C112.547 79.503 113.857 77.0555 114.673 76.4827" stroke="white" stroke-linecap="round"/>
<path d="M113.153 127.007C113.226 127.03 115.611 127.862 115.392 128.269C115.22 128.586 114.19 126.84 114.113 126.639C113.326 124.591 114.618 126.998 114.924 127.796" stroke="white" stroke-linecap="round"/>
<path d="M120.56 130.037C121.312 131.326 121.976 134.048 123.061 135.115C124.155 136.191 123.897 138.301 124.959 139.364C125.853 140.259 126.975 141.547 128.251 141.934C129.133 142.201 131.907 142.591 130.817 143.356" stroke="white" stroke-linecap="round"/>
<path d="M124.992 122.459C126.198 128.259 128.981 133.28 133.327 137.25C135.048 138.823 137.968 139.754 140.143 140.283C141.189 140.537 142.964 140.668 144.095 140.641C145.113 140.617 146.204 140.749 144.723 141.318" stroke="white" stroke-linecap="round"/>
<path d="M122.093 111.088C125.038 113.408 127.973 117.254 130.014 120.448C131.229 122.351 132.996 123.803 134.37 125.629C135.557 127.206 136.861 128.681 138.005 130.312C139.817 132.894 141.694 135.346 142.826 138.293C143.196 139.256 145.303 142.956 144.82 143.484" stroke="white" stroke-linecap="round"/>
<path d="M129.474 115.963C130.98 116.899 131.442 117.08 133.017 117.009C133.559 116.985 134.507 116.957 135.016 117.221C135.31 117.372 134.651 117.459 134.365 117.226C133.869 116.821 132.487 116.876 131.842 116.604C130.947 116.227 130.148 116.072 129.277 116.406" stroke="white" stroke-linecap="round"/>
<path d="M111.059 131.117C114.052 135.989 116.039 141.677 117.563 147.142C118.092 149.041 118.093 151.285 118.182 153.269C118.259 154.97 117.305 156.544 117.374 158.067" stroke="white" stroke-linecap="round"/>
<path d="M120.353 154.352C120.779 151.875 122.338 145.041 119.742 143.204" stroke="white" stroke-linecap="round"/>
<path d="M112.708 131.585C111.033 135.204 109.928 139.118 107.72 142.498C105.973 145.174 105.176 148.01 103.029 150.359" stroke="white" stroke-linecap="round"/>
<path d="M107.294 131.829C107.179 134.283 106.989 137.044 106.356 139.37C105.695 141.797 105.748 144.545 104.588 146.822C103.398 149.157 102.09 150.867 100.553 152.942C100.166 153.466 101.077 151.764 101.19 150.882C101.418 149.099 100.888 147.549 101.628 145.756C102.179 144.421 102.58 142.597 103.35 141.423C104.033 140.38 107.504 133.081 106.26 132.961" stroke="white" stroke-linecap="round"/>
<path d="M89.9821 159.411C93.5907 156.333 97.4443 151.582 99.4016 147.183C100.009 145.817 100.822 144.667 101.186 143.172C101.508 141.849 102.383 140.101 102.339 138.792C102.246 136.017 102.988 133.172 103.253 130.444C103.376 129.173 103.777 124.693 102.498 124.124" stroke="white" stroke-linecap="round"/>
<path d="M71.0327 157.878C74.2247 156.651 77.3688 155.827 79.7834 153.414C82.0462 151.153 84.1239 148.877 86.1205 146.491C88.0834 144.146 88.2759 140.912 89.8 138.386C90.4465 137.315 90.9845 134.933 91.1705 133.617C91.35 132.346 91.7921 131.27 91.9129 130.026" stroke="white" stroke-linecap="round"/>
<path d="M84.8969 135.66C85.67 135.15 87.6208 134.147 87.162 132.953C86.968 132.448 86.2925 133.034 85.8851 132.709C85.4825 132.389 85.4259 132.015 84.9475 131.968" stroke="white" stroke-linecap="round"/>
<path d="M66.3831 153.421C66.6266 152.21 66.9408 150.325 67.9966 149.497C68.4641 149.13 69.3369 148.349 69.5477 147.799C70.027 146.548 71.7961 145.925 71.727 144.391" stroke="white" stroke-linecap="round"/>
<path d="M68.4314 138.68C68.9395 137.017 69.1668 137.234 70.3327 136.461C70.8195 136.138 71.0405 135.604 71.0907 135.088" stroke="white" stroke-linecap="round"/>
<path d="M73.0828 138.362C74.5962 138.358 76.6184 138.473 78.0543 137.921" stroke="white" stroke-linecap="round"/>
<path d="M77.5879 134.796C78.3297 133.195 79.0093 132.76 78.4014 131.178" stroke="white" stroke-linecap="round"/>
<path d="M56.3984 134.123C59.2135 133.193 62.1677 134.477 65.0096 133.385C66.9571 132.637 69.4643 131.827 70.9228 130.298C72.3915 128.757 73.5381 127.121 74.9361 125.451C75.9616 124.226 75.4213 122.219 75.5503 120.89" stroke="white" stroke-linecap="round"/>
<path d="M76.7815 119.315C78.5976 120.406 79.4703 119.751 81.273 119.059C82.3127 118.659 84.6652 116.287 83.6256 116.686C82.2801 117.203 81.3112 118.31 79.9783 118.822C78.6747 119.323 77.3711 119.823 76.0674 120.324" stroke="white" stroke-linecap="round"/>
<path d="M43.8234 131.977C48.1615 131.013 52.632 131.164 56.8433 129.546C58.1907 129.028 59.8315 128.037 61.2792 127.923C61.7065 127.89 64.0333 127.518 62.5288 128.096" stroke="white" stroke-linecap="round"/>
<path d="M44.6351 133.134C47.099 132.243 48.3169 132.677 50.6346 133.033C51.5709 133.176 51.9579 134.223 53.0749 133.544C54.2738 132.814 55.0153 131.43 56.252 130.875C56.7336 130.658 58.1835 129.368 57.4832 129.3" stroke="white" stroke-linecap="round"/>
<path d="M53.9435 118.174C54.545 118.835 55.4561 120.802 56.5703 120.817C56.5868 120.817 56.0031 121.079 55.7854 121.057C55.1785 120.998 54.8801 120.612 54.6811 120.094" stroke="white" stroke-linecap="round"/>
<path d="M38.3711 102.492C43.3463 105.382 47.8343 108.323 53.0057 110.742C54.4343 111.41 55.7783 111.957 57.2503 112.498C58.5172 112.963 59.7183 113.893 61.0083 114.155C62.0309 114.362 66.224 114.774 66.5205 115.546" stroke="white" stroke-linecap="round"/>
<path d="M70.6062 114.711C70.4508 115.511 70.2511 116.105 69.9409 116.802" stroke="white" stroke-linecap="round"/>
<path d="M62.0155 119.113C62.6258 118.878 63.5464 118.228 64.0583 118.695" stroke="white" stroke-linecap="round"/>
<path d="M50.525 112.144C50.8563 112.215 54.7509 112.782 54.5854 113.154" stroke="white" stroke-linecap="round"/>
<path d="M41.8222 87.5793C40.6633 88.0246 38.7407 88.4872 37.5618 87.7473C37.041 87.4204 35.3235 86.9506 34.7852 86.9983C34.3915 87.0333 36.4001 87.5309 36.9805 88.3582C37.751 89.4565 39.1772 90.4032 40.2731 91.1938C42.7587 92.9868 44.6296 95.5362 46.9374 97.5485C48.0776 98.5427 49.1101 99.649 50.1725 100.712C50.9117 101.452 51.9728 101.575 52.3744 102.62" stroke="white" stroke-linecap="round"/>
<path d="M51.3673 97.1318C51.1289 96.5113 50.7257 94.4512 49.9409 94.3749" stroke="white" stroke-linecap="round"/>
<path d="M52.4285 89.3798C48.8278 87.0967 46.6553 83.5193 43.8209 80.5687C43.5213 80.2568 42.2793 78.4257 42.7732 78.054C44.1406 77.025 46.0644 78.766 47.5035 78.9499C47.9107 79.002 49.7641 79.0036 49.9962 78.4819C50.2459 77.9206 46.0333 74.6452 45.6488 73.6443C44.6951 71.1618 43.4511 68.8796 42.4946 66.3899" stroke="white" stroke-linecap="round"/>
<path d="M54.8419 85.1478C55.9842 85.6726 57.8106 86.1843 58.3111 87.4871" stroke="white" stroke-linecap="round"/>
<path d="M72.4211 65.909C70.6632 63.506 66.8297 59.168 67.1556 55.814C67.2949 54.3801 67.5378 53.6619 69.1714 54.5296C70.4621 55.2151 72.2635 55.7976 73.3106 56.7543" stroke="white" stroke-linecap="round"/>
<path d="M74.4132 69.183C74.5741 69.4271 76.2846 72.1156 76.4308 70.6112" stroke="white" stroke-linecap="round"/>
<path d="M66.627 28.8436C68.7236 32.125 70.6285 35.2886 73.4407 37.9766C76.9448 41.326 80.0547 45.6344 81.8036 50.1865C84.1305 56.2433 88.9742 62.932 87.4566 69.6801" stroke="white" stroke-linecap="round"/>
<path d="M76.4941 33.4987C79.3478 33.6588 80.1906 36.4295 81.097 38.7889C82.1311 41.4806 83.0805 44.08 83.8052 46.8471C84.423 49.2063 84.1813 51.8575 84.4778 54.2797C84.5975 55.2574 84.9844 58.9399 84.2858 59.5149" stroke="white" stroke-linecap="round"/>
<path d="M75.3352 39.0847C74.1122 42.0744 74.078 46.1645 74.4235 49.3496C74.6647 51.5745 75.4392 56.4043 77.7784 57.445C78.9831 57.9809 79.8319 59.3903 81.16 59.9811C82.0574 60.3804 83.0654 60.8476 83.8789 61.3234C85.4771 62.2582 86.4636 63.2721 87.1384 65.0285" stroke="white" stroke-linecap="round"/>
<path d="M94.4582 37.2462C93.1806 40.2374 92.59 43.6142 93.3827 46.8193C93.6381 47.8521 94.1516 48.874 94.5327 49.8659C94.7238 50.3633 96.0127 51.3374 95.8556 51.3978" stroke="white" stroke-linecap="round"/>
<path d="M99.0844 38.7737C100.28 43.8225 99.3242 49.3944 97.2821 54.1545C96.4665 56.0554 95.8961 57.9288 95.255 59.8702C94.9824 60.6957 94.2591 61.4894 94.1781 62.324" stroke="white" stroke-linecap="round"/>
<path d="M108.606 45.3977C107.412 47.0688 105.966 48.7978 105.762 50.8971C105.511 53.4797 103.728 55.3795 103.187 57.8431C102.642 60.3274 101.564 62.8301 100.822 65.28C100.29 67.0353 100.054 69.2991 99.9705 71.1356C99.9004 72.6707 100.991 78.5779 101.866 74.2632C102.038 73.4152 102.555 72.3254 103.403 71.9996C103.975 71.7801 105.683 71.1237 105.643 71.1391" stroke="white" stroke-linecap="round"/>
<path d="M101.239 67.3228C102.372 67.1236 104.183 67.1441 104.316 65.7735" stroke="white" stroke-linecap="round"/>
<path d="M104.812 57.5045C106.611 55.795 108.178 54.1798 110.374 55.7347" stroke="white" stroke-linecap="round"/>
<path d="M115.42 54.5307C117.225 57.4708 117.609 59.771 116.866 63.0738C116.688 63.8639 116.19 64.5497 115.979 65.3321C115.763 66.133 115.955 66.9652 115.642 67.7465C115.351 68.4712 114.67 71.0606 114.578 69.0122C114.467 66.5659 115.529 64.4265 117.663 63.2368C118.541 62.7472 119.596 62.4736 120.536 62.1126C121.625 61.6942 121.193 62.8666 121.471 63.5896" stroke="white" stroke-linecap="round"/>
<path d="M118.809 71.9562C122.333 66.9787 126.338 64.6576 131.876 62.5299C134.879 61.3762 137.675 61.7756 140.716 62.0711" stroke="white" stroke-linecap="round"/>
</svg>
