<svg width="99" height="141" viewBox="0 0 99 141" fill="none" xmlns="http://www.w3.org/2000/svg">
<path d="M83.7092 59.6939C80.7745 62.4034 78.4393 64.4492 76.6849 67.9315C75.702 69.8825 74.6287 71.7782 73.6293 73.7239C71.4744 77.9193 70.1914 82.81 69.8373 87.5059C69.6796 89.5983 68.6325 91.7149 68.7005 93.7441C68.7776 96.046 67.2082 97.9289 66.9442 100.142C66.5356 103.567 68.8833 109.201 71.4106 111.364C73.9218 113.514 76.911 115.56 79.0789 118.053C81.2438 120.542 81.9499 122.096 82.7586 125.235C83.6295 128.615 85.106 125.132 86.6977 123.661C87.9153 122.536 89.3755 122.449 90.8322 121.859C92.8176 121.055 94.2845 119.028 95.6224 117.474C97.7603 114.991 101.532 112.745 101.344 109.013C101.194 106.026 98.66 101.672 96.4912 99.6436C95.6428 98.8501 94.1552 98.2537 93.5028 97.3139C92.4812 95.8423 92.1413 94.199 91.7019 92.4932C90.9123 89.4285 93.0792 87.1885 92.2617 84.0154C91.875 82.5144 91.4883 81.0134 91.1016 79.5124C90.8303 78.4591 91.5233 77.599 91.2964 76.7182C90.6584 74.2418 88.8141 72.4083 88.1807 69.9497C87.4453 67.0951 85.1968 65.7283 83.3217 63.9097C81.8778 62.5093 79.5197 61.6327 80.3757 59.1807" stroke="white" stroke-width="1.5" stroke-linecap="round"/>
<path d="M83.3909 60.2334C82.5529 63.5308 84.8124 66.2666 87.3161 68.3687C88.9243 69.7189 89.7499 71.4273 91.867 72.2268C93.5961 72.8797 96.1157 74.1228 96.6147 76.0597C97.2402 78.4875 96.8959 80.9968 97.6291 83.5475C98.2937 85.8593 100.784 88.1273 102.104 90.1691C103.282 91.9911 106.494 93.5537 108.553 93.9957C111.151 94.5536 113.996 94.5607 116.643 94.63C118.438 94.6769 113.031 94.3152 111.332 93.7371C107.061 92.2844 103.089 86.5105 103.214 81.753C103.336 77.0898 100.9 73.2549 97.1087 70.8764C95.6103 69.9365 94.6574 68.4621 94.2331 66.8153C93.7794 65.0541 93.2958 63.4473 91.0638 63.3889C87.7558 63.3023 81.0217 63.463 79.947 59.2914" stroke="white" stroke-width="1.5" stroke-linecap="round"/>
<path d="M84.5539 57.647C80.8687 60.3014 83.0201 59.675 85.5128 58.213C87.0243 57.3265 88.9292 57.0504 90.3121 55.9349C92.7748 53.9484 93.8532 49.4349 94.9162 46.3898C96.4987 41.8568 100.911 38.6317 104.555 35.7764C106.268 34.4345 107.932 33.0943 109.646 31.7716C111.59 30.2726 105.241 34.0245 102.864 34.6368C100.262 35.3072 93.5713 31.8006 92.1108 36.2892C91.5466 38.023 92.6683 40.0946 91.201 41.732C90.2786 42.7614 88.6225 42.8791 87.3387 43.2098C85.7698 43.614 84.5394 43.5898 84.2393 45.3803C83.9125 47.3294 83.9871 49.3324 84.2699 51.3176C84.8432 55.343 82.5166 58.6292 78.6603 59.6227" stroke="white" stroke-width="1.5" stroke-linecap="round"/>
<path d="M80.0835 63.372C80.6475 65.561 81.563 67.4977 82.9783 69.2828C84.4832 71.1809 84.3256 73.3385 84.1692 75.5819C84.0321 77.5472 84.7564 79.2865 83.6359 81.1055C82.621 82.7529 81.3736 84.6811 79.9536 86.0431C77.0829 88.7964 76.1273 91.6293 76.5252 95.6155C76.8798 99.1676 76.9215 102.619 76.9474 106.229C77.0039 114.111 66.583 118.197 59.876 118.071C56.0447 117.999 53.1221 118.337 49.3226 119.316C46.2647 120.104 43.1067 120.29 40.7654 117.659C37.9206 114.462 37.7573 109.655 38.6147 105.662C39.0475 103.646 40.4419 102.304 41.1674 100.482C41.8481 98.7722 41.3573 97.6685 40.8957 95.8768C39.2463 89.4743 35.2951 83.1874 38.9877 76.932C40.795 73.8702 43.4217 71.7959 45.825 69.2507C49.1983 65.6782 54.6586 64.8915 59.2358 63.7123C63.6687 62.5703 68.956 61.0865 73.5782 61.5926C77.6054 62.0335 81.3007 63.1581 83.9171 58.7257" stroke="white" stroke-width="1.5" stroke-linecap="round"/>
<path d="M80.0705 61.546C76.8752 68.8766 65.7735 73.8484 57.9808 73.4362C47.7284 72.8939 37.6636 75.2151 27.7928 77.7581C24.8835 78.5076 20.1818 82.6785 17.0201 81.7022C13.5528 80.6315 13.3105 77.5597 12.5044 74.4304C11.6995 71.3064 15.2632 69.8741 17.0978 68.3943C18.9487 66.9013 17.0828 65.4655 15.8424 63.9158C14.5042 62.244 14.4692 58.0805 14.9157 56.1767C15.7726 52.5228 18.7445 50.8203 22.1036 49.9549C25.0201 49.2036 26.7595 46.4688 29.6995 45.7114C32.9727 44.8681 35.8174 45.4057 39.0664 46.2708C43.6286 47.4857 47.0761 49.901 50.7902 52.6257C54.1789 55.1116 58.0055 58.3101 61.8226 59.9462C63.3849 60.6158 64.9242 61.466 66.5042 62.043C68.0987 62.6253 69.8307 62.047 71.2723 62.898" stroke="white" stroke-width="1.5" stroke-linecap="round"/>
<path d="M37.1959 44.2374C36.4082 41.1801 35.9958 37.804 35.2431 34.8826C34.5617 32.2375 32.7188 32.5342 30.5843 31.7891C29.8554 31.5346 32.1312 31.49 32.7932 31.093C34.3158 30.1799 33.6903 29.409 34.3945 28.0381C34.7721 27.3029 36.4268 23.7351 37.8123 25.3283" stroke="white" stroke-width="1.5" stroke-linecap="round"/>
<path d="M80.9151 59.4991C79.0877 63.4818 76.3649 61.5404 73.602 59.9095C72.4299 59.2176 70.4682 58.9888 69.6374 57.9329C68.9954 57.1169 68.6356 56.2895 68.0677 55.3901C65.032 50.5816 62.9325 44.7797 59.4145 40.3426C55.8734 35.8763 50.8034 32.7175 45.4889 30.6677C43.8852 30.0492 42.3407 29.0631 40.8405 28.2067C39.4748 27.4269 37.9638 27.2022 36.6269 26.4466C34.4436 25.2128 33.5186 24.1132 32.0853 22.2304C30.8526 20.6112 31.8901 18.677 33.6793 18.1611C36.9725 17.2116 39.7897 17.8511 42.9346 18.978C46.5954 20.2897 50.4597 20.5444 54.1488 21.6785C56.3109 22.3431 58.4468 23.9803 60.486 24.9748C63.0668 26.2335 65.902 27.1102 68.2353 28.8219C69.9738 30.0973 71.698 31.4428 73.5256 32.5912C75.0245 33.5331 75.2657 34.8994 76.4506 36.0553C78.4956 38.0502 79.273 40.6988 79.9642 43.3819C80.654 46.0596 81.1332 48.8795 82.3724 51.3491C84.6315 55.8511 81.5387 59.4859 77.8157 61.6695" stroke="white" stroke-width="1.5" stroke-linecap="round"/>
<path d="M70.0245 63.5749C72.3123 63.4388 74.1873 63.5076 76.3937 62.9391C77.6214 62.6229 78.2851 61.9493 79.5712 61.618" stroke="white" stroke-width="1.5" stroke-linecap="round"/>
<path d="M65.7687 62.6612C69.2999 64.0793 72.398 64.2582 76.0439 63.5318C77.1842 63.3046 80.8771 62.7926 81.1063 61.7251" stroke="white" stroke-width="1.5" stroke-linecap="round"/>
<path d="M79.2213 62.2107C77.8561 59.1313 79.2231 56.3658 78.4497 53.3637C77.8691 51.1103 77.7089 48.5376 77.093 46.1472C75.5788 40.2695 70.7098 34.871 66.367 30.847C64.1598 28.8018 61.0212 27.1341 58.1632 26.2041C54.7089 25.0801 52.658 25.0429 49.0671 25.1414C46.447 25.2133 43.459 24.1852 40.9468 24.8324C39.719 25.1487 35.2027 25.6667 34.9418 26.882" stroke="white" stroke-width="1.5" stroke-linecap="round"/>
</svg>
