<svg width="75" height="71" viewBox="0 0 75 71" fill="none" xmlns="http://www.w3.org/2000/svg">
<path d="M29.9581 38.7284C21.6876 42.7015 6.26572 52.1071 10.7415 57.945C15.2173 63.783 28.3365 48.7016 34.3366 40.4312M35.7961 41.1609C30.1203 49.1881 20.3255 66.0695 26.5527 69.3777C32.7798 72.6859 37.4872 52.1632 38.9467 41.6224M38.9467 41.6224C40.1629 41.6224 40.3544 41.7076 41.1476 41.6348M38.9467 41.6224C37.7304 41.3792 38.7034 41.6224 37.4988 41.3212M39.6881 41.8907C42.2827 52.4314 49.3693 72.394 56.9587 67.9182C64.548 63.4424 51.364 47.7286 43.8233 40.4312M44.7963 39.7014C52.0126 45.2961 68.5349 56.093 70.8238 50.8908C73.4995 44.8096 56.2289 38.9717 46.7423 35.8095C56.8776 34.9986 76.4672 31.7229 73.7428 25.1066C71.0184 18.4902 54.283 27.0525 46.2558 32.1608C54.8505 25.9985 70.5806 12.409 64.7426 7.34946C58.9047 2.28991 48.3639 19.674 43.8233 28.9985M32.1474 32.1608C23.0661 25.7552 6.65499 11.6793 13.6605 6.61971C20.6661 1.56016 30.3636 20.0794 34.3366 29.9715M35.0664 28.9985C30.8501 19.9984 24.3634 1.80341 32.1474 1.02502C41.8773 0.0520257 37.7421 27.7823 38.2286 28.0255M43.0935 28.0255C47.7153 20.8903 55.3046 6.03592 48.6882 3.70074C42.0719 1.36557 39.2827 18.62 38.7151 27.539C38.005 27.6811 37.1498 27.8645 36.2826 28.2045M39.6881 27.539C39.9205 27.5516 40.165 27.5768 40.4178 27.6157M46.2558 36.5392C46.8229 33.9872 46.4106 32.084 45.5184 30.7013M46.2558 36.5392L55.9857 41.1609M46.2558 36.5392C46.1379 37.0698 45.9771 37.5558 45.7823 37.9987M33.6069 13.4307C34.1744 18.4637 35.5042 28.4646 36.2826 28.2045M36.2826 28.2045C35.1173 28.6612 33.9303 29.4005 33.0448 30.7013M43.0935 14.6469C42.607 18.8332 41.3908 27.2878 40.4178 27.6157M40.4178 27.6157C40.9271 27.6941 41.4698 27.8279 42.0134 28.0255M44.7963 17.0794L42.0134 28.0255M42.0134 28.0255C43.003 28.3854 43.9958 28.9568 44.7963 29.79M50.391 22.4308L44.7963 29.79M44.7963 29.79C45.0602 30.0647 45.3033 30.3678 45.5184 30.7013M51.8505 25.1066L45.5184 30.7013M60.1209 29.79L46.7423 33.1338M55.9857 44.0799C52.4925 42.2961 45.5614 38.5825 45.7823 37.9987M45.7823 37.9987C45.0882 39.5773 43.9628 40.6088 42.8102 41.1609M47.472 49.6746L42.8102 41.1609M42.8102 41.1609C42.2467 41.4308 41.6768 41.5861 41.1476 41.6348M45.7823 52.3503C43.9488 48.9364 40.4549 42.0138 41.1476 41.6348M34.3366 54.0531C35.3907 50.3491 37.4988 42.617 37.4988 41.3212M37.4988 41.3212C37.2441 41.2838 36.9711 41.231 36.6874 41.1609M30.4446 55.0261C32.2551 50.6476 36.0382 41.7447 36.6874 41.1609M36.6874 41.1609C35.3123 40.8214 33.6845 40.0775 32.6569 38.7284M26.0662 45.0529L32.6569 38.7284M32.6569 38.7284C32.0735 37.9627 31.6836 37.0019 31.6431 35.8095M21.931 35.8095H31.6431M31.6431 35.8095C31.6352 35.5753 31.6407 35.3321 31.6609 35.0797C31.681 34.8278 31.7075 34.5847 31.7397 34.35M19.2552 33.1338C23.2809 32.8094 31.4136 32.5986 31.7397 34.35M31.7397 34.35C31.9536 32.7955 32.4255 31.611 33.0448 30.7013M22.904 19.2686C26.537 22.593 33.6514 29.5337 33.0448 30.7013" stroke="white"/>
<path d="M32.6339 38.4363C21.8499 39.4093 0.427898 39.6039 1.01169 32.5983C1.59549 25.5928 20.8769 29.6794 30.4446 32.5983" stroke="white"/>
<path d="M42.9898 37.7675C42.8605 37.7675 42.6246 37.7051 42.5569 37.8479C42.5172 37.9317 42.474 38.0731 42.5257 38.1603C42.6721 38.4074 43.0115 38.3197 43.2085 38.2093C43.4037 38.1001 43.6717 37.8315 43.4116 37.6292C43.1765 37.4463 42.7953 37.7788 42.5882 37.8479" stroke="white" stroke-linecap="round"/>
<path d="M39.0938 38.2897C38.737 38.4132 38.445 38.5943 38.2347 38.1737C38.1133 37.9309 38.2645 37.7433 38.5002 37.6962C38.8279 37.6306 39.0403 37.6979 39.1518 38.0643C39.2021 38.2295 39.2043 38.37 39.0134 38.37" stroke="white" stroke-linecap="round"/>
<path d="M40.7406 35.7593C40.1451 36.2025 39.7815 35.2791 40.4572 35.2394C40.7726 35.2208 40.8623 35.2198 40.9213 35.5384C40.955 35.7204 40.993 35.9697 40.7808 36.0405" stroke="white" stroke-linecap="round"/>
<path d="M36.3625 35.4782C36.226 35.4782 35.8874 35.5434 35.8404 35.3554C35.8143 35.2512 35.7718 35.1721 35.7288 35.0765C35.5982 34.7863 35.86 34.641 36.1014 34.599C36.3807 34.5504 36.4789 34.7245 36.5433 34.956C36.5946 35.141 36.518 35.2475 36.4428 35.3978" stroke="white" stroke-linecap="round"/>
<path d="M37.7684 32.3452C37.7222 32.2239 37.5866 31.9107 37.6524 31.7628C37.6809 31.6986 38.1989 31.5914 38.2504 31.6401C38.3649 31.7483 38.4758 32.0351 38.3486 32.1623C38.2698 32.2411 37.9624 32.1846 37.8487 32.1846" stroke="white" stroke-linecap="round"/>
<path d="M42.6685 31.3411C42.387 31.3935 42.1102 31.4368 41.9768 31.1403C41.887 30.9407 42.1214 30.9222 42.2869 30.9417C42.5483 30.9724 42.9612 31.4578 42.5882 31.5821" stroke="white" stroke-linecap="round"/>
<path d="M37.8488 27.6859C38.5925 27.6216 39.3143 27.6056 40.0579 27.6056" stroke="white" stroke-linecap="round"/>
</svg>
