<svg width="125" height="164" viewBox="0 0 125 164" fill="none" xmlns="http://www.w3.org/2000/svg">
<path d="M115.786 110.914C113.371 112.605 111.784 115.01 109.899 117.263C109.256 118.549 109.384 117.512 109.41 116.557C109.474 114.269 110.026 111.922 110.387 109.666C111.347 103.668 113.401 96.0378 116.735 90.8927C119.618 86.4448 123.145 80.5932 127.479 77.4635C130.547 75.2473 134.871 70.871 138.955 70.871C147.595 70.871 136.287 90.6278 134.532 93.5514C133.075 95.9806 130.578 98.2852 128.483 100.171C126.309 102.127 124.679 104.676 122.487 106.519C120.312 108.348 118.041 109.335 115.786 110.914Z" stroke="white" stroke-linecap="round"/>
<path d="M137.245 75.7542C125.195 85.0503 105.108 127.379 112.069 113.844C114.191 109.719 118.328 106.493 121.022 102.721C123.552 99.1794 126.041 95.7078 128.455 92.0863C130.619 88.8404 132.347 86.0712 133.936 82.4824C134.995 80.0879 137.734 77.8999 137.734 75.2659" stroke="white" stroke-linecap="round"/>
<path d="M136.269 74.2892C132.065 78.4935 126.882 82.4227 123.681 87.4742C121.306 91.2209 119.548 95.4087 117.115 99.0857C114.773 102.627 114.127 106.458 112.829 110.426C112.119 112.596 111.854 115.306 110.875 117.263" stroke="white" stroke-linecap="round"/>
<path d="M96.2253 105.054C96.2253 99.405 94.8567 93.9176 95.2757 88.2609C95.5769 84.1952 96.26 79.5302 96.9578 75.4829C98.555 66.2191 98.9873 56.7469 100.512 47.4308C101.197 43.241 102.655 36.7523 98.9111 33.7574C98.4981 33.427 97.6247 39.9997 97.4461 40.8925C96.0647 47.7998 94.994 54.5492 94.7332 61.5925C94.3407 72.1889 93.2486 82.3147 94.8688 92.8459C95.5547 97.304 95.0388 92.7426 94.6518 91.001C93.4475 85.5819 91.4209 80.9512 91.3419 75.2658C91.2205 66.5193 90.4765 58.2573 92.0744 49.6283C92.6303 46.6268 94.1714 43.9999 94.7603 41.0553C95.1465 39.1241 96.0228 36.1991 98.4499 36.1991C101.338 36.1991 102.003 39.2353 103.17 41.5708C105.261 45.7508 107.233 49.5074 107.837 54.2674C108.747 61.4448 107.526 70.7325 104.283 77.2192C101.586 82.6122 98.9679 87.8071 96.7136 93.4427C96.3121 94.4465 95.737 97.6166 95.737 96.5355C95.737 94.993 96.1189 93.3949 96.3338 91.8692C97.1367 86.1685 99.4024 80.8129 100.512 75.2658C101.395 70.8503 101.597 65.846 101.597 61.3483C101.597 57.1579 100.62 53.1293 100.62 48.9229C100.62 46.0844 99.587 43.7589 98.9111 41.0553C98.8112 40.6555 97.1297 35.593 96.7136 37.2571C95.5766 41.8053 94.6342 46.6822 94.1634 51.3374C93.5749 57.1572 94.1176 63.0096 93.4038 68.809C92.7995 73.7192 93.2207 79.1242 94.2719 83.9473C94.8651 86.6688 95.3611 89.7649 96.2253 92.3575" stroke="white" stroke-linecap="round"/>
<path d="M68.8787 65.9877C66.7775 60.9199 65.082 54.8221 67.1967 49.3843C67.9835 47.3611 69.6835 45.7251 70.5337 43.7413C71.7591 40.882 71.483 36.7935 71.2933 33.7576C70.8629 26.8718 69.9348 20.5928 68.4989 13.8444C67.5865 9.55614 66.7908 4.62883 63.5071 1.52751C60.9354 -0.901274 58.9221 5.76559 58.1354 7.17049C54.69 13.323 54.8104 20.8816 53.9845 27.6534C53.0915 34.9761 55.5884 41.2018 57.6471 48.0278C58.7062 51.5397 59.8063 54.2956 62.4219 56.8178C63.5986 57.9525 66.3268 59.3403 66.4371 61.1043C66.5471 62.8646 65.6572 57.6641 65.2434 55.9497C64.2175 51.6998 63.764 46.8866 63.5342 42.5205C63.102 34.3093 62.5885 25.875 63.0459 17.6425C63.1484 15.7974 64.834 2.66841 62.0421 2.50418C60.1292 2.39166 59.5131 5.65689 59.1121 7.00771C57.771 11.525 56.2307 15.9128 56.182 20.6811C56.0835 30.3397 57.3219 39.913 61.5537 48.6789C62.747 51.1507 63.2267 54.4756 65.2162 56.4651C66.5747 57.8236 63.5228 51.0293 63.2629 50.0897C61.9825 45.4607 60.5605 40.9705 59.9802 36.1993C59.4298 31.6733 59.5379 27.0849 59.6004 22.5259C59.6898 16.0011 61.0654 9.49929 61.0654 2.99252" stroke="white" stroke-linecap="round"/>
<path d="M48.3686 47.9192C49.1658 43.1359 46.0085 38.4783 43.2411 34.7884C38.9721 29.0964 34.4219 24.0128 29.0794 19.3245C23.8248 14.7133 18.1651 12.3832 11.7435 9.82912C8.90085 8.69851 6.04401 7.38745 2.95351 7.38745" stroke="white" stroke-linecap="round"/>
<path d="M1.00002 7.38745C3.48358 10.7247 3.9739 15.0506 6.15466 18.6191C8.965 23.2179 13.8337 27.0578 17.6034 30.8275C21.4892 34.7133 26.7173 37.9855 31.2768 41.0825C36.4739 44.6127 42.0063 46.4496 47.8801 48.4075" stroke="white" stroke-linecap="round"/>
<path d="M48.8568 48.896C47.2923 40.9171 38.9976 35.3736 33.7184 29.7425C30.3658 26.1663 26.3578 23.426 22.4325 20.5184C18.5803 17.6649 15.2885 14.6262 10.7667 12.8678C8.7265 12.0744 6.8602 11.0502 4.90671 10.0734C3.60429 9.42222 2.92773 8.7613 3.93005 10.2091C7.10272 14.7918 11.6231 18.939 15.5416 22.9058C18.5559 25.9574 21.6111 29.0381 24.7114 31.9942C27.8286 34.9664 31.91 36.6903 35.1834 39.5091C37.5694 41.5637 39.9664 43.6764 42.9968 44.718C43.3213 44.8296 47.7311 45.8656 46.9035 44.9893C44.7027 42.6591 41.4553 41.0084 39.0359 38.8309C34.5998 34.8384 30.0589 30.7517 25.3082 27.138C20.7029 23.6348 15.8526 20.568 11.2822 16.9644C8.4327 14.7177 5.28484 12.7645 1.97671 11.2943" stroke="white" stroke-linecap="round"/>
<path d="M70.4767 83.0817C64.5224 75.166 60.2827 68.7385 51.8379 63.9883C47.4439 61.5166 42.79 60.1416 37.9472 58.7856C33.9352 57.6622 29.9306 57.1404 25.9254 55.8054C22.8371 54.7759 18.1626 53.3944 17.2879 49.8955" stroke="white" stroke-linecap="round"/>
<path d="M18.197 50.8049C18.8137 54.7365 19.3814 59.4372 21.2025 63.0793C23.7117 68.0977 28.8249 71.5754 33.6536 73.9898C36.8897 75.6078 39.8026 78.0699 43.2003 79.344C46.5941 80.6167 50.8613 81.6213 54.4644 82.0716C59.4858 82.6993 66.2447 82.0323 70.022 85.8095" stroke="white" stroke-linecap="round"/>
<path d="M73.2043 83.5364C66.8486 73.2694 54.5487 68.0742 43.655 64.443C38.3075 62.6605 32.8136 61.2878 27.5166 59.215C25.8812 58.5751 24.0943 57.8638 22.8442 56.6137C21.8342 55.6037 24.2416 59.036 24.5869 59.4676C26.4544 61.802 28.0268 64.4796 30.0169 66.6908C32.7092 69.6822 35.8148 70.701 39.4626 72.2723C43.6507 74.0764 47.5997 76.3668 51.8379 78.0811C56.2599 79.8698 60.2665 80.6753 64.9709 81.2634C66.0427 81.3973 67.1452 81.6224 68.1784 81.9453C68.495 82.0442 69.2108 82.6573 69.0876 82.3494C68.7601 81.5305 67.4667 81.0007 66.7894 80.5562C64.0191 78.7382 61.1296 77.0833 58.3034 75.3535C51.9471 71.463 45.1153 69.6657 38.2503 66.9433C34.1074 65.3005 30.0122 63.4668 25.9254 61.7154" stroke="white" stroke-linecap="round"/>
<path d="M68.6582 101.721C65.7469 99.641 62.1205 98.4093 58.8589 96.9472C55.7249 95.5423 53.0495 93.6749 49.5648 93.1841C45.1438 92.5614 40.6309 91.2647 36.154 91.2647C35.0122 91.2647 34.431 91.1329 35.472 92.1739C36.7248 93.4266 38.015 94.6403 39.1089 96.038C42.1467 99.9197 47.7385 101.019 52.3934 101.62C55.4744 102.017 58.7357 102.432 61.8391 102.605C62.4074 102.636 68.3652 102.642 68.1026 102.175C67.3692 100.871 61.4329 100.868 60.046 100.357C56.1595 98.9249 52.2026 97.5152 48.4283 95.8107C45.887 94.663 43.1836 93.8132 40.6747 92.6285C39.5092 92.0781 38.7534 92.0677 39.7908 93.3356C41.4513 95.3652 43.4837 96.6404 45.928 97.6291C49.4226 99.0427 53.6592 98.9038 56.8385 100.811" stroke="white" stroke-linecap="round"/>
<path d="M77.2958 108.54C70.2453 103.839 59.156 107.381 52.2925 110.813C51.4731 111.222 48.7265 112.177 50.7266 112.177C54.0149 112.177 56.9145 114.571 60.0208 115.359C63.9303 116.35 67.8988 115.301 70.9313 112.606C71.9642 111.688 73.0022 110.83 74.1135 110.005C74.3597 109.822 76.2682 108.992 75.3763 109.803C74.4104 110.681 71.6169 110.826 70.4262 111.04C67.4283 111.58 64.464 112.177 61.4099 112.177C58.25 112.177 56.5837 111.649 53.6563 110.813" stroke="white" stroke-linecap="round"/>
<path d="M81.8417 119.45C88.1718 114.982 90.5335 130.125 80.9578 125.537C79.2489 124.718 75.4403 122.344 75.9824 119.905C76.4075 117.992 79.6956 117.303 81.1851 118.137C81.9279 118.553 86.0841 120.762 84.7209 122.077C83.5395 123.216 78.4677 123.913 77.4977 122.178C74.9744 117.662 87.138 120.212 81.3871 123.087" stroke="white" stroke-linecap="round"/>
<path d="M84.5695 61.2608C82.9415 59.1149 79.9204 55.5723 76.6644 56.5633C74.8612 57.1121 74.4479 60.7469 74.6692 62.2711C75.4547 67.6823 82.0328 65.8781 80.8316 60.8062C79.8175 56.5245 72.5014 61.3814 78.6596 64.3421C80.2099 65.0874 82.0715 63.5702 80.4022 62.4226C78.6167 61.195 77.5648 61.651 77.2958 63.5339" stroke="white" stroke-linecap="round"/>
<path d="M47.0854 47.5492C72.7083 65.9881 72.1009 74.7506 86.2056 93.5266M77.0187 65.9881C77.1567 72.9326 79.1873 88.1626 86.2056 93.5266M86.2056 93.5266C86.7433 94.2423 87.2797 94.9608 87.8145 95.6818M71.2715 83.4691C74.8224 84.826 83.1024 89.1683 87.8145 95.6818M87.8145 95.6818C95.5585 106.121 102.978 117.094 109.107 127.829M68.3979 101.429C80.5353 108.013 101.846 122.818 114.271 140.701M86.2056 122.502C94.967 124.657 112.846 131.314 114.271 140.701M114.271 140.701C119.169 147.751 122.685 155.28 123.714 162.972C121.573 152.372 116.204 140.259 109.107 127.829M109.107 117.234C108.405 119.508 107.423 124.811 109.107 127.829" stroke="white"/>
</svg>
