<svg width="349" height="320" viewBox="0 0 349 320" fill="none" xmlns="http://www.w3.org/2000/svg">
<path d="M235.662 72.298C238.791 77.5843 243.538 81.2661 247.92 85.5413C250.49 87.0821 248.355 86.6508 246.376 86.4441C241.631 85.9484 236.842 84.4281 232.211 83.3195C219.897 80.3717 204.367 74.8914 194.204 67.1434C185.418 60.4455 173.818 52.186 168.002 42.6829C163.884 35.9537 155.476 26.2732 156.125 17.7863C157.498 -0.169789 196.76 26.47 202.557 30.58C207.374 33.9951 211.766 39.5505 215.352 44.2047C219.072 49.0326 224.11 52.8251 227.593 57.6736C231.048 62.4831 232.739 67.3595 235.662 72.298Z" stroke="white" stroke-linecap="round"/>
<path d="M166.002 22.1141C183.407 48.6346 268.182 97.1036 241.161 80.4876C232.924 75.4227 226.877 66.3122 219.467 60.1146C212.508 54.2944 205.689 48.5694 198.547 42.9765C192.145 37.9637 186.664 33.933 179.459 30.0616C174.651 27.4786 170.539 21.4402 165.065 21.0217" stroke="white" stroke-linecap="round"/>
<path d="M162.802 23.911C170.872 33.3164 178.214 44.7104 188.203 52.1667C195.612 57.697 204.036 62.0163 211.291 67.6558C218.278 73.0864 226.137 75.0363 234.177 78.3658C238.574 80.1864 244.164 81.1674 248.075 83.5114" stroke="white" stroke-linecap="round"/>
<path d="M220.376 112.017C208.636 111.12 197.014 113.092 185.325 111.322C176.924 110.051 167.337 107.89 159.037 105.797C140.039 101.005 120.422 98.6019 101.304 93.9535C92.7055 91.863 79.4524 87.8033 72.6336 95.1075C71.8812 95.9134 85.402 98.7728 87.229 99.2857C101.364 103.254 115.221 106.552 129.816 108.213C151.776 110.712 172.646 114.59 194.789 112.897C204.163 112.18 194.601 112.527 190.92 113.055C179.467 114.696 169.522 118.172 157.694 117.433C139.497 116.296 122.209 116.529 104.53 111.837C98.3808 110.205 93.1663 106.585 87.1405 104.893C83.1884 103.784 77.2489 101.498 77.6346 96.4539C78.0934 90.4528 84.509 89.5528 89.548 87.4971C98.567 83.8178 106.687 80.3146 116.676 79.817C131.736 79.0666 150.844 83.0787 163.809 90.8496C174.589 97.3104 184.968 103.577 196.322 109.158C198.345 110.151 204.841 111.85 202.595 111.679C199.389 111.434 196.128 110.386 192.992 109.697C181.272 107.123 170.502 101.563 159.151 98.3762C150.115 95.8394 139.747 94.6242 130.4 93.9096C121.691 93.2438 113.164 94.6334 104.422 93.9651C98.5231 93.5141 93.5261 95.2919 87.8 96.267C86.9533 96.4112 76.1651 99.1013 79.5575 100.23C88.8288 103.316 98.8142 106.049 108.414 107.767C120.415 109.915 132.664 109.717 144.603 112.122C154.711 114.158 166.011 114.141 176.201 112.723C181.951 111.923 188.464 111.384 193.989 110" stroke="white" stroke-linecap="round"/>
<path d="M134.842 162.642C123.977 166.204 111.035 168.758 100.07 163.5C95.9904 161.543 92.8604 157.75 88.8729 155.668C83.1254 152.667 74.5847 152.591 68.2454 152.503C53.8671 152.304 40.6705 153.235 26.4179 155.147C17.3611 156.361 6.99474 157.232 0.0278342 163.564C-5.42827 168.522 8.10691 173.765 10.9016 175.624C23.1402 183.761 38.8677 184.712 52.8096 187.504C67.8857 190.524 81.2208 186.324 95.7335 183.13C103.2 181.487 109.102 179.639 114.76 174.604C117.305 172.339 120.622 166.889 124.306 166.94C127.981 166.992 117.032 168.015 113.404 168.602C104.409 170.059 94.3339 170.237 85.2236 170.02C68.0906 169.614 50.4807 169.341 33.4448 167.083C29.6266 166.576 2.60969 160.987 1.82477 166.763C1.28699 170.721 7.9749 172.52 10.7185 173.568C19.8932 177.073 28.7673 180.971 38.6689 181.83C58.7258 183.569 78.8177 182.517 97.7074 175.115C103.034 173.028 110.02 172.559 114.471 168.741C117.51 166.133 102.905 171.396 100.911 171.787C91.0874 173.712 81.5299 175.954 71.5222 176.402C62.029 176.827 52.5104 175.873 43.0459 175.019C29.5004 173.796 16.2068 169.904 2.68445 168.871" stroke="white" stroke-linecap="round"/>
<path d="M94.0339 202.395C84.2199 199.978 74.0389 205.8 65.9308 210.965C53.4233 218.932 42.1358 227.581 31.5436 237.939C21.1258 248.126 15.384 259.518 9.05588 272.457C6.25458 278.185 3.07602 283.914 2.58498 290.337" stroke="white" stroke-linecap="round"/>
<path d="M2.27466 294.396C9.60481 289.765 18.6728 289.433 26.4353 285.468C36.4389 280.359 45.1926 270.851 53.6258 263.615C62.3187 256.157 69.9497 245.812 77.1103 236.829C85.2723 226.589 89.9689 215.384 94.9712 203.488" stroke="white" stroke-linecap="round"/>
<path d="M96.1412 201.536C79.3107 203.519 66.4724 219.876 53.931 229.953C45.9662 236.352 39.6346 244.246 32.9683 251.942C26.4261 259.494 19.5882 265.852 15.2153 274.97C13.2423 279.084 10.8173 282.8 8.47702 286.704C6.91673 289.307 5.4357 290.608 8.60374 288.755C18.6317 282.89 27.9686 274.155 36.8349 266.642C43.6556 260.862 50.5435 255.002 57.1795 249.029C63.8516 243.023 68.0827 234.815 74.4608 228.46C79.1097 223.828 83.8811 219.182 86.5274 213.05C86.8108 212.393 89.6646 203.393 87.712 204.974C82.5197 209.178 78.573 215.664 73.6634 220.346C64.6614 228.931 55.447 237.718 47.1821 247.017C39.17 256.031 32.0259 265.624 23.8107 274.549C18.6889 280.114 14.1298 286.346 10.5486 292.987" stroke="white" stroke-linecap="round"/>
<path d="M170.621 162.037C153.225 173.154 139.193 180.943 127.98 197.738C122.145 206.477 118.548 215.931 114.96 225.779C111.988 233.939 110.268 242.178 106.857 250.29C104.227 256.544 100.613 266.039 93.2025 267.301" stroke="white" stroke-linecap="round"/>
<path d="M95.2365 265.556C103.505 264.899 113.364 264.466 121.223 261.26C132.05 256.843 140.09 246.769 145.875 237.118C149.752 230.65 155.331 224.987 158.519 218.129C161.703 211.278 164.469 202.569 165.977 195.153C168.08 184.817 167.767 170.665 176.217 163.415" stroke="white" stroke-linecap="round"/>
<path d="M171.999 156.441C149.652 168.018 136.901 192.754 127.624 214.816C123.07 225.646 119.345 236.846 114.195 247.525C112.606 250.822 110.843 254.422 108.047 256.821C105.787 258.76 113.303 254.302 114.255 253.653C119.403 250.143 125.217 247.301 130.129 243.516C136.773 238.396 139.384 232.104 143.229 224.773C147.644 216.356 153.031 208.513 157.267 199.978C161.687 191.072 163.998 182.874 165.967 173.19C166.416 170.984 167.059 168.729 167.894 166.633C168.15 165.991 169.538 164.6 168.878 164.807C167.124 165.358 165.818 167.962 164.786 169.299C160.568 174.767 156.67 180.509 152.626 186.108C143.531 198.699 138.71 212.611 131.962 226.446C127.889 234.794 123.428 243.014 119.139 251.229" stroke="white" stroke-linecap="round"/>
<path d="M209.067 168.778C204.283 174.498 201.147 181.838 197.59 188.384C194.172 194.674 189.867 199.937 188.293 207.101C186.296 216.19 182.884 225.363 182.173 234.667C181.992 237.039 181.625 238.226 183.954 236.228C186.757 233.824 189.484 231.335 192.563 229.284C201.112 223.588 204.285 212.141 206.273 202.563C207.589 196.223 208.969 189.512 209.821 183.089C209.977 181.913 210.936 169.533 209.924 170.005C207.097 171.322 206.147 183.658 204.864 186.459C201.271 194.308 197.713 202.308 193.571 209.88C190.782 214.979 188.586 220.463 185.726 225.488C184.397 227.823 184.255 229.392 187.055 227.438C191.536 224.309 194.51 220.288 196.953 215.366C200.446 208.328 200.83 199.501 205.3 193.197" stroke="white" stroke-linecap="round"/>
<path d="M224.611 151.911C213.722 165.816 219.321 189.424 225.362 204.233C226.083 206.001 227.63 211.861 227.948 207.704C228.47 200.871 233.907 195.225 236.038 188.895C238.718 180.928 237.17 172.514 232.05 165.783C230.306 163.491 228.689 161.197 227.15 158.757C226.809 158.216 225.387 154.118 226.93 156.1C228.602 158.247 228.459 164.075 228.716 166.584C229.361 172.9 230.13 179.155 229.645 185.502C229.143 192.069 227.782 195.448 225.579 201.399" stroke="white" stroke-linecap="round"/>
<path d="M248.007 144.197C239.727 130.332 271.573 127.829 260.516 147.001C258.543 150.422 253.005 157.96 248.021 156.446C244.113 155.258 243.204 148.316 245.174 145.353C246.156 143.875 251.408 135.589 253.923 138.63C256.103 141.267 256.747 151.918 252.986 153.658C243.201 158.184 250.431 133.311 255.493 145.719" stroke="white" stroke-linecap="round"/>
<path d="M127.512 129.282C122.793 132.325 114.951 138.04 116.493 144.964C117.347 148.799 124.835 150.235 128.038 150.018C139.409 149.245 136.704 135.288 125.973 136.978C116.914 138.405 125.845 154.381 132.976 142.054C134.771 138.95 131.914 134.841 129.264 138.127C126.429 141.643 127.209 143.902 131.08 144.76" stroke="white" stroke-linecap="round"/>
<path d="M93.0608 205.003C135.452 154.683 153.565 157.338 194.827 131.009M136.136 145.725C150.59 146.542 182.564 144.742 194.827 131.009M194.827 131.009C196.399 130.005 197.978 129.004 199.561 128.007M171.552 160.447C174.936 153.283 185.276 136.765 199.561 128.007M199.561 128.007C222.487 113.573 246.469 99.8978 269.753 88.8652M208.42 169.272C224.031 145.094 258.185 103.158 297.324 80.1796M255.043 135.612C260.914 117.747 277.59 81.649 297.324 80.1796M297.324 80.1796C312.754 71.1209 328.958 65.0085 345.107 64.0918C322.738 66.859 296.713 76.0908 269.753 88.8652M247.733 87.1817C252.349 89.0015 263.213 91.8859 269.753 88.8652" stroke="white"/>
</svg>
