<svg width="134" height="134" viewBox="0 0 134 134" fill="none" xmlns="http://www.w3.org/2000/svg">
<path d="M12.6516 69.5062C15.9719 68.1529 19.1575 66.6826 22.7511 66.4088C24.4243 66.2814 26.0403 66.7595 27.6612 66.9551C29.4245 67.1678 30.9455 68.3894 32.751 68.1923C37.7689 67.6446 43.5145 73.075 46.3034 76.6291C49.2763 80.4179 53.2211 84.6637 55.0904 89.25C56.0398 91.5795 57.1471 93.612 58.9502 95.3448C61.4769 97.7732 64.5578 98.517 67.3848 100.288C68.5454 101.016 70.3834 101.297 71.6882 101.846C73.7527 102.715 75.3815 104.471 77.3626 105.393C79.7734 106.514 83.9347 108.267 85.0035 110.889C85.1494 111.247 86.1864 114.228 86.5358 114.086C86.6878 114.024 87.2579 110.783 87.253 110.533C87.1973 107.73 87.0858 105.004 86.9799 102.237C86.7623 96.553 85.0304 91.4583 81.6921 86.7635C80.988 85.7734 80.9039 84.6306 80.0167 83.7779C79.4737 83.2561 77.9153 82.3417 78.5381 82.0878C80.5201 81.28 82.7191 80.9559 84.4151 82.4438" stroke="white" stroke-width="1.5" stroke-linecap="round"/>
<path d="M33.9586 59.9048C35.0228 62.3398 37.1188 61.8038 39.3689 61.9285C41.5567 62.0497 43.7588 62.7358 45.9977 62.6914C50.4494 62.603 55.4404 64.758 59.4879 66.2877C62.4068 67.391 64.9305 68.7382 67.9474 69.6672C70.4819 70.4476 72.1302 72.3868 74.5386 73.4005C76.1336 74.0718 86.0342 80.0223 84.2547 82.0506" stroke="white" stroke-width="1.5" stroke-linecap="round"/>
<path d="M34.6725 60.5308C36.6107 56.1168 41.7255 57.2419 45.8418 57.5579C47.8399 57.7113 49.7204 58.1906 51.6824 58.3873C53.5066 58.5701 56.0016 58.4314 57.7286 59.1583C58.9605 59.6768 61.7401 60.0716 63.096 59.9513C65.0129 59.7812 66.6072 60.9336 68.3986 60.898C71.4981 60.8365 74.6821 62.7362 78.12 61.6232C79.7852 61.0841 81.5575 61.5978 83.3196 60.8796C85.1255 60.1436 86.9314 59.4075 88.7374 58.6714C91.876 57.3922 95.0145 56.113 98.1531 54.8338C101.042 53.6563 106.071 52.8852 109.069 54.0529C111.623 55.0475 115.558 55.1985 117.605 56.9938" stroke="white" stroke-width="1.5" stroke-linecap="round"/>
<path d="M36.113 51.6898C38.4874 51.2225 40.3605 50.8287 42.3772 49.6207C43.8011 48.7678 45.1768 47.6689 46.6573 46.9336C47.4117 46.5589 47.5394 45.8036 48.2245 45.4032C48.9957 44.9525 49.8123 44.7954 50.5166 44.2142C51.6891 43.2468 53.7015 42.3449 55.0605 41.6744C58.4511 40.0016 61.8331 38.3403 65.4301 36.9894C67.7978 36.1002 72.274 34.5951 74.8096 35.0007C79.0501 35.6791 82.8176 37.3202 86.9573 38.3035C91.1465 39.2987 94.1843 42.3097 97.9903 43.9968C101.658 45.6225 104.528 48.9784 108.18 50.747C111.041 52.1322 114.731 54.8801 116.818 57.3145" stroke="white" stroke-width="1.5" stroke-linecap="round"/>
<path d="M35.9527 51.2965C39.3091 49.2801 40.1732 46.764 42.7009 44.1643C44.3252 42.4938 46.0353 40.4991 46.9474 38.332C49.0439 33.3508 52.4192 32.2041 57.2727 30.2259C59.1046 29.4793 60.5584 28.8338 62.0788 27.5792C63.6885 26.2509 64.6804 24.8894 66.0908 23.4219C67.627 21.8235 69.4934 21.6335 71.1306 20.3488C72.6408 19.1638 75.4693 18.0845 77.2979 18.8542" stroke="white" stroke-width="1.5" stroke-linecap="round"/>
<path d="M12.957 68.0059C15.0139 66.0859 17.152 64.7081 18.8259 62.404C20.1887 60.5281 21.2892 58.737 22.4954 56.7814C24.4702 53.5798 26.7262 50.6263 28.9099 47.5179C30.0829 45.8483 30.8199 44.141 31.6093 42.2652C32.3909 40.4082 34.166 38.732 34.6316 36.8046C35.0383 35.1208 36.1506 33.6788 36.8528 32.1289C37.6077 30.4627 37.9649 28.7126 38.6727 27.0309C39.9389 24.0224 43.6236 21.1152 46.5731 19.9131C50.0278 18.505 53.0989 16.2214 56.8983 15.8067C60.8354 15.3769 65.5421 15.6564 69.3377 16.8252C71.7027 17.5534 74.0179 18.9833 76.5113 19.1747" stroke="white" stroke-width="1.5" stroke-linecap="round"/>
<path d="M32.8085 64.959C39.1013 64.9438 45.7749 67.5555 51.0229 70.8332C53.5889 72.4359 56.5004 73.4787 58.9331 75.3027C61.5367 77.2548 63.8766 79.4895 66.5515 81.3687C68.7914 82.9423 70.2362 85.1626 72.261 86.9389C74.2849 88.7145 76.4386 90.601 77.7237 92.9664C78.7967 94.9413 80.4069 96.378 81.3213 98.4803C82.507 101.206 83.5175 103.869 84.6514 106.651" stroke="white" stroke-width="1.5" stroke-linecap="round"/>
<path d="M51.0164 75.8801C50.2532 74.7146 48.498 72.619 50.1941 74.7377C51.9595 76.9428 53.5666 78.7619 54.6625 81.4506C56.1505 85.1014 59.0324 90.176 57.9957 94.129" stroke="white" stroke-width="1.5" stroke-linecap="round"/>
<path d="M58.2271 81.1951C60.0966 84.1056 62.1664 88.1266 62.7017 91.5485C63.1405 94.3543 62.7522 96.7979 63.8664 99.5316" stroke="white" stroke-width="1.5" stroke-linecap="round"/>
<path d="M69.3863 99.5745C67.4336 94.7835 65.9908 88.3332 62.3492 84.5591" stroke="white" stroke-width="1.5" stroke-linecap="round"/>
<path d="M74.3682 101.671C73.5766 96.7396 71.1707 91.934 67.5789 88.3887" stroke="white" stroke-width="1.5" stroke-linecap="round"/>
<path d="M48.9907 67.5347C51.2779 67.0957 53.3899 66.628 55.6905 67.0967" stroke="white" stroke-width="1.5" stroke-linecap="round"/>
<path d="M52.1665 70.8257C56.0519 70.061 62.3559 68.3426 65.8867 70.7363" stroke="white" stroke-width="1.5" stroke-linecap="round"/>
<path d="M56.3613 73.2429C61.7884 72.7227 66.5607 73.5803 71.8934 74.2237C74.3137 74.5158 77.842 74.9092 79.724 76.5603" stroke="white" stroke-width="1.5" stroke-linecap="round"/>
<path d="M60.5565 75.6602C64.362 76.0619 67.8606 77.4094 71.6117 78.0326" stroke="white" stroke-width="1.5" stroke-linecap="round"/>
<path d="M65.2326 79.2568C67.676 79.8413 69.8697 80.398 72.1076 81.4988" stroke="white" stroke-width="1.5" stroke-linecap="round"/>
<path d="M71.6566 84.8926C75.1276 84.4713 79.5097 86.2282 82.2459 88.372" stroke="white" stroke-width="1.5" stroke-linecap="round"/>
<path d="M23.4141 63.2854C25.2657 63.0501 26.8903 62.9581 28.2931 61.7554" stroke="white" stroke-width="1.5" stroke-linecap="round"/>
<path d="M44.9542 53.1304C46.2207 54.2063 47.5449 55.1713 48.9163 56.101" stroke="white" stroke-width="1.5" stroke-linecap="round"/>
<path d="M52.9212 53.5515L55.2955 54.8766" stroke="white" stroke-width="1.5" stroke-linecap="round"/>
<path d="M61.4997 50.9724C63.8183 53.8581 67.6685 57.8107 71.7106 56.8988" stroke="white" stroke-width="1.5" stroke-linecap="round"/>
<path d="M63.6109 48.2776C69.266 53.3901 74.6704 58.5554 82.8382 58.3246" stroke="white" stroke-width="1.5" stroke-linecap="round"/>
<path d="M70.9222 44.8391C73.3951 46.6657 75.7593 48.7756 78.3447 50.4245C80.6802 51.9139 83.1446 52.2599 85.7215 53.0224" stroke="white" stroke-width="1.5" stroke-linecap="round"/>
<path d="M75.8164 45.5957C80.446 47.1055 86.6717 49.728 88.6494 54.5804" stroke="white" stroke-width="1.5" stroke-linecap="round"/>
<path d="M85.6042 47.1089C89.0124 48.6002 92.6979 50.7382 94.7957 53.9094" stroke="white" stroke-width="1.5" stroke-linecap="round"/>
<path d="M88.8373 47.167C91.9603 47.8185 93.2745 48.6011 95.4067 50.9092" stroke="white" stroke-width="1.5" stroke-linecap="round"/>
<path d="M49.8182 49.3137C52.4374 48.2462 54.825 48.5096 57.5019 47.9143C59.7274 47.4194 61.8479 46.4753 64.1141 46.1364C68.6505 45.4582 73.2681 44.4659 77.8932 45.004C82.6359 45.5558 87.0566 46.229 91.8668 46.1614C95.8759 46.1052 99.6873 47.8864 103.592 48.4901" stroke="white" stroke-width="1.5" stroke-linecap="round"/>
<path d="M61.6299 46.7922C65.4696 44.5729 70.6905 40.8191 75.2327 40.7895" stroke="white" stroke-width="1.5" stroke-linecap="round"/>
<path d="M72.4225 45.1447C75.9622 43.3028 79.5824 41.7679 83.2727 40.2638" stroke="white" stroke-width="1.5" stroke-linecap="round"/>
<path d="M53.7507 47.7109C57.2894 46.2686 60.9434 45.0014 64.2077 42.9903" stroke="white" stroke-width="1.5" stroke-linecap="round"/>
<path d="M70.2776 18.5057C65.6343 17.3607 59.5789 21.0321 55.2618 22.7917C52.6955 23.8376 50.3491 25.9699 48.4526 27.9616C46.2363 30.2891 43.0272 32.1886 41.4633 35.0647C40.6983 36.4716 39.0816 37.1737 38.4189 38.4709C37.6599 39.9566 36.7017 41.3174 35.9281 42.7979C34.2082 46.0893 33.394 49.4774 30.9135 52.4334C29.7002 53.8793 19.1941 65.3072 18.2873 63.0823" stroke="white" stroke-width="1.5" stroke-linecap="round"/>
</svg>
