<svg width="176" height="202" viewBox="0 0 176 202" fill="none" xmlns="http://www.w3.org/2000/svg">
<path d="M70.1199 48.9628C71.3408 55.7985 73.5444 70.2279 72.5911 73.2601C72.1665 74.6105 73.5934 85.8098 76.3441 100.98M101.11 187.42C99.9377 185.337 98.7803 182.983 97.6422 180.407M40.2325 92.7426C44.4905 101.658 54.5995 120.45 65.9678 135.638M97.6422 180.407C96.3994 177.45 95.374 174.862 94.0344 172.128M97.6422 180.407C88.5858 159.908 80.7594 125.329 76.3441 100.98M137.162 105.726C129.215 113.947 117.302 127.441 107.989 140.63M94.0344 172.128C90.9969 165.928 86.3442 158.981 73.8789 145.298C71.2127 142.371 68.5576 139.098 65.9678 135.638M94.0344 172.128C107.188 150.49 105.938 116.301 103.669 101.911M94.0344 172.128C93.2365 166.876 96.3733 159.143 101.448 150.625M65.9678 135.638C64.4342 133.822 62.7962 132.126 61.0816 130.544M95.0579 41.8974C95.4664 43.7223 91.6545 48.2341 87.047 53.3339M95.0579 41.8974C95.0837 42.0125 95.0499 42.1881 94.9656 42.4141M95.0579 41.8974C95.0289 42.0641 94.9981 42.2364 94.9656 42.4141M76.3441 100.98C75.8556 98.3686 75.8593 94.6803 76.4683 90.5828M76.4683 90.5828C77.437 84.0652 79.937 76.5121 84.4235 70.6117C90.1161 63.125 93.7547 49.028 94.9656 42.4141M76.4683 90.5828C76.9158 80.1538 77.3861 64.027 87.047 53.3339M87.047 53.3339C89.5401 50.3329 94.2214 44.4084 94.9656 42.4141M79.6858 91.7008C86.2635 82.214 98.5283 59.075 94.9656 42.4141M61.0816 130.544C51.0067 124.639 58.5444 129.814 47.1895 123.825C35.8048 123.999 22.9868 115.395 18.0009 111.071C25.1788 111.851 39.3717 115.391 52.1335 123.645M61.0816 130.544C58.2652 127.946 55.2418 125.656 52.1335 123.645M17.7637 110.011C24.7552 109.003 41.4172 110.318 52.1335 123.645M33.3201 116.544L40.7821 118.397M101.448 150.625C101.408 150.429 101.377 150.187 101.35 149.905M101.448 150.625C103.383 147.376 105.601 144.013 107.989 140.63M101.35 149.905C101.126 147.568 101.229 142.472 100.014 137.779C98.6512 132.52 95.633 135.607 93.5169 125.324C91.8241 117.098 88.5123 108.765 87.0681 105.626C90.1676 108.703 96.72 114.778 98.1329 114.462C99.6047 114.133 105.645 127.667 103.626 141.607M101.35 149.905C102.498 147.194 103.223 144.392 103.626 141.607M95.1516 116.057C97.5759 120.336 102.665 131.437 103.626 141.607M107.989 140.63C111.269 137.485 118.725 130.401 122.316 127.224C126.805 123.252 144.898 119.573 150.396 120.939C145.084 126.207 136.992 135.622 122.566 136.626C117.818 136.956 107.467 142.354 107.13 144.717M107.989 140.63C115.783 132.654 130.745 127.006 137.251 125.179" stroke="white"/>
<path d="M49.1999 30.2556C50.971 34.0544 52.1444 37.3259 54.8651 40.3827C55.7562 41.3838 57.5377 42.4044 58.6781 43.1277C60.447 44.2495 63.7749 45.5074 65.8554 45.7194" stroke="white" stroke-linecap="round"/>
<path d="M49.1999 30.2556C51.7042 30.6929 54.4774 31.5603 56.6101 32.9951C58.5364 34.2911 59.7128 36.2854 61.4418 37.7111C62.4701 38.559 63.5132 40.52 64.1564 41.7015C65.0708 43.3814 66.1576 45.2834 66.577 47.1572" stroke="white" stroke-linecap="round"/>
<path d="M56.6335 20.5952C54.6568 25.3438 57.2874 29.726 59.5737 33.7312C61.0733 36.3583 63.5333 38.3821 64.8327 41.1504C66.0051 43.6478 68.3673 51.5828 67.7647 48.8905" stroke="white" stroke-linecap="round"/>
<path d="M57.0142 20.51C60.0458 25.0156 65.5917 28.4642 66.8296 33.9952C67.4244 36.6523 67.97 39.1314 67.9866 41.8438C67.9922 42.7596 68.4903 47.2951 68.1 46.8163" stroke="white" stroke-linecap="round"/>
<path d="M64.5606 29.2165C62.9428 25.1527 63.1431 20.1491 65.7262 16.5609C66.431 15.5819 67.5552 15.1177 67.1914 16.8549C66.7989 18.7292 68.4937 20.2272 69.3547 21.6573C71.5272 25.2657 71.0509 30.5736 70.8745 34.6003C70.7824 36.7035 69.8712 38.709 69.7626 40.8466C69.6725 42.6197 69.1968 44.5721 68.7763 46.2651" stroke="white" stroke-linecap="round"/>
<path d="M71.1983 24.9319C71.1851 21.7347 73.4291 19.3443 75.6938 17.3285C76.4743 16.6338 77.3774 15.9076 76.9213 17.4536C76.4858 18.9296 77.0443 20.4989 77.3302 21.9601C77.7383 24.0466 77.0023 26.8995 76.4945 28.9442C76.0233 30.8413 76.1306 33.2462 75.2506 34.9979C74.4595 36.5727 72.9267 37.9036 72.2833 39.5049C71.6917 40.9772 71.3938 41.9527 69.9983 42.7929" stroke="white" stroke-linecap="round"/>
<path d="M76.9041 20.0564C78.7298 18.7473 78.8698 17.785 79.359 20.3066C79.5939 21.517 79.5078 22.7577 79.7879 24.009C80.2715 26.1696 79.4159 28.5037 78.6175 30.4905C77.9838 32.0677 77.4906 33.6541 76.9062 35.2494C76.4315 36.5451 75.1328 37.5523 74.3699 38.7047C73.2741 40.3598 71.0179 42.3232 69.322 43.3442" stroke="white" stroke-linecap="round"/>
<path d="M79.5804 26.6544C82.073 25.6756 83.8214 24.5714 85.6732 22.714C86.1254 22.2603 87.8034 20.5209 88.0793 21.7534C88.408 23.222 88.0187 24.2539 87.5351 25.6735C86.9495 27.3925 86.0044 29.553 85.19 31.1741C83.7848 33.9714 81.5057 36.3833 78.8549 38.1007C77.3639 39.0668 76.1317 39.8558 74.4999 40.6748C73.6032 41.1249 71.1052 42.5932 71.1406 42.5374" stroke="white" stroke-linecap="round"/>
<path d="M84.0353 34.0535C86.9212 33.9742 89.8023 32.8106 92.3094 34.4006C93.0161 34.8488 94.165 35.5674 94.5506 36.2757C94.5534 36.2808 92.3443 36.5416 91.4455 36.793C88.8088 37.5307 86.7389 39.8456 84.0662 40.4439C81.0218 41.1253 78.5395 39.8186 75.6643 39.5256" stroke="white" stroke-linecap="round"/>
<path d="M62.9743 43.5655C63.3772 45.2046 64.1405 46.8888 65.8582 47.518C67.0162 47.9422 68.2281 47.6048 69.3502 47.9359C70.3135 48.2201 68.9106 48.0941 68.5461 47.916C67.7543 47.529 67.3913 46.1868 66.9977 45.4638C66.7374 44.9856 63.8435 39.8169 64.6917 39.6271C65.2992 39.4911 69.1915 46.3335 69.4554 47.5125C69.6382 48.3294 69.9829 49.8696 69.5832 48.0837C69.2261 46.488 68.8715 45.0703 68.0952 43.6188C67.6814 42.8453 65.7564 40.4557 65.9087 40.5986C67.5054 42.0964 69.4509 44.1463 69.9849 46.3056C70.3178 47.6518 70.3662 49.7957 69.7935 47.2369C69.3667 45.33 69.3403 43.4258 68.9149 41.525C68.6751 40.4539 67.9727 38.2065 69.0027 40.528C69.9808 42.7326 70.7211 45.0046 70.7248 47.4283C70.7253 47.7481 70.509 50.2352 70.3803 49.6601C70.0831 48.3322 71.1466 45.8371 71.3763 44.4837C71.5923 43.2108 71.3249 41.7439 71.8993 40.5683C72.2354 39.8806 72.8178 42.8723 72.8555 43.153C73.0744 44.7832 72.5333 46.7061 71.8004 48.1649C71.3035 49.1542 70.8432 49.4724 71.462 48.2407C72.3964 46.3807 72.9083 44.4968 73.3247 42.4705C73.6158 41.0537 73.5126 40.6307 73.8532 42.1523C74.5653 45.334 72.4243 46.817 70.4305 48.6937C68.8058 50.223 70.203 48.7588 70.7065 47.7434C71.4153 46.3141 72.3049 44.4715 72.0062 42.8322C71.981 42.6934 72.1302 45.0217 71.9076 45.9641C71.3416 48.3603 71.4796 46.1221 71.9859 44.9248C73.5069 41.3277 71.4955 49.4821 70.5949 45.4583" stroke="white" stroke-linecap="round"/>
<path d="M70.0093 49.9875C71.8689 49.1317 72.6603 48.1326 73.9824 46.6992C74.3582 46.2918 75.3777 45.246 74.3436 46.1297C73.1671 47.135 72.4321 48.5287 71.0664 49.351" stroke="white" stroke-linecap="round"/>
<path d="M66.452 48.3848C67.0448 48.7607 70.1358 51.1046 71.0481 49.6662C71.276 49.3067 68.9824 49.8378 68.7629 49.7778C68.407 49.6806 66.5771 48.1674 67.2324 48.2989C67.8012 48.4131 69.9 49.5771 69.3729 48.9305" stroke="white" stroke-linecap="round"/>
<path d="M63.1448 44.327C63.911 47.7502 66.2054 50.8389 70.0093 49.9875" stroke="white" stroke-linecap="round"/>
<path d="M70.7873 60.6086C70.4197 58.9664 70.3249 56.3281 69.2128 54.9636C68.2207 53.7463 67.2266 54.3595 65.9055 53.8824C64.3717 53.3286 66.1715 54.6031 66.5513 54.9818C67.6804 56.1074 68.7638 57.3284 69.8952 58.4093" stroke="white" stroke-linecap="round"/>
<path d="M71.6794 62.8079C71.9206 60.8937 72.3028 58.2652 73.7274 56.7741C74.3991 56.0711 74.6098 57.2027 74.4649 57.7863C73.9327 59.9291 72.3501 62.2315 72.867 64.5412" stroke="white" stroke-linecap="round"/>
<path d="M71.821 72.372C70.7649 70.8025 70.0009 68.9114 68.8087 67.4487C67.9746 66.4253 67.8057 67.1117 68.3629 68.0371C69.3731 69.7149 69.9552 73.5893 72.3722 73.0483" stroke="white" stroke-linecap="round"/>
<path d="M75.5474 101.525C74.4988 100.439 73.6259 99.4254 72.1814 98.9909C71.7859 98.872 72.6018 99.397 72.8674 100.17C73.7087 102.62 73.6376 105.951 76.7804 105.247" stroke="white" stroke-linecap="round"/>
<path d="M78.3653 117.687C78.3452 115.48 78.482 113.037 80.0483 111.313C80.675 110.623 82.3909 109.362 81.9104 111.296C81.01 114.921 80.5793 118.664 79.3879 122.256" stroke="white" stroke-linecap="round"/>
<path d="M81.814 131.309C80.5751 129.517 79.2179 127.739 77.3514 126.555C76.184 125.814 77.6577 128.817 77.7102 129.051C78.4603 132.402 80.9547 133.569 82.8367 135.878" stroke="white" stroke-linecap="round"/>
<path d="M86.6607 145.817C86.9287 144.383 87.537 141.926 88.4068 140.717C88.6104 140.435 89.0532 144.157 89.0709 144.478C89.1817 146.488 89.9282 151.083 87.1775 151.699" stroke="white" stroke-linecap="round"/>
<path d="M44.4852 102.08C44.653 101.138 45.4133 93.7226 46.1657 97.0841C46.6487 99.2421 47.9389 103.602 45.5478 105.041" stroke="white" stroke-linecap="round"/>
<path d="M47.7127 109.355C46.5474 108.756 40.3318 103.916 42.8021 108.455C43.5315 109.794 45.316 110.374 46.7409 110.372C48.2108 110.369 48.0172 110.232 48.9401 109.48" stroke="white" stroke-linecap="round"/>
<path d="M58.6568 126.097C58.9902 123.868 59.1854 121.676 59.2532 119.433C59.2976 117.967 60.399 120.257 60.5293 120.569C61.548 123.004 62.155 127.159 59.6341 128.677" stroke="white" stroke-linecap="round"/>
<path d="M71.59 142.793C71.6906 141.742 71.4976 135.835 73.0229 138.874C74.1655 141.15 74.9712 143.658 74.346 146.175" stroke="white" stroke-linecap="round"/>
<path d="M83.2504 157.376C81.2817 157.106 79.2291 157.119 77.2406 157.122C76.4983 157.123 75.2652 156.559 76.6956 157.466C77.8025 158.168 82.9163 160.169 83.4209 158.137" stroke="white" stroke-linecap="round"/>
<path d="M104.688 117.393C105.37 115.955 106.519 114.964 107.005 113.454C107.465 112.026 107.538 113.392 107.523 113.982C107.451 116.89 106.264 119.884 103.551 121.246" stroke="white" stroke-linecap="round"/>
<path d="M121.322 118.468C121.564 116.444 122.537 113.654 121.765 111.616C121.458 110.807 120.28 111.723 120.339 112.291C120.61 114.917 119.366 117.725 121.282 120.076" stroke="white" stroke-linecap="round"/>
<path d="M127.829 111.814C129.502 111.67 131.17 111.083 132.732 110.894C133.18 110.84 132.329 112.138 132.315 112.209C131.774 114.906 128.501 115.262 126.311 115.752" stroke="white" stroke-linecap="round"/>
<path d="M98.4008 157.183C100.131 155.614 102.12 154.134 104.214 153.084C104.738 152.82 104.465 153.121 104.382 153.934C104.02 157.489 101.075 158.584 98.0654 159.258" stroke="white" stroke-linecap="round"/>
<path d="M137.763 104.392C134.398 103.774 131.579 98.2017 130.85 94.9442C130.453 93.1694 130.366 91.4407 130.08 89.7189C129.867 88.4349 130.082 87.7675 130.901 88.4245C131.675 89.045 133.175 90.6269 133.68 91.512C134.699 93.297 134.629 95.2641 135.36 97.1333C136.046 98.886 136.438 100.8 137.252 102.507C137.431 102.883 138.681 106.707 138.229 104.688" stroke="white" stroke-linecap="round"/>
<path d="M133.086 90.6454C132.569 88.0962 131.753 82.5915 133.155 80.2345C134.608 77.792 137.527 83.4178 138.536 84.6276C141.186 87.8034 140.237 90.2525 140.371 94.2127C140.437 96.1606 139.649 98.6865 138.895 100.518C138.655 101.099 138.082 103.956 137.507 103.25" stroke="white" stroke-linecap="round"/>
<path d="M140.241 92.2426C140.291 88.5419 142.458 86.6964 145.454 85.1672C146.369 84.7006 147.166 84.2954 148.163 84.0721C148.184 84.0676 147.994 84.5641 147.958 84.7401C147.836 85.32 147.774 86.0101 147.775 86.6025C147.781 90.4997 146.159 93.8301 143.871 96.85C142.898 98.1345 142.107 99.3734 141.251 100.724C140.455 101.979 139.028 102.967 138.99 104.517" stroke="white" stroke-linecap="round"/>
<path d="M144.901 95.1979C146.764 93.5298 151.444 89.9373 154.522 90.8454C156.755 91.5043 156.808 93.1319 155.142 94.9048C152.497 97.719 150.556 100.545 147.171 102.464C145.674 103.313 139.42 106.426 138.314 105.069" stroke="white" stroke-linecap="round"/>
<path d="M150.157 100.819C152.893 100.591 155.898 100.314 158.56 100.848C159.256 100.988 160.164 100.743 158.94 101.652C157.704 102.569 156.484 103.243 155.198 104.088C152.539 105.836 150.36 105.954 147.268 105.774C146.199 105.712 145.104 105.015 144.027 104.79C143.062 104.587 141.536 104.879 140.894 104.091" stroke="white" stroke-linecap="round"/>
<path d="M150.503 105.939C152.307 108.502 154.517 110.34 157.072 112.065C158.082 112.746 156.839 113.345 156.101 113.482C154.508 113.777 153.159 112.92 151.635 112.882C149.307 112.824 146.554 111.312 144.501 110.281C142.65 109.352 139.36 106.168 138.905 104.137" stroke="white" stroke-linecap="round"/>
<path d="M135.353 106.131C136.936 107.103 138.181 107.897 140.053 107.478" stroke="white" stroke-linecap="round"/>
<path d="M135.688 104.057C135.651 101.353 138.519 93.6765 138.277 96.3695C138.143 97.8614 137.237 99.2049 136.929 100.669C136.804 101.264 136.422 105.714 135.696 105.877C135.321 105.961 135.776 105.112 135.84 104.734C135.984 103.885 136.197 103.088 136.49 102.278C137.067 100.681 137.209 98.106 138.381 96.8349C139.159 95.9917 138.375 99.622 138.329 99.7786C137.836 101.451 137.067 106.446 136.686 104.744C136.34 103.198 137.358 100.869 137.828 99.4243C138.601 97.0513 138.772 98.5948 138.407 100.227C138.06 101.785 137.612 103.613 136.527 104.824C135.856 105.574 137.332 102.968 137.903 102.14C138.839 100.781 141.009 97.0018 142.688 96.6261C143.175 96.5171 141.124 100.138 140.862 100.478C139.818 101.835 138.365 102.866 137.186 104.099C136.303 105.024 139.052 102.349 140.001 101.492C140.183 101.328 143.084 99.1014 142.642 100.19C142.015 101.736 140.179 102.927 138.82 103.756C136.753 105.016 138.622 103.863 139.731 103.463C141.094 102.971 143.896 102.22 143.896 102.22C143.896 102.22 136.355 103.855 138.293 103.785C139.946 103.725 142.142 103.234 143.666 102.582C145.283 101.891 142.011 102.988 141.654 103.121C141.048 103.348 138.133 104.64 138.52 104.6C139.951 104.452 141.326 103.808 142.76 103.696C144.536 103.556 135.898 105.609 137.637 105.22C139.313 104.845 140.862 104.098 142.544 103.722C144.323 103.324 141.936 103.858 141.465 103.963C137.274 104.902 144.225 103.746 139.837 104.728" stroke="white" stroke-linecap="round"/>
<path d="M140.547 98.9711C139.936 99.5573 137.408 101.303 137.353 102.263C137.34 102.485 140.1 99.7704 140.409 99.4462C143.29 96.4317 140.037 99.819 138.985 100.92" stroke="white" stroke-linecap="round"/>
<path d="M100.808 98.2702C98.0093 98.8269 92.415 99.0963 90.8168 96.1083C89.411 93.4798 87.4432 89.7007 89.9143 87.1142" stroke="white" stroke-linecap="round"/>
<path d="M100.256 97.594C97.6846 98.7206 96.6873 97.7787 95.0057 95.5706C93.7155 93.8766 93.1982 91.4097 92.8143 89.3529C92.2508 86.3333 93.1207 77.2569 93.9665 80.2099C94.4255 81.8127 94.9361 83.0282 95.6471 84.5429C96.5413 86.4478 97.9567 87.3548 99.0395 88.9813C100.89 91.7604 104.072 96.2639 101.063 99.4125" stroke="white" stroke-linecap="round"/>
<path d="M95.8757 83.3809C98.8534 85.6956 101.945 86.8728 103.107 90.7806C103.601 92.4416 104.107 99.5306 101.614 100.089" stroke="white" stroke-linecap="round"/>
<path d="M101.553 87.308C101.581 83.9057 103.539 82.0506 104.418 79.07C105.31 76.0452 105.775 81.1633 106.031 82.3074C106.68 85.2074 108.345 89.286 108.078 92.2448C107.86 94.6517 105.736 97.9667 103.263 98.5203" stroke="white" stroke-linecap="round"/>
<path d="M107.349 86.4104C107.514 85.8833 108.959 80.231 109.602 80.7972C110.325 81.4331 111.133 84.9794 111.138 85.8733C111.158 89.1077 107.847 101.457 102.842 100.214" stroke="white" stroke-linecap="round"/>
<path d="M112.043 84.1602C113.19 89.2832 111.875 92.9578 109.625 97.4736C109.015 98.6991 103.812 103.89 102.507 102.288" stroke="white" stroke-linecap="round"/>
<path d="M101.359 98.9464C101.805 100.078 102.264 101.203 102.53 102.394C102.736 103.313 102.189 100.539 102.105 99.6012C101.888 97.1782 101.331 95.0215 102.139 98.8606C102.365 99.9349 102.748 101.327 102.356 102.41C102.225 102.775 102.388 100.339 102.43 100.062C102.57 99.1485 103.883 93.099 103.702 96.9115C103.66 97.8078 103.296 104.42 103.172 100.695C103.152 100.103 103.552 94.089 104.503 95.1328C105.825 96.582 104.904 102.784 104.085 101.002C103.747 100.268 104.826 94.451 105.095 94.6005C106.344 95.293 104.671 100.685 104.18 101.625C103.663 102.611 103.757 100.519 103.773 100.405C104.008 98.7953 104.708 97.171 105.435 95.7238C106.921 92.7657 106.262 98.8643 106.133 99.6327C105.62 102.682 106.143 97.3298 106.767 96.3143C107.771 94.6792 106.313 100.238 106.078 100.978C105.99 101.256 107.428 97.1867 108.015 97.7231C108.961 98.5861 105.477 101.782 106.038 100.898C107.065 99.2792 107.232 100.475 106.314 101.436" stroke="white" stroke-linecap="round"/>
<path d="M40.0701 93.0729C36.8456 93.7946 33.1026 94.7161 30.1056 92.8154C28.4291 91.7521 26.9444 90.3891 25.3133 89.2678C24.2157 88.5133 23.4616 87.1496 22.3748 86.4603C21.1176 85.663 22.6688 86.0611 23.3595 86.1955C25.3105 86.5752 27.4198 86.2627 29.3788 86.492C32.2061 86.8228 36.2412 90.257 36.8536 92.9932" stroke="white" stroke-linecap="round"/>
<path d="M30.1994 86.4859C27.6947 84.2811 25.217 79.8381 25.2325 76.4025C25.235 75.8383 25.0501 73.4803 25.8887 73.479C26.7066 73.4778 28.1832 75.2064 28.8897 75.6727C32.0838 77.7808 35.7302 81.0116 37.2828 84.5895C38.1001 86.473 38.503 89.0459 38.2213 91.0654C38.1396 91.6518 37.7955 94.1487 36.8536 92.9931" stroke="white" stroke-linecap="round"/>
<path d="M33.53 78.1438C32.5864 75.7523 30.792 71.1366 32.2645 68.5203C33.1165 67.0063 35.7377 70.0145 36.2884 70.8182C39.4142 75.3802 44.8946 88.2087 37.2743 91.2997" stroke="white" stroke-linecap="round"/>
<path d="M39.6673 78.7693C40.1584 76.0118 42.3933 72.662 42.0659 69.836C41.7813 67.3788 43.8201 71.0018 44.0624 71.6104C45.2829 74.6765 44.6307 77.6779 43.7074 80.8415C43.0199 83.1968 41.6714 86.8692 39.3429 88.0379" stroke="white" stroke-linecap="round"/>
<path d="M44.0714 80.5823C45.6838 78.6427 46.944 74.5664 49.8171 74.0985C50.7368 73.9487 50.1376 79.6496 49.9746 80.2606C49.2129 83.1158 41.5018 94.8295 37.8653 90.3678" stroke="white" stroke-linecap="round"/>
<path d="M48.8563 82.3101C50.4838 82.5592 52.5009 82.0607 51.7184 84.3794C51.0679 86.3073 49.6553 87.6398 48.4177 89.1831C46.0767 92.1027 42.0632 91.8271 38.7574 92.5671" stroke="white" stroke-linecap="round"/>
<path d="M40.1897 88.2481C40.1643 88.3375 39.0231 93.5737 39.5981 93.445C40.4546 93.2533 40.1806 88.8956 40.124 88.3517C40.0577 87.715 39.5007 84.4138 39.8936 86.8262C40.2284 88.8821 40.4518 90.9894 40.86 93.0293C41.119 94.3238 40.7319 90.7702 40.6963 90.5115C40.4719 88.8848 39.301 84.3034 40.3079 85.6006C41.2917 86.8682 41.0997 89.8097 41.2806 91.3359C41.6672 94.5969 40.9927 90.1131 40.9786 89.0933C40.9729 88.6863 40.6894 84.8789 41.344 86.657C42.0158 88.4819 42.4873 90.7652 42.1879 92.7099C41.8515 94.8943 38.5511 87.7739 40.4319 86.7501C41.5314 86.1516 41.1231 96.1036 40.2617 93.8296C39.8757 92.8106 40.1101 91.4795 40.1883 90.4253C40.2213 89.9798 40.6426 92.2157 40.4508 92.9876" stroke="white" stroke-linecap="round"/>
<path d="M34.3189 95.9594C35.4415 96.3182 36.545 96.6129 37.7058 96.8006" stroke="white" stroke-linecap="round"/>
</svg>
