<svg width="223" height="331" viewBox="0 0 223 331" fill="none" xmlns="http://www.w3.org/2000/svg">
<path d="M52.5043 5.47534C41.5544 86.4684 12.5417 262.192 -15.91 317.14M-31.9276 330.443C-8.30851 250.627 21.8264 150.177 213.495 5.47534M104.086 164.023C70.1507 167.1 -5.37646 203.822 -36 326.099" stroke="white"/>
<path d="M52.2568 21.1587C51.7418 19.1845 50.4319 17.5322 50.1161 15.5318C49.8371 13.7649 49.2107 12.1738 49.2107 10.3449C49.2107 8.00911 49.0568 4.41461 51.1145 2.81418C51.8224 2.26357 52.3744 4.19826 52.443 4.59109C52.5447 5.17363 52.8168 5.72605 52.8576 6.31724C52.9 6.93227 52.8368 7.53385 52.9422 8.14492C53.1591 9.40276 53.3911 12.1044 52.4091 13.0864" stroke="white" stroke-linecap="round"/>
<path d="M46.6215 43.7003C46.1035 41.4848 44.9841 39.4144 44.2607 37.2442C43.7333 35.662 43.297 34.0657 42.8138 32.4634C42.3266 30.8481 42.0522 29.2659 42.0522 27.5642C42.0522 27.3184 42.074 25.4273 42.5769 26.405C43.8682 28.9159 44.9867 31.866 45.5215 34.6465C45.797 36.0794 46.3168 37.4037 46.3168 38.9026C46.3168 39.3513 46.2722 41.8726 46.7738 41.8726" stroke="white" stroke-linecap="round"/>
<path d="M49.5152 38.5219C50.343 36.6229 50.8193 34.3755 52.1383 32.7342C53.1627 31.4593 54.2951 30.1623 55.5313 29.0873C55.7318 28.913 57.0122 27.5235 57.1982 28.055C57.7142 29.5291 57.0275 31.703 56.369 33.0388C54.8341 36.1525 52.3762 38.9273 49.6675 40.9588" stroke="white" stroke-linecap="round"/>
<path d="M43.423 68.5262C42.6761 67.4507 42.4679 66.1017 42.0438 64.8793C41.4601 63.1969 40.8734 61.4943 40.2246 59.8363C39.6103 58.2664 39.331 56.5339 39.3107 54.8525C39.3047 54.356 38.9834 49.5349 40.5292 51.434C42.4177 53.7542 42.6615 56.9761 42.6615 59.8447C42.6615 61.035 42.6615 62.2252 42.6615 63.4155C42.6615 63.7802 42.8496 65.0053 42.5092 65.1755" stroke="white" stroke-linecap="round"/>
<path d="M44.9461 61.6725C45.8143 59.5248 46.8914 57.4586 48.6353 55.8848C49.9904 54.662 51.471 53.7418 52.9338 52.6779C53.8862 51.9852 54.9303 51.3373 56.056 50.9433C56.3568 50.8381 56.6607 50.7546 56.9614 50.6472C57.2053 50.5601 56.4454 52.3165 56.3691 52.5002C55.3044 55.0635 53.5495 57.8878 51.3261 59.6248C49.6396 60.9423 47.7059 61.5111 45.8599 62.434" stroke="white" stroke-linecap="round"/>
<path d="M42.966 85.5845C43.7722 84.0962 44.2922 82.4648 45.0983 80.9646C45.6804 79.8812 46.4 78.8746 47.0783 77.8507C48.1397 76.2487 49.3954 74.7134 50.8183 73.4C52.3107 72.0223 53.7131 70.2294 55.599 69.3808C56.9451 68.775 56.3612 71.1918 56.1829 71.8092C55.6385 73.6937 54.3984 75.351 53.4752 77.0553C53.0651 77.8124 52.4628 78.5194 51.9183 79.1876C51.4031 79.8199 50.9683 80.6524 50.336 81.1676C48.4336 82.7177 45.9151 83.5493 44.1845 85.2799" stroke="white" stroke-linecap="round"/>
<path d="M40.9861 105.232C41.9484 103.208 43.8262 101.902 44.9461 99.9776C45.8695 98.3904 46.9708 96.6787 48.263 95.3661C49.3734 94.238 50.1381 93.3611 51.6391 92.8107C52.0449 92.6619 52.3687 92.3763 52.7476 92.2015C53.2936 91.9494 52.5192 94.0948 52.4768 94.1984C50.6666 98.6154 46.7661 102.493 42.2045 104.014" stroke="white" stroke-linecap="round"/>
<path d="M49.6676 113.152C46.5669 115.716 43.0715 117.887 40.2414 120.751C39.1441 121.861 38.198 123.032 37.483 124.423C37.1199 125.129 36.5091 125.599 37.7622 125.083C38.9999 124.573 40.229 124.019 41.3499 123.281C42.0788 122.801 42.6827 122.152 43.423 121.69C44.8571 120.793 46.2154 119.753 47.6283 118.864C48.6387 118.227 48.91 117.12 49.4476 116.122C49.6239 115.795 49.8432 115.509 50.0399 115.2C50.4345 114.58 48.6907 115.366 48.5168 115.521C47.5643 116.372 46.6699 117.603 45.606 118.28C44.295 119.114 43.1037 120.385 42.0184 121.495C41.0269 122.509 39.9662 123.952 39.5815 125.337C39.3866 126.038 39.2547 126.555 38.9299 127.24C38.7423 127.636 38.5827 127.774 39.1161 127.774C40.1877 127.774 41.1499 127.391 42.1368 127.004C43.8152 126.345 45.7135 125.259 46.926 123.881C47.9976 122.664 49.0022 121.056 49.7437 119.617C50.1103 118.905 50.4965 118.233 50.8183 117.501C50.9611 117.177 51.1346 116.559 51.3429 116.351" stroke="white" stroke-linecap="round"/>
<path d="M31.543 133.104C30.415 130.796 29.6133 128.345 28.6153 125.98C27.8202 124.095 27.798 121.936 27.6169 119.921C27.5324 118.982 27.583 118.022 27.583 117.078C27.583 116.328 27.8123 115.896 28.59 116.444C30.7422 117.958 31.5532 120.316 32.5246 122.612C33.3975 124.675 32.9138 126.868 32.9138 128.992" stroke="white" stroke-linecap="round"/>
<path d="M26.8215 157.626C25.7355 155.227 24.9261 152.819 24.0969 150.332C23.7439 149.273 23.4029 148.208 22.9292 147.193C22.2971 145.838 22.0095 144.407 21.5585 142.987C21.4159 142.539 20.351 136.586 20.7292 136.607C21.1777 136.632 21.7082 137.785 21.9477 138.114C22.6885 139.129 23.5156 140.174 24.1477 141.261C24.9845 142.701 25.5648 144.269 26.3984 145.712C27.3581 147.373 27.7353 149.506 27.7353 151.415C27.7353 152.267 27.5881 152.915 27.4392 153.734C27.3851 154.031 26.7997 155.063 26.5169 154.512C25.6529 152.829 25.2494 150.903 24.4777 149.181C23.6933 147.431 23.0629 145.674 22.8277 143.766C22.6815 142.58 22.7092 141.397 22.7092 140.204C22.7092 140.178 22.877 140.581 22.8869 140.601C23.1395 141.107 23.4157 141.588 23.6231 142.116C24.2274 143.654 24.7155 145.142 25.1123 146.744C25.5692 148.59 26.06 150.236 26.06 152.143" stroke="white" stroke-linecap="round"/>
<path d="M31.2385 149.858C32.527 148.264 33.528 146.476 34.8177 144.9C35.8802 143.601 36.9269 142.471 38.1684 141.321C39.1732 140.389 40.0573 139.393 41.3923 138.926C42.7256 138.459 44.0671 138.286 45.2845 137.555C45.4766 137.44 46.2686 136.768 46.3084 137.284C46.4532 139.167 46.116 141.145 45.0053 142.708C43.792 144.416 41.9705 145.564 40.1315 146.499C38.4867 147.335 36.5483 147.665 34.9784 148.64C34.5034 148.935 33.3546 150.03 33.54 149.503C33.9194 148.423 35.1981 147.482 36.0277 146.778C37.1633 145.815 38.3077 144.858 39.463 143.918C40.6281 142.971 41.7633 142.003 42.9661 141.101C44.1528 140.21 45.5477 139.583 46.6976 138.655C47.4362 138.06 48.1417 137.561 48.9061 137.031C50.2092 136.126 49.2904 138.387 48.9907 138.892C48.1481 140.312 46.8484 141.254 45.7076 142.395C45.3722 142.731 45.1214 143.023 44.9461 143.461" stroke="white" stroke-linecap="round"/>
<path d="M34.1322 110.715C32.9161 108.689 31.862 106.686 30.8492 104.555C29.7049 102.148 28.9921 99.7754 28.3446 97.1854C28.1237 96.302 26.6006 89.697 28.4207 89.697C29.1196 89.697 29.6157 89.8885 30.1723 90.3401C31.2078 91.1803 32.4518 92.0763 33.2523 93.1493C35.0728 95.5896 36.8243 99.0352 36.8738 102.152C36.8878 103.037 36.7752 103.811 36.0361 104.386C35.7705 104.593 35.0414 104.802 34.8176 104.454C34.2273 103.536 33.91 102.561 33.4553 101.568C32.9803 100.532 32.3797 99.5244 32.1523 98.387C31.9424 97.3376 31.9671 94.7924 33.1846 96.8216C34.0961 98.3408 35.2243 100.005 35.6553 101.729" stroke="white" stroke-linecap="round"/>
<path d="M40.3769 84.8231C40.0084 83.2467 39.3462 81.8935 38.7354 80.4062C38.1992 79.1007 38.0907 77.8045 37.7792 76.4547C37.3833 74.7392 37.055 72.7554 37.0261 70.997C37.017 70.4395 37.2025 69.1934 38.0161 70.007C39.206 71.1969 40.352 73.4195 40.6815 75.067C40.8681 76 41.2907 77.0189 41.2907 77.9693C41.2907 78.4665 40.8482 78.7043 40.5292 78.2485C39.5872 76.9028 39.6154 75.5549 39.6154 74.0093" stroke="white" stroke-linecap="round"/>
<path d="M75.2551 130.058C75.2551 127.063 75.3513 124.237 75.7882 121.275C76.0918 119.217 76.2892 117.116 77.049 115.166C77.7247 113.432 78.526 111.771 79.1559 110.022C79.6843 108.554 80.4156 107.199 81.1866 105.85C81.6189 105.094 81.9403 104.182 82.5659 103.557C82.8028 103.32 82.8705 103.25 82.8705 103.582C82.8705 104.624 82.9261 105.683 82.8366 106.722C82.7188 108.088 82.2133 109.379 82.0751 110.749C81.9166 112.321 81.5571 113.906 80.9666 115.369C80.1572 117.375 79.6065 119.463 78.9866 121.529C78.5295 123.053 77.7879 124.462 77.2351 125.946C77.116 126.266 76.2308 127.933 76.1351 127.215C75.79 124.627 76.1374 121.769 76.7867 119.253C77.1361 117.899 77.6322 116.561 78.1151 115.251C78.5612 114.04 78.8069 112.777 79.4436 111.638C80.3471 110.021 80.8377 108.25 81.5336 106.552C81.7377 106.054 81.9566 105.404 81.9566 106.341C81.9566 107.645 82.2231 108.932 82.3797 110.225C82.8724 114.29 80.8813 118.002 79.2997 121.597C78.9092 122.484 78.369 123.424 78.0305 124.305C77.7695 124.983 77.3122 125.562 77.0828 126.251" stroke="white" stroke-linecap="round"/>
<path d="M77.235 126.708C78.3739 125.728 79.8146 124.316 80.5181 122.968C80.9322 122.174 81.1214 121.332 81.4996 120.531C82.5823 118.238 82.5817 115.471 82.7266 113.008C82.806 111.657 82.7701 110.237 82.9466 108.896C83.0815 107.871 83.3273 106.782 83.3273 105.748C83.3273 105.145 83.3273 104.541 83.3273 103.938C83.3273 103.179 82.7064 102.198 82.5658 101.425" stroke="white" stroke-linecap="round"/>
<path d="M88.8105 115.741C90.7775 113.774 93.0518 113.225 95.5796 112.315C97.1095 111.764 98.6321 111.17 100.267 110.986C102.093 110.781 104.03 110.715 105.869 110.715C106.762 110.715 107.432 110.74 108.12 111.358C109.089 112.231 109.188 113.133 108.12 114.185C107.287 115.004 106.282 115.441 105.26 115.961C103.87 116.67 102.666 117.294 101.147 117.721C98.4166 118.489 95.6177 119.072 92.8381 119.634C91.8173 119.84 89.9708 120.254 89.0389 119.608C88.5248 119.252 87.7909 118.731 87.8966 118.026C88.0262 117.162 89.9194 116.641 90.5366 116.385C91.7255 115.891 92.9496 115.515 94.1497 115.056C96.14 114.295 98.3303 113.354 100.453 113.118C101.449 113.008 102.945 112.567 103.957 112.856C104.195 112.924 104.193 113.442 104.193 113.618C104.193 114.645 103.324 115.026 102.535 115.505C100.629 116.661 98.8566 117.379 96.7304 118.026C95.7962 118.31 94.8342 118.94 93.8366 118.94" stroke="white" stroke-linecap="round"/>
<path d="M95.9689 103.709C95.9526 103.801 95.5601 105.235 95.5458 105.215C95.4404 105.075 95.5073 104.453 95.5035 104.335C95.4725 103.39 95.388 102.447 95.3681 101.501C95.2984 98.1909 95.5565 95.0027 96.265 91.7701C96.5693 90.3818 96.7721 89.0231 97.4073 87.734C97.8334 86.8693 98.3937 86.0871 98.8881 85.2632C99.4702 84.293 100.33 83.5573 101.08 82.7248C101.731 82.0012 102.344 81.1762 103.187 80.6602C103.81 80.2778 104.466 79.6293 105.107 80.2709C105.758 80.9219 105.858 82.2385 105.953 83.0971C106.139 84.7646 106.097 86.5741 105.928 88.2417C105.565 91.8362 103.515 94.9776 102.07 98.2093C101.071 100.441 100.074 102.54 98.8796 104.674C98.7804 104.851 98.1411 105.91 98.1011 105.283C98.0124 103.893 97.4311 102.553 97.2042 101.179C96.8792 99.211 96.827 97.2302 97.035 95.2478C97.2746 92.9642 98.0365 90.7473 98.9811 88.6647C99.6391 87.2142 100.372 85.4507 101.757 84.5186C102.996 83.684 102.841 84.454 102.823 85.7201C102.782 88.5622 101.895 91.5683 100.843 94.1986C100.178 95.8599 100.399 97.7106 99.7427 99.3262C99.5614 99.7723 99.1073 101.226 98.7104 101.425" stroke="white" stroke-linecap="round"/>
<path d="M106.63 99.4446C108.012 98.3948 109.522 97.7446 111.115 97.0754C112.537 96.4782 113.78 95.6445 115.126 94.9093C117.207 93.7723 119.245 92.4484 121.446 91.5501C122.72 91.0301 124.005 91.0144 125.364 91.0762C126.025 91.1063 126.672 91.2201 127.336 91.2201C127.628 91.2201 128.134 91.1231 128.41 91.2539C128.907 91.4891 129.324 91.837 129.442 92.4047C129.541 92.8773 129.861 93.4078 129.772 93.8939C129.686 94.3685 129.087 94.5884 128.706 94.7485C126.678 95.6025 124.519 96.0714 122.453 96.8216C120.401 97.5671 118.327 98.1729 116.226 98.7508C113.239 99.5722 110.409 99.597 107.341 99.597C107.108 99.597 106.048 99.4617 106.816 99.4446C109.029 99.3955 111.243 99.3366 113.459 99.2839C116.534 99.2107 118.905 97.7898 121.184 95.8231C122.475 94.7087 124.602 93.418 124.602 91.5247" stroke="white" stroke-linecap="round"/>
<path d="M116.987 85.4324C116.908 80.8329 116.549 76.224 118.29 71.8348C119.616 68.4954 121.337 65.6687 123.596 62.8995C124.088 62.2955 126.094 59.6253 126.82 61.3172C128.27 64.7016 128.646 68.5262 127.26 72.0379C126.341 74.3651 125.288 76.6408 124.264 78.9171C123.469 80.6845 122.518 81.9749 120.676 82.8094C119.974 83.1276 119.37 83.4524 118.595 83.4524C117.76 83.4524 118.053 81.0035 118.053 80.4401C118.053 78.341 118.221 75.7091 119.136 73.781C120.092 71.7685 121.034 69.6922 122.081 67.731C122.804 66.3771 123.791 65.4239 124.873 64.3802C125.059 64.2008 125.085 64.1507 125.043 64.4902C124.837 66.135 124.171 67.7206 123.52 69.2287C121.899 72.981 120.606 76.803 118.815 80.4655C118.419 81.2761 118.05 82.3136 117.444 82.9955C117.414 83.0297 118.563 81.32 118.891 80.8717C121.02 77.9642 122.196 74.5732 123.147 71.1156C123.848 68.5674 124.976 66.2036 126.21 63.8725C126.335 63.6372 126.834 63.0212 126.879 63.6272C127.065 66.1402 126.191 68.7115 125.483 71.0817C124.529 74.2729 123.449 77.4178 122.081 80.4571C121.481 81.7908 120.515 82.7391 119.661 83.9009C119.277 84.4236 119.042 84.9257 118.51 85.2801" stroke="white" stroke-linecap="round"/>
<path d="M126.583 79.0356C128.457 77.6543 130.78 76.7043 132.912 75.7694C135.042 74.8349 137.514 74.2546 139.766 73.671C141.455 73.2329 143.049 73.1717 144.783 73.0871C145.282 73.0628 147.384 72.134 146.772 73.2141C145.794 74.9389 143.657 75.8206 141.966 76.6663C139.504 77.8969 136.752 78.8075 134.079 79.4586C131.784 80.0179 129.413 80.5586 127.039 80.5586" stroke="white" stroke-linecap="round"/>
<path d="M137.701 64.1095C137.754 60.6701 138.832 57.721 139.918 54.5057C140.79 51.9252 141.942 49.119 143.785 47.0596C144.922 45.7885 146.264 44.8321 147.66 43.8612C148.814 43.0586 148.65 44.4487 148.65 45.435C148.65 50.4868 146.28 55.5537 144.284 60.1157C143.752 61.3319 142.886 62.2089 141.999 63.1957C141.586 63.6562 140.832 64.8711 140.138 64.8711" stroke="white" stroke-linecap="round"/>
<path d="M136.482 65.1756C138.274 63.3004 139.278 60.8302 140.493 58.5756C141.435 56.8285 142.5 55.1532 143.455 53.4141C144.735 51.0814 146 48.6548 146.839 46.1372" stroke="white" stroke-linecap="round"/>
<path d="M146.078 61.9771C147.797 59.636 150.155 58.1084 152.881 57.1118C155.485 56.1599 158.052 55.0227 160.708 54.218C161.904 53.8555 163.063 53.2957 164.321 53.2957C165.115 53.2957 164.964 53.8425 164.964 54.548C164.964 55.729 164.807 56.8623 163.796 57.6279C161.82 59.1253 158.943 59.3753 156.612 59.8533C153.905 60.4087 151.167 61.5202 148.362 61.5202" stroke="white" stroke-linecap="round"/>
<path d="M157.806 49.3356C157.405 47.5593 156.963 45.8586 157.163 44.0387C157.292 42.8583 157.72 41.8045 157.966 40.6541C158.419 38.5406 159.431 36.7773 160.386 34.8665C161.175 33.2893 162.408 32.278 163.779 31.2111C164.474 30.6709 165.284 30.244 166.022 29.7642C166.492 29.4588 167.161 28.7956 167.739 28.7742C168.382 28.7504 168.16 29.2789 168.01 29.7557C167.674 30.824 167.359 31.8955 167.02 32.9627C166.411 34.8854 165.982 36.8646 165.269 38.7503C164.624 40.4552 164.132 42.1846 163.136 43.7341C162.766 44.31 162.385 45.3707 161.766 45.6803" stroke="white" stroke-linecap="round"/>
<path d="M167.401 42.4817C169.373 42.0324 171.174 41.4992 173.18 41.2632C174.182 41.1453 175.168 40.654 176.15 40.654C177.462 40.654 178.735 40.5017 180.042 40.5017C180.786 40.5017 181.778 40.632 182.479 40.8825C182.913 41.0374 183.224 41.1186 183.621 41.3394C184.246 41.6861 183.765 42.4086 183.452 42.9386C182.447 44.6393 179.403 45.2608 177.639 45.7648C176.034 46.2232 174.321 46.1547 172.672 46.2894C171.648 46.373 170.678 46.778 169.668 46.8901C168.338 47.038 166.913 46.8986 165.573 46.8986C164.772 46.8986 164.156 46.8686 163.407 46.6278C163.052 46.5139 162.444 46.2894 162.07 46.2894" stroke="white" stroke-linecap="round"/>
<path d="M177.758 32.5818C175.185 30.9279 175.538 26.5428 176.268 23.985C176.791 22.1553 177.665 20.7853 178.9 19.3396C180.096 17.9394 181.415 16.403 183.173 15.7096C183.603 15.54 184.967 14.8042 185.441 14.9396C186.186 15.1526 185.982 18.4976 185.982 19.0604C185.982 21.4703 186.534 24.6936 184.908 26.7265C183.928 27.9509 182.328 28.7609 180.965 29.4426C180.758 29.5461 180.956 28.9801 180.956 28.7488C180.956 28.0072 180.947 27.2649 180.956 26.5234C180.974 25.0443 181.552 23.7229 182.098 22.3773C182.353 21.7504 182.869 20.5419 183.579 20.2788C184.405 19.973 184.154 21.6073 184.154 22.005C184.154 22.8663 184.041 24.0186 183.664 24.8142C183.518 25.1221 183.241 25.5546 183.241 25.8803" stroke="white" stroke-linecap="round"/>
<path d="M186.439 28.3172C188.05 27.2433 189.553 27.1615 191.448 27.0649C192.438 27.0145 193.421 26.8152 194.41 26.7942C194.829 26.7852 195.494 26.6901 195.848 26.9803C196.683 27.6633 195.061 28.979 194.596 29.3495C193.34 30.3498 191.5 30.8572 189.976 31.2449C188.554 31.6067 187.127 32.1055 185.728 32.548C183.934 33.1159 181.91 33.0387 180.042 33.0387" stroke="white" stroke-linecap="round"/>
<path d="M193.75 21.4635C194.147 18.2549 195.364 14.7319 196.948 11.902C197.489 10.9375 198.188 9.97468 199.013 9.24513C199.379 8.92123 199.581 8.4655 200.071 8.35667C200.512 8.25852 200.477 8.38258 200.443 8.91513C200.356 10.2669 199.627 11.5448 199.182 12.799C198.672 14.2369 198.077 15.7027 197.405 17.0466" stroke="white" stroke-linecap="round"/>
<path d="M198.624 18.1128C200.24 17.4587 202.022 17.5131 203.751 17.5036C205.091 17.4962 206.279 17.5091 207.576 17.7744C207.672 17.7941 208.459 17.7424 208.337 17.9605C207.752 19.015 205.568 19.3373 204.581 19.8559C202.768 20.8077 201.085 21.3311 199.081 21.692C197.04 22.0594 195.053 22.0728 192.988 22.0728" stroke="white" stroke-linecap="round"/>
<path d="M209.133 8.82203C211.022 6.30289 213.477 3.79098 216.452 2.6536C216.788 2.52523 221.902 0.913944 221.918 1.00361C222.598 4.74157 218.903 6.96255 215.987 8.02665C214.633 8.52044 213.179 8.81314 211.874 9.43125C211.58 9.57071 210.617 9.81395 210.504 10.0405" stroke="white" stroke-linecap="round"/>
<path d="M39.4664 194.242C39.4664 192.646 39.2621 190.951 39.8971 189.448C40.7885 187.338 42.105 185.443 43.2968 183.498C44.3348 181.804 45.4163 180.063 46.5832 178.455C47.6035 177.05 48.822 175.557 50.4193 174.778C50.5924 174.694 51.3412 174.198 51.5468 174.257C51.9549 174.373 51.8075 176.841 51.8075 177.147C51.8075 178.659 51.3672 179.981 50.8386 181.391C50.3962 182.57 50.0964 183.785 49.5863 184.938C49.0075 186.245 47.7008 187.204 46.6852 188.145C45.9423 188.833 44.7452 189.392 43.7954 189.709C43.3921 189.843 42.9083 190.194 43.0928 189.624C43.6041 188.043 44.5383 186.561 45.467 185.193C46.1738 184.151 47.1007 183.523 48.1301 182.824C48.6346 182.482 49.1411 182.111 49.6996 181.861C50.1675 181.651 50.1671 181.679 50.5836 182.003" stroke="white" stroke-linecap="round"/>
<path d="M48.9517 187.204C49.8388 187.023 50.6637 186.62 51.5015 186.286C52.5344 185.875 53.6257 185.878 54.7199 185.799C55.4457 185.747 56.1797 185.776 56.907 185.776C57.4413 185.776 58.0714 185.688 58.5899 185.838C59.2699 186.036 59.957 186.42 60.6127 186.694C61.1357 186.913 61.7019 187.084 62.2106 187.329C62.7773 187.602 63.35 187.769 63.8935 188.071C64.0014 188.131 64.2391 188.105 64.2391 188.281C64.2391 188.617 63.9817 189.009 63.8425 189.295C63.1583 190.701 61.9423 191.461 60.4541 191.816C58.8607 192.197 57.4325 192.713 55.7795 192.814C54.0637 192.918 52.3483 192.939 50.6289 192.916C49.7548 192.903 48.9459 192.508 48.0564 192.508C47.2585 192.508 46.6161 192.578 45.9372 192.207C45.006 191.699 46.377 190.675 46.8438 190.286C48.8294 188.632 51.0789 188.213 53.615 187.873C54.8162 187.712 56.0048 187.714 57.213 187.714C57.557 187.714 57.7948 188.154 57.9043 188.428C58.4727 189.849 55.1478 189.983 54.5442 190.06C53.3515 190.212 52.1695 190.264 50.9688 190.264C50.7485 190.264 50.7875 190.142 50.7875 189.958" stroke="white" stroke-linecap="round"/>
<path d="M61.0887 179.657C60.986 177.706 61.9495 176.093 63.2305 174.682C65.0664 172.659 67.1215 170.966 69.3274 169.356C71.2282 167.968 73.2964 166.727 75.3222 165.525C75.844 165.216 76.8696 164.358 77.5094 164.358C77.8774 164.358 77.8653 165.987 77.7927 166.216C77.3695 167.554 76.4685 168.552 75.4129 169.435C74.6916 170.038 73.9423 170.606 73.2257 171.214C72.8377 171.544 72.5242 171.931 72.1038 172.211" stroke="white" stroke-linecap="round"/>
<path d="M72.1038 175.373C74.1221 175.187 76.1648 175.271 78.1893 175.271C79.1151 175.271 80.0727 175.201 80.9941 175.322C81.8368 175.433 82.6671 175.383 83.5043 175.577C84.2097 175.74 84.8275 176.141 85.4534 176.489C86.2067 176.908 87.1247 177.487 87.5443 178.28C87.6094 178.403 87.7188 178.851 87.5839 178.943C86.845 179.444 85.8173 179.806 84.9888 180.116C80.5101 181.788 76.1558 180.817 71.6959 179.657C69.8359 179.173 67.9432 178.352 66.5963 177.005" stroke="white" stroke-linecap="round"/>
<path d="M68.3301 177.413C68.9338 177.629 69.5008 177.933 70.115 178.121C71.602 178.576 73.2157 178.684 74.7613 178.727C75.808 178.757 77.3965 178.996 78.4273 178.575C79.0331 178.327 79.5217 177.478 79.9346 177.005C80.0838 176.834 80.9939 176.025 80.5692 175.883" stroke="white" stroke-linecap="round"/>
<path d="M83.6289 168.846C86.3552 166.744 89.4175 165.309 92.6269 164.131C95.0812 163.231 97.5477 162.169 100.072 161.525C100.721 161.359 101.447 161.453 102.067 161.275C102.456 161.164 102.246 161.485 102.067 161.706C101.658 162.212 101.258 162.698 100.866 163.213C100.712 163.415 100.621 163.746 100.356 163.746" stroke="white" stroke-linecap="round"/>
<path d="M84.0369 169.152C85.7853 169.491 87.4258 170.181 89.1592 170.557C90.153 170.772 91.2271 170.793 92.2416 170.784C94.4292 170.763 96.8333 169.923 98.7181 168.846C99.5876 168.349 100.541 168.04 101.41 167.542C101.941 167.238 102.4 166.771 102.849 166.358C102.973 166.244 104.035 165.48 103.517 165.48" stroke="white" stroke-linecap="round"/>
<path d="M98.6217 164.664C98.2085 166.179 95.8965 166.675 94.5874 167.112C93.1049 167.606 91.6081 167.912 90.1111 168.33C89.1636 168.595 88.0351 168.438 87.057 168.438C86.5794 168.438 85.9268 168.282 85.5668 168.642" stroke="white" stroke-linecap="round"/>
</svg>
