<svg width="192" height="403" viewBox="0 0 192 403" fill="none" xmlns="http://www.w3.org/2000/svg">
<path d="M247.878 167.067C242.521 177.594 235.558 195.121 231.69 214.122M235.647 273.382C231.318 264.946 229.293 255.252 228.863 245.135M22.7714 86.7099C18.9688 84.4219 13.8909 80.5555 23.9993 83.3945C34.1077 86.2335 49.2089 99.1408 55.4959 105.24C46.7571 96.599 30.3355 78.5023 34.5596 75.2409M25.4973 105.817C19.0875 103.443 11.1133 99.6597 30.4951 103.52C49.8769 107.381 60.1907 109.869 62.9249 110.63M80.2758 72.9448C80.1089 79.3243 81.7168 92.0313 87.4499 107.616M107.008 144.301C101.87 137.132 97.6604 130.029 94.2285 123.21M66.1913 79.416L60.8866 77.4513L87.4499 107.616M87.4499 107.616C89.2691 112.561 91.5036 117.796 94.2285 123.21M102.575 81.9579C97.46 90.9111 88.6294 111.696 94.2285 123.21M62.9125 158.508C67.6442 155.233 78.7211 148.603 85.1751 148.279C79.7034 145.951 68.8313 135.062 64.0791 129.909M144.313 118.907L158.925 150.71M138.419 134.821C143.695 139.917 155.283 152.604 159.429 162.585M180.292 133.74L158.766 141.98M190.729 156.457C179.817 159.453 158.316 167.828 159.613 177.357M217.866 215.521C221.984 221.883 229.949 236.712 228.863 245.135M228.863 245.135C228.704 241.392 228.763 237.591 229.004 233.774M225.627 190.496C228.081 195.971 232.729 208.362 231.69 214.122M231.69 214.122C230.376 220.575 229.42 227.198 229.004 233.774M249.867 208.522C243.723 211.518 230.949 220.763 229.004 233.774M160.816 249.437C164.913 256.358 176.006 270.521 187.598 271.798M200.196 256.105C203.225 261.499 210.567 272.689 215.705 274.291M201.67 272.485C189.722 275.224 166.052 283.348 166.956 293.938M118.784 221.428C127.826 216.356 147.857 206.859 155.647 209.443M109.427 179.506C112.654 186.13 122.199 200.357 134.563 204.273" stroke="white"/>
<path d="M140.567 266.444C155.139 267.819 190.658 271.272 216.159 274.082C241.661 276.891 255.11 293.786 258.646 301.883" stroke="white"/>
<path d="M54.4153 104.085C72.1578 117.186 96.6557 136.623 123.369 159.894M282.431 340.477C263.227 304.139 231.207 265.104 196.187 228.784M123.369 159.894C98.8288 152.277 48.9239 137.643 45.6232 140.04M123.369 159.894C136.417 171.261 149.994 183.543 163.57 196.448M163.57 196.448C160.81 188.545 156.258 162.391 160.129 120.994M163.57 196.448C174.536 206.872 185.501 217.701 196.187 228.784M86.2803 196.193C113.36 198.425 173.253 208.067 196.187 228.784" stroke="white"/>
<path d="M45.4341 140.003C44.7582 140.141 44.0315 140.06 43.3479 140.154C42.4399 140.277 41.5307 140.489 40.621 140.566C39.6376 140.649 38.6174 140.897 37.6306 140.864C36.6178 140.831 35.6028 140.74 34.5927 140.692C33.4857 140.639 32.5439 140.136 31.5967 139.598C30.7352 139.108 29.7553 138.933 28.8991 138.428C27.3784 137.533 25.8731 136.8 25.1033 135.124C24.7073 134.262 24.6841 133.529 25.4743 132.906C26.1921 132.34 27.282 131.781 28.2012 131.738C29.6481 131.67 31.2186 131.49 32.6192 131.981C34.5667 132.664 36.3998 133.391 38.0131 134.706C39.1932 135.668 40.3292 136.648 41.5567 137.553C42.318 138.114 42.858 138.628 43.7696 138.945C45.4726 139.538 47.1531 140.094 48.9691 140.154" stroke="white" stroke-linecap="round"/>
<path d="M73.3032 133.876C71.8232 133.605 70.3141 133.441 68.8627 133.042C67.6811 132.718 66.4066 132.483 65.1919 132.32C64.0165 132.162 62.8731 131.975 61.7106 131.754C60.2417 131.476 58.952 130.935 57.601 130.322C56.0117 129.601 54.3634 128.713 53.5963 127.044C53.4366 126.696 53.0552 126.22 53.4126 125.898C53.8324 125.519 54.4137 125.278 54.9367 125.075C55.4227 124.887 55.9534 124.961 56.4622 124.961C57.0803 124.962 57.6928 124.917 58.31 124.976C59.7781 125.117 61.144 125.423 62.5633 125.812C63.8619 126.167 65.2416 126.673 66.3671 127.426C67.1661 127.961 67.899 128.577 68.6506 129.167C69.7927 130.063 70.7702 131.176 71.8088 132.177C72.3709 132.719 72.7619 133.37 73.1957 134.01" stroke="white" stroke-linecap="round"/>
<path d="M68.2101 153.883C68.1296 154.719 68.1672 155.557 67.9179 156.374C67.619 157.355 67.1012 158.176 66.4799 158.989C65.496 160.276 64.0173 161.232 62.6894 162.125C61.1611 163.152 59.4275 163.851 57.7521 164.605C56.3954 165.215 55.043 165.132 53.6266 165.336C53.4082 165.367 53.2301 165.546 53.0167 165.592C52.8902 165.62 53.1124 165.01 53.1409 164.953C53.3109 164.614 53.5033 164.274 53.6859 163.942C54.0122 163.348 54.5176 162.744 55.0248 162.307C55.653 161.766 56.2338 161.052 56.7525 160.405C57.2576 159.776 57.6228 159.162 57.9856 158.449C58.3874 157.659 59.0262 156.967 59.6046 156.31C60.0016 155.859 60.5103 155.618 61.0363 155.338C61.8645 154.896 62.6783 154.432 63.5093 153.995C64.4314 153.51 65.4635 152.799 66.5453 152.835C67.3573 152.862 68.2362 153.388 68.5798 154.135" stroke="white" stroke-linecap="round"/>
<path d="M35.2686 105.367C34.0071 105.118 32.6277 105.237 31.3789 105.548C30.5519 105.754 29.7764 106.2 29.0049 106.554C28.3308 106.864 27.6557 107.241 26.9332 107.422C25.7318 107.722 24.3859 107.732 23.1526 107.769C21.2545 107.825 19.5853 106.917 17.9707 106.026C16.3565 105.136 14.82 103.617 13.6575 102.199C12.8109 101.167 12.3029 99.8194 12.4918 98.466C12.6556 97.2915 14.1918 96.5391 15.1789 96.1889C18.1022 95.1517 21.1418 95.9648 23.9637 96.952C25.1751 97.3758 26.2891 98.0615 27.4406 98.6324C28.5596 99.187 29.6017 99.8386 30.615 100.574C31.7116 101.37 32.8532 102.191 33.8222 103.139C34.3717 103.676 34.8311 104.318 35.4619 104.776C35.8559 105.062 36.0804 105.375 36.5116 105.599C36.8232 105.761 37.1839 105.797 37.4903 105.971C37.7009 106.091 38.0708 106.157 38.3132 106.147C38.6337 106.135 38.9639 106.294 39.2704 106.36C40.5585 106.638 41.7647 106.245 42.9876 105.793" stroke="white" stroke-linecap="round"/>
<path d="M31.2053 87.8768C30.1427 88.7687 28.8654 89.335 27.5938 89.8695C26.2881 90.4184 24.7646 90.7264 23.3968 90.2811C22.1575 89.8776 20.9515 88.8268 19.8909 88.0881C18.5723 87.1696 17.2787 86.2051 15.8776 85.4143C14.9784 84.9068 14.0687 84.4249 13.2102 83.8504C12.3065 83.2457 11.0493 82.7008 10.3746 81.8285C9.58111 80.8026 9.09461 79.8208 9.71018 78.5835C10.2735 77.4512 11.4785 76.5692 12.7313 76.3689C14.0712 76.1547 15.6862 76.1396 16.9803 76.5816C18.799 77.2026 20.9307 77.2535 22.611 78.2069C23.7299 78.8417 24.7971 79.6714 25.8113 80.4605C26.5864 81.0635 27.3286 81.6214 28.0201 82.3243C28.9091 83.2279 29.885 84.0151 30.7012 84.9808C31.2214 85.5963 31.9622 86.3086 32.0541 87.1487" stroke="white" stroke-linecap="round"/>
<path d="M33.7294 76.9961C32.75 75.6575 31.1214 74.87 30.0867 73.5651C29.5163 72.8458 29.0025 72.0598 28.5239 71.2777C27.6344 69.8243 26.8491 68.1542 28.8306 67.2437C29.6506 66.867 30.3283 66.4899 31.2533 66.5579C32.3079 66.6356 33.3766 67.0539 34.2728 67.5797C35.5078 68.3045 36.7028 69.0433 37.6717 70.1224C38.6213 71.1801 39.1528 72.435 39.9421 73.5922C40.4085 74.276 40.8618 75.0419 41.208 75.7954C41.5167 76.4674 41.9799 77.191 42.0078 77.945C42.0307 78.5645 42.0003 79.1131 41.8355 79.6959C41.6569 80.3276 41.1024 80.9122 40.6316 81.348C39.8892 82.0349 38.7713 82.0074 37.8831 82.3572C37.6648 82.4432 37.3741 82.324 37.272 82.1308C37.0845 81.7761 36.4322 81.5607 36.093 81.4046" stroke="white" stroke-linecap="round"/>
<path d="M68.4006 86.594C67.8061 86.7259 67.4255 86.5203 66.9343 86.1829C65.9658 85.5176 65.0304 84.7793 64.1001 84.0617C63.2448 83.402 62.3678 82.7657 61.5201 82.1054C60.9022 81.6242 60.2629 81.0029 59.8463 80.3433C59.3022 79.4815 58.5973 78.7466 58.1229 77.829C57.6058 76.8288 57.4999 75.8736 57.4335 74.7646C57.3952 74.1251 57.2601 73.51 57.4117 72.8774C57.5023 72.4994 58.3158 72.1063 58.6156 71.9204C59.4247 71.4187 60.2205 71.5893 61.0993 71.8171C62.1195 72.0815 62.9501 72.7177 63.7874 73.334C64.9856 74.2159 66.069 75.1708 67.1631 76.1738C68.7391 77.6184 70.2556 79.3509 71.1331 81.3187C72.1492 83.5975 71.4331 85.9062 69.5418 87.4222" stroke="white" stroke-linecap="round"/>
<path d="M81.0336 83.9174C79.2924 82.7451 78.6087 80.8993 77.5625 79.1631C76.9249 78.1049 76.2284 77.1384 75.7112 76.0127C75.0445 74.5616 74.1009 72.9578 74.0672 71.3206C74.055 70.7265 74.3889 70.117 74.5683 69.5594C74.8009 68.8364 75.3279 68.0413 75.9944 67.655C76.8277 67.1721 77.5425 66.9739 78.4991 67.0865C79.6356 67.2203 80.5566 67.8201 81.4189 68.5251C82.7522 69.6152 83.5383 71.1782 83.7125 72.914C83.8141 73.9265 83.7616 74.9615 83.8888 75.9653C84.0062 76.8927 84.0832 77.9271 83.9443 78.8561C83.8348 79.5886 83.7379 80.3692 83.4801 81.0652C83.1439 81.9727 82.3417 82.5385 81.75 83.2689C81.3173 83.8031 81.0321 84.5229 80.6186 85.0379" stroke="white" stroke-linecap="round"/>
<path d="M95.9303 97.0219C95.2184 95.8381 94.6535 94.6024 94.5223 93.2217C94.396 91.8923 94.5031 90.6639 94.6178 89.3411C94.7065 88.3177 94.5758 87.3704 94.8932 86.3734C95.3126 85.056 95.8017 83.7254 96.4172 82.4846C96.9549 81.4005 97.9766 80.5543 98.9035 79.8113C99.609 79.2458 100.187 78.6674 101.016 78.2866C103.044 77.3547 105.585 78.3162 106.509 80.3274C107.04 81.4843 106.674 83.0338 106.472 84.2328C106.24 85.6078 106.225 87.0301 105.618 88.3023C105.153 89.2753 104.588 90.148 104.069 91.0847C103.655 91.8328 103.046 92.4808 102.33 92.9406C101.07 93.7485 99.9344 94.7432 98.6227 95.4514C97.6883 95.956 96.7306 96.4007 95.7643 96.8446" stroke="white" stroke-linecap="round"/>
<path d="M146.14 143.013C144.26 142.268 142.237 142.014 140.355 141.238C139.07 140.707 137.821 140.281 136.492 139.871C134.67 139.31 132.942 138.391 131.581 137.042C130.607 136.077 129.488 135.045 128.731 133.895C127.423 131.908 127.934 128.913 129.925 127.593C131.957 126.246 134.785 126.939 136.824 127.889C137.894 128.388 138.86 129.122 139.689 129.954C140.603 130.872 141.613 131.708 142.331 132.802C142.955 133.755 143.385 134.811 143.859 135.843C144.331 136.87 144.903 137.897 145.251 138.974C145.625 140.13 146.081 141.239 146.312 142.427C146.364 142.697 146.56 142.99 146.464 143.249C146.41 143.394 146.533 143.686 146.594 143.819" stroke="white" stroke-linecap="round"/>
<path d="M146.926 125.408C144.247 123.339 141.419 121.451 138.828 119.272C137.876 118.471 137.21 117.489 136.634 116.396C135.989 115.174 135.494 114.193 135.511 112.789C135.536 110.759 136.861 109.218 138.763 108.665C139.496 108.452 140.344 108.62 141.056 108.851C142.51 109.322 143.914 110.243 145.144 111.124C146.859 112.353 148.35 114.052 148.943 116.122C149.231 117.128 149.239 118.337 149.16 119.375C149.102 120.149 149.133 120.95 149.033 121.716C148.862 123.035 148.847 124.417 148.773 125.748C148.729 126.525 148.559 127.49 148.895 128.222" stroke="white" stroke-linecap="round"/>
<path d="M159.835 121.675C159.762 120.974 159.84 120.313 159.698 119.62C159.604 119.157 159.644 118.674 159.575 118.206C159.462 117.44 159.199 116.718 158.991 115.976C158.584 114.522 158.201 113.101 158.005 111.602C157.752 109.658 157.694 107.798 157.794 105.838C157.894 103.896 158.289 101.813 159.191 100.077C159.576 99.3367 159.995 98.6211 160.539 97.9834C161.194 97.2163 162.09 96.7771 162.966 96.3144C163.645 95.9554 164.364 95.5713 165.123 95.4079C165.676 95.2887 166.264 95.5639 166.764 95.7714C168.137 96.3413 169.045 98.079 169.524 99.3871C169.844 100.258 169.893 101.206 170.036 102.115C170.189 103.089 170.243 104.028 170.271 105.008C170.293 105.795 170.241 106.475 170.044 107.244C169.807 108.172 169.672 109.12 169.338 110.02C168.82 111.418 168.4 112.88 167.504 114.093C166.574 115.354 165.26 116.346 164.051 117.329C163.243 117.985 162.569 118.781 161.794 119.46C161.385 119.818 160.848 120.315 160.568 120.788C160.42 121.039 160.121 121.35 160.092 121.641C160.07 121.857 159.899 122.184 159.984 122.367" stroke="white" stroke-linecap="round"/>
<path d="M166.488 114.814C165.505 112.733 163.625 111.262 162.64 109.2C162.065 107.996 161.741 106.673 161.472 105.369" stroke="white" stroke-linecap="round"/>
<path d="M169.176 108.338C167.345 106.627 165.617 104.825 164.558 102.519C164.037 101.385 164.207 100.205 164.466 99.0065" stroke="white" stroke-linecap="round"/>
<path d="M177.07 134.719C176.735 133.162 177.934 131.783 178.946 130.748C180.576 129.083 182.739 128.057 184.829 127.097C186.936 126.129 188.998 125.414 191.3 125.072C192.37 124.914 193.609 124.751 194.632 125.251C197.059 126.437 196.004 129.636 194.63 131.216C193.548 132.459 191.781 133.201 190.311 133.876C189.088 134.438 187.966 134.972 186.638 135.225C185.415 135.459 184.137 135.545 182.9 135.694C181.961 135.807 181.11 135.903 180.216 135.537C179.626 135.295 178.982 134.98 178.689 134.379C178.572 134.138 178.414 133.854 178.528 133.58C178.752 133.043 179.632 132.54 180.121 132.303C181.43 131.669 182.786 131.087 184.156 130.599C185.243 130.213 186.514 129.742 187.678 129.761C188.452 129.773 189.106 129.624 189.765 130.154C190.469 130.719 190.262 131.684 190.067 132.467" stroke="white" stroke-linecap="round"/>
<path d="M177.249 161.602C178.223 162.932 179.866 163.943 181.226 164.818C181.78 165.176 182.376 165.441 182.947 165.765C183.284 165.956 183.59 166.203 183.957 166.339C186.417 167.249 189.319 165.692 191.491 164.695C192.947 164.026 194.437 163.374 195.41 162.044C196.025 161.203 196.544 160.241 196.64 159.201C196.745 158.067 196.407 156.672 195.968 155.622C195.626 154.806 195.28 153.658 194.62 153.047C193.959 152.435 193.321 152.16 192.412 152.146C190.664 152.118 188.883 152.177 187.144 152.373C184.539 152.668 181.715 153.889 179.818 155.683C179.033 156.426 178.192 157.13 177.481 157.945C177.132 158.344 176.651 158.932 176.544 159.474C176.339 160.516 177.167 161.623 177.881 162.241" stroke="white" stroke-linecap="round"/>
<path d="M183.316 158.983C183.601 157.623 184.566 156.808 185.586 155.931C186.001 155.573 186.384 155.207 186.885 154.977" stroke="white" stroke-linecap="round"/>
<path d="M183.357 159.81C183.923 160.99 185.088 161.548 186.255 162.028C186.928 162.305 187.63 162.659 188.363 162.732C188.554 162.751 188.76 162.716 188.931 162.743" stroke="white" stroke-linecap="round"/>
<path d="M188.119 158.214C188.738 159.102 189.884 159.837 190.851 160.288C191.202 160.451 191.735 160.763 192.145 160.722C192.546 160.682 192.779 160.295 193.008 160.025" stroke="white" stroke-linecap="round"/>
<path d="M188.952 156.901C190.44 156.217 191.92 155.306 193.548 155.128" stroke="white" stroke-linecap="round"/>
<path d="M112.676 186.335C110.399 186.03 108.082 185.15 106.183 183.843C104.904 182.964 103.809 182.002 102.666 180.96C101.313 179.728 100.459 177.87 99.7656 176.21C99.1861 174.822 98.9941 172.807 99.8229 171.501C100.416 170.565 101.037 169.994 102.176 169.903C103.647 169.785 104.735 170.167 106.062 170.717C106.695 170.979 107.241 171.366 107.853 171.667C108.769 172.118 109.778 172.581 110.511 173.304C111.882 174.658 112.871 176.162 114.02 177.695C114.995 178.996 117.014 182.254 115.474 183.832C115.053 184.264 114.654 184.782 114.08 185.07C113.442 185.39 112.448 185.123 111.863 184.791C110.548 184.045 109.225 183.13 108.246 181.965C107.26 180.792 106.309 179.706 105.931 178.174C105.653 177.047 105.71 175.853 106.002 174.733C106.081 174.433 106.208 173.965 106.418 173.727C106.846 173.241 108.111 173.489 108.646 173.518" stroke="white" stroke-linecap="round"/>
<path d="M94.1976 196.477C93.282 197.84 91.2273 198.626 89.6855 199.01C88.179 199.385 86.6434 199.45 85.0968 199.477C83.2361 199.509 81.7883 198.684 80.0874 198.054C78.3947 197.427 76.6998 196.994 75.1731 196.014C73.6829 195.057 69.3799 191.64 72.2414 189.958C75.2328 188.199 78.6737 189.038 81.7902 189.932C83.3203 190.371 84.7227 191.18 86.2436 191.656C87.6726 192.103 88.9615 192.729 90.2705 193.438C91.2519 193.97 92.1674 194.816 92.9597 195.594C93.0852 195.717 94.2818 196.967 94.1688 197.139C93.8016 197.698 90.7825 195.879 90.4136 195.611C89.5572 194.987 88.5291 194.098 87.4914 193.797C86.5594 193.526 85.5549 193.492 84.5989 193.347C81.7066 192.907 78.8175 192.34 75.8877 192.598" stroke="white" stroke-linecap="round"/>
<path d="M123.87 218.791C122.292 217.257 119.967 216.608 117.869 216.074C115.684 215.517 113.5 214.926 111.279 215.67C110.241 216.017 109.262 216.413 108.267 216.87C107.435 217.252 106.367 217.706 105.734 218.39C105.124 219.049 104.544 219.695 104.011 220.421C103.572 221.02 102.911 221.549 102.63 222.249C102.308 223.05 102.113 223.904 101.964 224.747C101.876 225.249 101.125 225.634 102.142 225.859C106.272 226.774 110.352 227.272 114.592 226.876C115.798 226.764 117.159 226.638 118.323 226.292C119.258 226.015 120.133 225.578 121.014 225.165C122.117 224.648 123.137 223.983 124.247 223.473C124.779 223.229 125.242 222.679 125.609 222.227C126.206 221.493 126.451 220.857 126.057 219.956C125.609 218.929 124.454 218.337 123.413 218.072C122.739 217.9 122.071 217.864 121.38 217.869C120.529 217.876 119.69 217.748 118.841 217.739C117.703 217.726 116.633 218.064 115.751 218.757C114.926 219.405 114.252 219.811 114.727 220.926C115.191 222.014 116.844 221.805 117.846 221.869" stroke="white" stroke-linecap="round"/>
<path d="M149.674 267.984C147.889 269.061 145.884 268.332 144.046 267.826C143.193 267.591 142.208 267.799 141.339 267.83C140.213 267.871 139.014 267.958 137.898 267.759C136.022 267.425 134.101 267.063 132.257 266.586C131.053 266.274 129.713 264.993 130.1 263.652C130.625 261.832 133.478 261.424 134.995 261.116C136.667 260.777 138.327 260.804 140.021 260.764C141.51 260.728 143.16 260.95 144.582 261.399C146.43 261.983 148.328 263.481 149.154 265.279C149.591 266.231 150.029 267.183 150.467 268.136" stroke="white" stroke-linecap="round"/>
<path d="M167.071 257.511C165.045 257.413 162.921 257.244 161.05 256.398C160.048 255.945 159.073 255.406 158.124 254.85C156.53 253.916 154.883 252.891 153.738 251.425C152.88 250.327 151.806 248.66 151.702 247.219C151.61 245.938 152.144 244.705 152.995 243.738C153.945 242.659 155.13 242.561 156.467 242.826C157.839 243.097 159.182 243.502 160.488 243.997C161.399 244.342 162.463 244.542 163.27 245.106C164.46 245.936 165.38 246.863 165.99 248.189C166.219 248.689 166.49 249.363 166.255 249.915C166.034 250.435 165.332 250.883 164.885 251.181C164.161 251.666 162.455 252.841 161.564 252.271C160.875 251.831 161.129 251.021 161.697 250.661C162.695 250.028 163.753 249.644 164.946 249.914C165.811 250.11 166.74 250.252 167.512 250.703C168.436 251.244 169.604 252.129 170.016 253.168C170.325 253.946 169.94 255.097 169.371 255.674C168.657 256.399 167.536 256.518 166.71 257.063C166.25 257.367 165.838 257.768 165.333 258" stroke="white" stroke-linecap="round"/>
<path d="M201.604 258.482C199.561 257.563 197.404 257.012 195.396 255.986C193.952 255.248 192.453 254.155 191.347 252.968C190.951 252.544 189.959 251.659 190.111 250.954C190.259 250.271 191.253 250.023 191.804 249.866C194.472 249.106 197.283 249.983 199.746 251.015C201.167 251.61 202.504 252.169 203.664 253.197C204.454 253.899 205.546 254.716 205.917 255.766C206.166 256.468 204.534 256.93 204.121 256.953C203.133 257.006 202.4 256.351 201.631 255.841C201.207 255.561 200.808 255.342 201.597 255.294C202.56 255.237 203.264 255.473 204.003 256.083C204.722 256.677 205.843 257.794 204.846 258.593C204.272 259.054 203.661 259.396 202.997 259.701C202.704 259.836 202.384 259.776 202.061 259.925" stroke="white" stroke-linecap="round"/>
<path d="M174.081 283.11C172.442 283.069 170.845 283.633 169.346 284.258C167.765 284.918 166.038 285.387 164.559 286.268C163.241 287.054 162.062 288.234 161.205 289.497C160.767 290.141 160.257 290.771 159.849 291.428C159.521 291.956 159.133 292.397 158.956 293.009C158.633 294.131 158.319 295.938 159.145 296.916C160.038 297.975 161.589 297.951 162.818 297.679C164.588 297.288 166.246 296.496 167.951 295.923C170.428 295.092 171.944 293.347 173.063 291.061C173.465 290.238 173.982 287.956 172.521 287.746C171.098 287.543 169.494 287.973 168.143 288.398C167.585 288.573 166.327 288.942 166.701 289.755C167.039 290.492 169.791 289.008 170.463 288.813C171.517 288.505 172.492 288.272 173.431 287.667C173.876 287.38 174.335 287.197 174.737 286.837C175.212 286.413 175.602 285.855 175.981 285.348C176.22 285.026 176.535 284.85 176.597 284.428C176.657 284.015 176.526 283.662 176.446 283.263C176.405 283.056 176.361 282.769 176.216 282.6C176.058 282.415 174.871 283.241 174.703 283.341" stroke="white" stroke-linecap="round"/>
</svg>
