<svg width="425" height="487" viewBox="0 0 425 487" fill="none" xmlns="http://www.w3.org/2000/svg">
<path d="M80.0601 330.344C87.2948 335.408 92.0523 342.616 97.7001 349.366C99.627 353.22 99.2428 350.112 99.1634 347.252C98.9729 340.396 97.3185 333.364 96.2369 326.605C93.361 308.63 87.2073 285.768 77.2149 270.352C68.5767 257.024 58.0086 239.491 45.0239 230.113C35.8294 223.472 22.8745 210.359 10.638 210.359C-15.2512 210.359 18.6323 269.558 23.8884 278.318C28.2557 285.597 35.7377 292.502 42.0162 298.153C48.5288 304.014 53.413 311.651 59.9814 317.175C66.4969 322.654 73.3015 325.613 80.0601 330.344Z" stroke="white" stroke-linecap="round"/>
<path d="M15.7592 224.991C51.867 252.846 112.053 379.678 91.1967 339.123C84.8392 326.761 72.4427 317.095 64.3709 305.794C56.7907 295.182 49.3315 284.78 42.0973 273.928C35.6134 264.202 30.4363 255.905 25.6766 245.152C22.5009 237.977 14.296 231.421 14.296 223.528" stroke="white" stroke-linecap="round"/>
<path d="M18.6856 220.602C31.2832 233.199 46.8111 244.973 56.4044 260.109C63.5198 271.335 68.788 283.884 76.0767 294.901C83.0954 305.511 85.0291 316.99 88.9205 328.881C91.0485 335.383 91.842 343.503 94.7735 349.366" stroke="white" stroke-linecap="round"/>
<path d="M138.67 312.785C138.67 295.858 142.771 279.416 141.516 262.466C140.613 250.284 138.566 236.306 136.475 224.178C131.69 196.421 130.394 168.039 125.826 140.124C123.772 127.57 119.405 108.128 130.623 99.1537C131.86 98.1636 134.477 117.858 135.012 120.533C139.152 141.23 142.36 161.453 143.141 182.558C144.317 214.308 147.59 244.649 142.735 276.204C140.68 289.563 142.226 275.895 143.385 270.677C146.994 254.439 153.066 240.564 153.303 223.528C153.667 197.32 155.896 172.564 151.108 146.709C149.442 137.715 144.825 129.844 143.06 121.021C141.903 115.234 139.277 106.47 132.005 106.47C123.352 106.47 121.359 115.568 117.86 122.565C111.598 135.09 105.686 146.346 103.878 160.609C101.152 182.115 104.809 209.945 114.527 229.381C122.607 245.541 130.453 261.106 137.207 277.993C138.41 281 140.134 290.499 140.134 287.26C140.134 282.638 138.989 277.849 138.345 273.278C135.939 256.197 129.151 240.149 125.826 223.528C123.18 210.298 122.575 195.303 122.575 181.826C122.575 169.27 125.501 157.199 125.501 144.595C125.501 136.09 128.597 129.122 130.623 121.021C130.922 119.823 135.96 104.654 137.207 109.64C140.614 123.268 143.438 137.881 144.848 151.83C146.612 169.268 144.986 186.804 147.125 204.181C148.935 218.894 147.673 235.089 144.523 249.541C142.746 257.696 141.26 266.973 138.67 274.741" stroke="white" stroke-linecap="round"/>
<path d="M220.611 195.727C226.907 180.542 231.988 162.271 225.651 145.977C223.294 139.915 218.2 135.013 215.652 129.069C211.981 120.501 212.808 108.25 213.376 99.1537C214.666 78.5214 217.447 59.7071 221.749 39.4865C224.483 26.6373 226.867 11.8733 236.707 2.58062C244.412 -4.69691 250.445 15.2795 252.802 19.489C263.126 37.9241 262.765 60.5726 265.24 80.8633C267.915 102.805 260.434 121.459 254.265 141.912C251.092 152.436 247.796 160.693 239.958 168.251C236.432 171.651 228.258 175.809 227.927 181.094C227.598 186.369 230.264 170.786 231.504 165.649C234.578 152.915 235.937 138.493 236.625 125.411C237.92 100.807 239.459 75.5345 238.089 50.8672C237.781 45.3386 232.731 5.99918 241.096 5.50708C246.828 5.16991 248.674 14.9537 249.876 19.0013C253.894 32.5368 258.509 45.6843 258.655 59.9717C258.95 88.9126 255.24 117.597 242.56 143.863C238.984 151.27 237.547 161.232 231.585 167.194C227.515 171.264 236.66 150.906 237.438 148.091C241.275 134.22 245.536 120.766 247.274 106.47C248.924 92.9086 248.6 79.1598 248.413 65.4994C248.145 45.9489 244.023 26.467 244.023 6.9703" stroke="white" stroke-linecap="round"/>
<path d="M282.067 141.587C279.678 127.255 289.138 113.299 297.431 102.243C310.222 85.1874 323.856 69.9553 339.864 55.9073C355.609 42.0906 372.568 35.1085 391.809 27.4557C400.327 24.0679 408.887 20.1395 418.147 20.1395" stroke="white" stroke-linecap="round"/>
<path d="M424 20.1395C416.558 30.1393 415.089 43.1012 408.555 53.7938C400.134 67.5733 385.546 79.079 374.25 90.3745C362.607 102.018 346.942 111.823 333.28 121.102C317.707 131.68 301.13 137.184 283.53 143.051" stroke="white" stroke-linecap="round"/>
<path d="M280.604 144.514C285.291 120.606 310.145 103.996 325.964 87.1228C336.01 76.4072 348.019 68.1964 359.78 59.484C371.323 50.9339 381.187 41.8291 394.735 36.5601C400.849 34.1827 406.441 31.1139 412.294 28.1872C416.197 26.2359 418.224 24.2555 415.221 28.5936C405.714 42.3252 392.169 54.7517 380.428 66.6376C371.396 75.7812 362.242 85.0123 352.952 93.8699C343.612 102.776 331.382 107.941 321.574 116.387C314.425 122.543 307.242 128.874 298.162 131.995C297.19 132.329 283.977 135.434 286.456 132.808C293.051 125.826 302.781 120.88 310.031 114.355C323.323 102.392 336.929 90.147 351.164 79.3189C364.963 68.822 379.496 59.6327 393.191 48.835C401.729 42.103 411.161 36.2508 421.073 31.8453" stroke="white" stroke-linecap="round"/>
<path d="M215.823 246.947C233.664 223.229 246.368 203.969 271.672 189.736C284.838 182.33 298.782 178.21 313.293 174.147C325.315 170.781 337.314 169.217 349.315 165.217C358.568 162.133 372.575 157.993 375.196 147.509" stroke="white" stroke-linecap="round"/>
<path d="M372.472 150.233C370.624 162.014 368.923 176.099 363.466 187.012C355.948 202.049 340.627 212.469 326.158 219.704C316.462 224.552 307.733 231.929 297.553 235.747C287.384 239.56 274.597 242.57 263.801 243.92C248.755 245.801 228.503 243.802 217.185 255.12" stroke="white" stroke-linecap="round"/>
<path d="M207.65 248.309C226.694 217.545 263.549 201.979 296.19 191.098C312.214 185.757 328.675 181.644 344.547 175.433C349.447 173.516 354.802 171.384 358.547 167.639C361.573 164.612 354.36 174.897 353.326 176.19C347.73 183.185 343.018 191.208 337.055 197.833C328.988 206.797 319.683 209.849 308.753 214.558C296.203 219.963 284.371 226.826 271.671 231.963C258.422 237.322 246.416 239.736 232.32 241.498C229.109 241.9 225.805 242.574 222.709 243.541C221.761 243.838 219.616 245.675 219.985 244.752C220.967 242.298 224.842 240.711 226.871 239.379C235.172 233.932 243.83 228.973 252.299 223.79C271.344 212.133 291.815 206.747 312.385 198.59C324.799 193.667 337.069 188.173 349.315 182.925" stroke="white" stroke-linecap="round"/>
<path d="M221.272 302.795C229.995 296.564 240.861 292.874 250.634 288.493C260.024 284.283 268.041 278.688 278.482 277.217C291.729 275.351 305.252 271.466 318.666 271.466C322.087 271.466 323.829 271.071 320.709 274.19C316.956 277.943 313.09 281.58 309.812 285.768C300.71 297.399 283.955 300.693 270.007 302.493C260.775 303.684 251.003 304.927 241.704 305.444C240.001 305.539 222.15 305.557 222.937 304.157C225.134 300.251 242.921 300.24 247.077 298.709C258.722 294.419 270.579 290.195 281.888 285.087C289.502 281.648 297.603 279.102 305.12 275.552C308.613 273.903 310.877 273.872 307.769 277.671C302.793 283.752 296.704 287.573 289.38 290.536C278.909 294.771 266.214 294.355 256.688 300.071" stroke="white" stroke-linecap="round"/>
<path d="M195.39 323.228C216.516 309.144 249.743 319.756 270.309 330.039C272.764 331.266 280.994 334.125 275.001 334.125C265.148 334.125 256.46 341.301 247.152 343.66C235.438 346.63 223.547 343.489 214.46 335.412C211.365 332.661 208.255 330.091 204.925 327.617C204.188 327.069 198.469 324.582 201.142 327.012C204.036 329.643 212.406 330.078 215.974 330.72C224.957 332.337 233.839 334.125 242.99 334.125C252.458 334.125 257.451 332.545 266.223 330.039" stroke="white" stroke-linecap="round"/>
<path d="M181.769 355.92C162.802 342.531 155.725 387.906 184.418 374.158C189.538 371.704 200.95 364.591 199.326 357.282C198.052 351.549 188.2 349.485 183.736 351.985C181.511 353.231 169.057 359.851 173.142 363.79C176.682 367.203 191.879 369.293 194.785 364.093C202.346 350.563 165.899 358.201 183.131 366.817" stroke="white" stroke-linecap="round"/>
<path d="M173.596 181.563C178.474 175.133 187.526 164.518 197.282 167.487C202.685 169.132 203.924 180.023 203.261 184.59C200.907 200.804 181.196 195.398 184.796 180.201C187.834 167.371 209.756 181.924 191.304 190.795C186.659 193.029 181.08 188.483 186.082 185.044C191.432 181.366 194.584 182.732 195.39 188.374" stroke="white" stroke-linecap="round"/>
<path d="M285.911 140.478C209.136 195.728 210.956 221.984 168.693 278.244M196.221 195.728C195.807 216.536 189.723 262.171 168.693 278.244M168.693 278.244C167.082 280.388 165.475 282.541 163.872 284.701M213.441 248.107C202.801 252.173 177.991 265.185 163.872 284.701M163.872 284.701C140.668 315.982 118.438 348.86 100.072 381.027M222.052 301.922C185.683 321.65 121.828 366.011 84.6001 419.596M168.693 365.064C142.441 371.522 88.8692 391.469 84.6001 419.596M84.6001 419.596C69.9242 440.721 59.3867 463.279 56.3028 486.326C62.7208 454.566 78.8061 418.272 100.072 381.027M100.072 349.279C102.175 356.093 105.119 371.984 100.072 381.027" stroke="white"/>
</svg>
